/* XPM */
static char *result[] = {
/* columns rows colors chars-per-pixel */
"64 64 5 1 ",
"  c #5C4E92",
". c #766DAA",
"X c #DDD5DE",
"o c #F3F2C0",
"O c None",
/* pixels */
"OOOOOOOO                OOOOOOOOOOOOOOOO                OOOOOOOO",
"OOOOOOOO                OOOOOOOOOOOOOOOO                OOOOOOOO",
"OOOOOOOO                OOOOOOOOOOOOOOOO                OOOOOOOO",
"OOOOOOOO                OOOOOOOOOOOOOOOO                OOOOOOOO",
"OOOO    oooooooooooooooo    OOOOOOOO    oooooooooooooooo    OOOO",
"OOOO    oooooooooooooooo    OOOOOOOO    oooooooooooooooo    OOOO",
"OOOO    oooooooooooooooo    OOOOOOOO    oooooooooooooooo    OOOO",
"OOOO    oooooooooooooooo    OOOOOOOO    oooooooooooooooo    OOOO",
"OOOO    oooooooooooooooo                oooooooooooooooo    OOOO",
"OOOO    oooooooooooooooo                oooooooooooooooo    OOOO",
"OOOO    oooooooooooooooo                oooooooooooooooo    OOOO",
"OOOO    oooooooooooooooo                oooooooooooooooo    OOOO",
"OOOO    ooooooooooooooooXXXXXXXXXXXXXXXXoooooooooooooooo    OOOO",
"OOOO    ooooooooooooooooXXXXXXXXXXXXXXXXoooooooooooooooo    OOOO",
"OOOO    ooooooooooooooooXXXXXXXXXXXXXXXXoooooooooooooooo    OOOO",
"OOOO    ooooooooooooooooXXXXXXXXXXXXXXXXoooooooooooooooo    OOOO",
"OOOO    oooooooooooooooooooooooooooooooooooooooooooooooo    OOOO",
"OOOO    oooooooooooooooooooooooooooooooooooooooooooooooo    OOOO",
"OOOO    oooooooooooooooooooooooooooooooooooooooooooooooo    OOOO",
"OOOO    oooooooooooooooooooooooooooooooooooooooooooooooo    OOOO",
"OOOO    oooooooooooooooooooooooooooooooooooooooooooooooo    OOOO",
"OOOO    oooooooooooooooooooooooooooooooooooooooooooooooo    OOOO",
"OOOO    oooooooooooooooooooooooooooooooooooooooooooooooo    OOOO",
"OOOO    oooooooooooooooooooooooooooooooooooooooooooooooo    OOOO",
"        oooooooooooooooooooooooooooooooooooooooooooooooo        ",
"        oooooooooooooooooooooooooooooooooooooooooooooooo        ",
"        oooooooooooooooooooooooooooooooooooooooooooooooo        ",
"        oooooooooooooooooooooooooooooooooooooooooooooooo        ",
"OOOO    oooooooooooooooooooooooooooooooooooooooooooooooo    OOOO",
"OOOO    oooooooooooooooooooooooooooooooooooooooooooooooo    OOOO",
"OOOO    oooooooooooooooooooooooooooooooooooooooooooooooo    OOOO",
"OOOO    oooooooooooooooooooooooooooooooooooooooooooooooo    OOOO",
"        oooooooooooooooooooooooooooooooooooooooooooooooo        ",
"        oooooooooooooooooooooooooooooooooooooooooooooooo        ",
"        oooooooooooooooooooooooooooooooooooooooooooooooo        ",
"        oooooooooooooooooooooooooooooooooooooooooooooooo        ",
"OOOOOOOO    oooooooooooooooooooooooooooooooooooooooo    OOOOOOOO",
"OOOOOOOO    oooooooooooooooooooooooooooooooooooooooo    OOOOOOOO",
"OOOOOOOO    oooooooooooooooooooooooooooooooooooooooo    OOOOOOOO",
"OOOOOOOO    oooooooooooooooooooooooooooooooooooooooo    OOOOOOOO",
"OOOOOOOOOOOO        ........................            OOOOOOOO",
"OOOOOOOOOOOO        ........................            OOOOOOOO",
"OOOOOOOOOOOO        ........................            OOOOOOOO",
"OOOOOOOOOOOO        ........................            OOOOOOOO",
"OOOOOOOOOOOO        ........        ........ooooXXXX    OOOOOOOO",
"OOOOOOOOOOOO        ........        ........ooooXXXX    OOOOOOOO",
"OOOOOOOOOOOO        ........        ........ooooXXXX    OOOOOOOO",
"OOOOOOOOOOOO        ........        ........ooooXXXX    OOOOOOOO",
"OOOOOOOO    XXXXoooooooo    oooooooo    oooooooo    OOOOOOOOOOOO",
"OOOOOOOO    XXXXoooooooo    oooooooo    oooooooo    OOOOOOOOOOOO",
"OOOOOOOO    XXXXoooooooo    oooooooo    oooooooo    OOOOOOOOOOOO",
"OOOOOOOO    XXXXoooooooo    oooooooo    oooooooo    OOOOOOOOOOOO",
"OOOOOOOO    XXXXoooo    oooooooooooooooooooo    OOOOOOOOOOOOOOOO",
"OOOOOOOO    XXXXoooo    oooooooooooooooooooo    OOOOOOOOOOOOOOOO",
"OOOOOOOO    XXXXoooo    oooooooooooooooooooo    OOOOOOOOOOOOOOOO",
"OOOOOOOO    XXXXoooo    oooooooooooooooooooo    OOOOOOOOOOOOOOOO",
"OOOOOOOO                            XXXXXXXX    OOOOOOOOOOOOOOOO",
"OOOOOOOO                            XXXXXXXX    OOOOOOOOOOOOOOOO",
"OOOOOOOO                            XXXXXXXX    OOOOOOOOOOOOOOOO",
"OOOOOOOO                            XXXXXXXX    OOOOOOOOOOOOOOOO",
"OOOOOOOOOOOOOOOOOOOOOOOOOOOOOOOOOOOO        OOOOOOOOOOOOOOOOOOOO",
"OOOOOOOOOOOOOOOOOOOOOOOOOOOOOOOOOOOO        OOOOOOOOOOOOOOOOOOOO",
"OOOOOOOOOOOOOOOOOOOOOOOOOOOOOOOOOOOO        OOOOOOOOOOOOOOOOOOOO",
"OOOOOOOOOOOOOOOOOOOOOOOOOOOOOOOOOOOO        OOOOOOOOOOOOOOOOOOOO"
};
