/* XPM */
static char *result[] = {
/* columns rows colors chars-per-pixel */
"64 64 8 1 ",
"  c #EAE178",
". c #5C4E92",
"X c #766DAA",
"o c #E8B5AC",
"O c #DDD5DE",
"+ c #F3D8C5",
"@ c #F3F2C0",
"# c None",
/* pixels */
"########################............############################",
"########################............############################",
"########################............############################",
"########################............############################",
"####################....@@@@@@@@@@@@....########################",
"####################....@@@@@@@@@@@@....########################",
"####################....@@@@@@@@@@@@....########################",
"####################....@@@@@@@@@@@@....########################",
"################....@@@@oooooooo@@@@........####################",
"################....@@@@oooooooo@@@@........####################",
"################....@@@@oooooooo@@@@........####################",
"################....@@@@oooooooo@@@@........####################",
"################....@@@@oooooooo@@@@@@@@@@@@....################",
"################....@@@@oooooooo@@@@@@@@@@@@....################",
"################....@@@@oooooooo@@@@@@@@@@@@....################",
"################....@@@@oooooooo@@@@@@@@@@@@....################",
"################....@@@@@@@@@@@@@@@@@@@@@@@@....################",
"################....@@@@@@@@@@@@@@@@@@@@@@@@....################",
"################....@@@@@@@@@@@@@@@@@@@@@@@@....################",
"################....@@@@@@@@@@@@@@@@@@@@@@@@....################",
"################....@@@@@@@@@@@@@@@@@@@@@@@@....################",
"################....@@@@@@@@@@@@@@@@@@@@@@@@....################",
"################....@@@@@@@@@@@@@@@@@@@@@@@@....################",
"################....@@@@@@@@@@@@@@@@@@@@@@@@....################",
"############........@@@@@@@@@@@@@@@@@@@@@@@@........############",
"############........@@@@@@@@@@@@@@@@@@@@@@@@........############",
"############........@@@@@@@@@@@@@@@@@@@@@@@@........############",
"############........@@@@@@@@@@@@@@@@@@@@@@@@........############",
"################....@@@@@@@@@@@@@@@@....@@@@@@@@....############",
"################....@@@@@@@@@@@@@@@@....@@@@@@@@....############",
"################....@@@@@@@@@@@@@@@@....@@@@@@@@....############",
"################....@@@@@@@@@@@@@@@@....@@@@@@@@....############",
"############........@@@@@@@@@@@@@@@@@@@@@@@@@@@@....############",
"############........@@@@@@@@@@@@@@@@@@@@@@@@@@@@....############",
"############........@@@@@@@@@@@@@@@@@@@@@@@@@@@@....############",
"############........@@@@@@@@@@@@@@@@@@@@@@@@@@@@....############",
"################....@@@@@@@@++++++++@@@@@@@@@@@@....############",
"################....@@@@@@@@++++++++@@@@@@@@@@@@....############",
"################....@@@@@@@@++++++++@@@@@@@@@@@@....############",
"################....@@@@@@@@++++++++@@@@@@@@@@@@....############",
"####################....XXXXXXXXXXXXXXXXXXXX....################",
"####################....XXXXXXXXXXXXXXXXXXXX....################",
"####################....XXXXXXXXXXXXXXXXXXXX....################",
"####################....XXXXXXXXXXXXXXXXXXXX....################",
"####################....@@@@@@@@OOOO....XXXX    ################",
"####################....@@@@@@@@OOOO....XXXX    ################",
"####################....@@@@@@@@OOOO....XXXX    ################",
"####################....@@@@@@@@OOOO....XXXX    ################",
"####################....@@@@@@@@OOOO........    ################",
"####################....@@@@@@@@OOOO........    ################",
"####################....@@@@@@@@OOOO........    ################",
"####################....@@@@@@@@OOOO........    ################",
"################....@@@@@@@@@@@@....@@@@........################",
"################....@@@@@@@@@@@@....@@@@........################",
"################....@@@@@@@@@@@@....@@@@........################",
"################....@@@@@@@@@@@@....@@@@........################",
"################....OOOOOOOO....................################",
"################....OOOOOOOO....................################",
"################....OOOOOOOO....................################",
"################....OOOOOOOO....................################",
"####################........########........####################",
"####################........########........####################",
"####################........########........####################",
"####################........########........####################"
};
