/* XPM */
static char *result[] = {
/* columns rows colors chars-per-pixel */
"64 64 5 1 ",
"  c #5C4E92",
". c #766DAA",
"X c #DDD5DE",
"o c #F3F2C0",
"O c None",
/* pixels */
"OOOOOOOO                OOOOOOOOOOOOOOOO                OOOOOOOO",
"OOOOOOOO                OOOOOOOOOOOOOOOO                OOOOOOOO",
"OOOOOOOO                OOOOOOOOOOOOOOOO                OOOOOOOO",
"OOOOOOOO                OOOOOOOOOOOOOOOO                OOOOOOOO",
"OOOO    oooooooooooooooo    OOOOOOOO    oooooooooooooooo    OOOO",
"OOOO    oooooooooooooooo    OOOOOOOO    oooooooooooooooo    OOOO",
"OOOO    oooooooooooooooo    OOOOOOOO    oooooooooooooooo    OOOO",
"OOOO    oooooooooooooooo    OOOOOOOO    oooooooooooooooo    OOOO",
"OOOO    oooooooooooooooo                oooooooooooooooo    OOOO",
"OOOO    oooooooooooooooo                oooooooooooooooo    OOOO",
"OOOO    oooooooooooooooo                oooooooooooooooo    OOOO",
"OOOO    oooooooooooooooo                oooooooooooooooo    OOOO",
"OOOO    ooooooooooooooooXXXXXXXXXXXXXXXXoooooooooooooooo    OOOO",
"OOOO    ooooooooooooooooXXXXXXXXXXXXXXXXoooooooooooooooo    OOOO",
"OOOO    ooooooooooooooooXXXXXXXXXXXXXXXXoooooooooooooooo    OOOO",
"OOOO    ooooooooooooooooXXXXXXXXXXXXXXXXoooooooooooooooo    OOOO",
"OOOO    oooooooooooooooooooooooooooooooooooooooooooooooo    OOOO",
"OOOO    oooooooooooooooooooooooooooooooooooooooooooooooo    OOOO",
"OOOO    oooooooooooooooooooooooooooooooooooooooooooooooo    OOOO",
"OOOO    oooooooooooooooooooooooooooooooooooooooooooooooo    OOOO",
"OOOO    oooooooooooooooooooooooooooooooooooooooooooooooo    OOOO",
"OOOO    oooooooooooooooooooooooooooooooooooooooooooooooo    OOOO",
"OOOO    oooooooooooooooooooooooooooooooooooooooooooooooo    OOOO",
"OOOO    oooooooooooooooooooooooooooooooooooooooooooooooo    OOOO",
"        oooooooooooooooooooooooooooooooooooooooooooooooo        ",
"        oooooooooooooooooooooooooooooooooooooooooooooooo        ",
"        oooooooooooooooooooooooooooooooooooooooooooooooo        ",
"        oooooooooooooooooooooooooooooooooooooooooooooooo        ",
"OOOO    oooooooooooooooooooooooooooooooooooooooooooooooo    OOOO",
"OOOO    oooooooooooooooooooooooooooooooooooooooooooooooo    OOOO",
"OOOO    oooooooooooooooooooooooooooooooooooooooooooooooo    OOOO",
"OOOO    oooooooooooooooooooooooooooooooooooooooooooooooo    OOOO",
"        oooooooooooooooooooooooooooooooooooooooooooooooo        ",
"        oooooooooooooooooooooooooooooooooooooooooooooooo        ",
"        oooooooooooooooooooooooooooooooooooooooooooooooo        ",
"        oooooooooooooooooooooooooooooooooooooooooooooooo        ",
"OOOO        oooooooooooooooooooooooooooooooooooooooo        OOOO",
"OOOO        oooooooooooooooooooooooooooooooooooooooo        OOOO",
"OOOO        oooooooooooooooooooooooooooooooooooooooo        OOOO",
"OOOO        oooooooooooooooooooooooooooooooooooooooo        OOOO",
"OOOOOOOOOOOO        ........................        OOOOOOOOOOOO",
"OOOOOOOOOOOO        ........................        OOOOOOOOOOOO",
"OOOOOOOOOOOO        ........................        OOOOOOOOOOOO",
"OOOOOOOOOOOO        ........................        OOOOOOOOOOOO",
"OOOOOOOO    XXXXoooo........        ........ooooXXXX    OOOOOOOO",
"OOOOOOOO    XXXXoooo........        ........ooooXXXX    OOOOOOOO",
"OOOOOOOO    XXXXoooo........        ........ooooXXXX    OOOOOOOO",
"OOOOOOOO    XXXXoooo........        ........ooooXXXX    OOOOOOOO",
"OOOOOOOO    XXXXoooooooo    oooooooo    ooooooooXXXX    OOOOOOOO",
"OOOOOOOO    XXXXoooooooo    oooooooo    ooooooooXXXX    OOOOOOOO",
"OOOOOOOO    XXXXoooooooo    oooooooo    ooooooooXXXX    OOOOOOOO",
"OOOOOOOO    XXXXoooooooo    oooooooo    ooooooooXXXX    OOOOOOOO",
"OOOOOOOOOOOO        oooooooooooooooooooooooo        OOOOOOOOOOOO",
"OOOOOOOOOOOO        oooooooooooooooooooooooo        OOOOOOOOOOOO",
"OOOOOOOOOOOO        oooooooooooooooooooooooo        OOOOOOOOOOOO",
"OOOOOOOOOOOO        oooooooooooooooooooooooo        OOOOOOOOOOOO",
"OOOOOOOOOOOOOOOO    XXXXXXXX        XXXXXXXX    OOOOOOOOOOOOOOOO",
"OOOOOOOOOOOOOOOO    XXXXXXXX        XXXXXXXX    OOOOOOOOOOOOOOOO",
"OOOOOOOOOOOOOOOO    XXXXXXXX        XXXXXXXX    OOOOOOOOOOOOOOOO",
"OOOOOOOOOOOOOOOO    XXXXXXXX        XXXXXXXX    OOOOOOOOOOOOOOOO",
"OOOOOOOOOOOOOOOOOOOO        OOOOOOOO        OOOOOOOOOOOOOOOOOOOO",
"OOOOOOOOOOOOOOOOOOOO        OOOOOOOO        OOOOOOOOOOOOOOOOOOOO",
"OOOOOOOOOOOOOOOOOOOO        OOOOOOOO        OOOOOOOOOOOOOOOOOOOO",
"OOOOOOOOOOOOOOOOOOOO        OOOOOOOO        OOOOOOOOOOOOOOOOOOOO"
};
