/* XPM */
static char *result[] = {
/* columns rows colors chars-per-pixel */
"64 64 5 1 ",
"  c #5C4E92",
". c #766DAA",
"X c #DDD5DE",
"o c #F3F2C0",
"O c None",
/* pixels */
"OOOOOOOO                OOOOOOOOOOOOOOOO                OOOOOOOO",
"OOOOOOOO                OOOOOOOOOOOOOOOO                OOOOOOOO",
"OOOOOOOO                OOOOOOOOOOOOOOOO                OOOOOOOO",
"OOOOOOOO                OOOOOOOOOOOOOOOO                OOOOOOOO",
"OOOO    oooooooooooooooo    OOOOOOOO    oooooooooooooooo    OOOO",
"OOOO    oooooooooooooooo    OOOOOOOO    oooooooooooooooo    OOOO",
"OOOO    oooooooooooooooo    OOOOOOOO    oooooooooooooooo    OOOO",
"OOOO    oooooooooooooooo    OOOOOOOO    oooooooooooooooo    OOOO",
"OOOO    oooooooooooooooo                oooooooooooooooo    OOOO",
"OOOO    oooooooooooooooo                oooooooooooooooo    OOOO",
"OOOO    oooooooooooooooo                oooooooooooooooo    OOOO",
"OOOO    oooooooooooooooo                oooooooooooooooo    OOOO",
"OOOO    ooooooooooooooooXXXXXXXXXXXXXXXXoooooooooooooooo    OOOO",
"OOOO    ooooooooooooooooXXXXXXXXXXXXXXXXoooooooooooooooo    OOOO",
"OOOO    ooooooooooooooooXXXXXXXXXXXXXXXXoooooooooooooooo    OOOO",
"OOOO    ooooooooooooooooXXXXXXXXXXXXXXXXoooooooooooooooo    OOOO",
"OOOO    oooooooooooooooooooooooooooooooooooooooooooooooo    OOOO",
"OOOO    oooooooooooooooooooooooooooooooooooooooooooooooo    OOOO",
"OOOO    oooooooooooooooooooooooooooooooooooooooooooooooo    OOOO",
"OOOO    oooooooooooooooooooooooooooooooooooooooooooooooo    OOOO",
"OOOO    oooooooooooooooooooooooooooooooooooooooooooooooo    OOOO",
"OOOO    oooooooooooooooooooooooooooooooooooooooooooooooo    OOOO",
"OOOO    oooooooooooooooooooooooooooooooooooooooooooooooo    OOOO",
"OOOO    oooooooooooooooooooooooooooooooooooooooooooooooo    OOOO",
"        oooooooooooooooooooooooooooooooooooooooooooooooo        ",
"        oooooooooooooooooooooooooooooooooooooooooooooooo        ",
"        oooooooooooooooooooooooooooooooooooooooooooooooo        ",
"        oooooooooooooooooooooooooooooooooooooooooooooooo        ",
"OOOO    oooooooooooooooooooooooooooooooooooooooooooooooo    OOOO",
"OOOO    oooooooooooooooooooooooooooooooooooooooooooooooo    OOOO",
"OOOO    oooooooooooooooooooooooooooooooooooooooooooooooo    OOOO",
"OOOO    oooooooooooooooooooooooooooooooooooooooooooooooo    OOOO",
"        oooooooooooooooooooooooooooooooooooooooooooooooo        ",
"        oooooooooooooooooooooooooooooooooooooooooooooooo        ",
"        oooooooooooooooooooooooooooooooooooooooooooooooo        ",
"        oooooooooooooooooooooooooooooooooooooooooooooooo        ",
"OOOOOOOO    oooooooooooooooooooooooooooooooooooooooo    OOOOOOOO",
"OOOOOOOO    oooooooooooooooooooooooooooooooooooooooo    OOOOOOOO",
"OOOOOOOO    oooooooooooooooooooooooooooooooooooooooo    OOOOOOOO",
"OOOOOOOO    oooooooooooooooooooooooooooooooooooooooo    OOOOOOOO",
"OOOOOOOO            ........................        OOOOOOOOOOOO",
"OOOOOOOO            ........................        OOOOOOOOOOOO",
"OOOOOOOO            ........................        OOOOOOOOOOOO",
"OOOOOOOO            ........................        OOOOOOOOOOOO",
"OOOOOOOO    XXXXoooo........        ........        OOOOOOOOOOOO",
"OOOOOOOO    XXXXoooo........        ........        OOOOOOOOOOOO",
"OOOOOOOO    XXXXoooo........        ........        OOOOOOOOOOOO",
"OOOOOOOO    XXXXoooo........        ........        OOOOOOOOOOOO",
"OOOOOOOOOOOO    oooooooo    oooooooo    ooooooooXXXX    OOOOOOOO",
"OOOOOOOOOOOO    oooooooo    oooooooo    ooooooooXXXX    OOOOOOOO",
"OOOOOOOOOOOO    oooooooo    oooooooo    ooooooooXXXX    OOOOOOOO",
"OOOOOOOOOOOO    oooooooo    oooooooo    ooooooooXXXX    OOOOOOOO",
"OOOOOOOOOOOOOOOO    oooooooooooooooooooo    ooooXXXX    OOOOOOOO",
"OOOOOOOOOOOOOOOO    oooooooooooooooooooo    ooooXXXX    OOOOOOOO",
"OOOOOOOOOOOOOOOO    oooooooooooooooooooo    ooooXXXX    OOOOOOOO",
"OOOOOOOOOOOOOOOO    oooooooooooooooooooo    ooooXXXX    OOOOOOOO",
"OOOOOOOOOOOOOOOO    XXXXXXXX                            OOOOOOOO",
"OOOOOOOOOOOOOOOO    XXXXXXXX                            OOOOOOOO",
"OOOOOOOOOOOOOOOO    XXXXXXXX                            OOOOOOOO",
"OOOOOOOOOOOOOOOO    XXXXXXXX                            OOOOOOOO",
"OOOOOOOOOOOOOOOOOOOO        OOOOOOOOOOOOOOOOOOOOOOOOOOOOOOOOOOOO",
"OOOOOOOOOOOOOOOOOOOO        OOOOOOOOOOOOOOOOOOOOOOOOOOOOOOOOOOOO",
"OOOOOOOOOOOOOOOOOOOO        OOOOOOOOOOOOOOOOOOOOOOOOOOOOOOOOOOOO",
"OOOOOOOOOOOOOOOOOOOO        OOOOOOOOOOOOOOOOOOOOOOOOOOOOOOOOOOOO"
};
