/* XPM */
static char *result[] = {
/* columns rows colors chars-per-pixel */
"64 64 5 1 ",
"  c #5C4E92",
". c #766DAA",
"X c #DDD5DE",
"o c #F3F2C0",
"O c None",
/* pixels */
"OOOOOOOO                OOOOOOOOOOOOOOOOOOOO            OOOOOOOO",
"OOOOOOOO                OOOOOOOOOOOOOOOOOOOO            OOOOOOOO",
"OOOOOOOO                OOOOOOOOOOOOOOOOOOOO            OOOOOOOO",
"OOOOOOOO                OOOOOOOOOOOOOOOOOOOO            OOOOOOOO",
"OOOO    oooooooooooo                        oooooooooooo    OOOO",
"OOOO    oooooooooooo                        oooooooooooo    OOOO",
"OOOO    oooooooooooo                        oooooooooooo    OOOO",
"OOOO    oooooooooooo                        oooooooooooo    OOOO",
"OOOO    ooooooooooooooooXXXXXXXXXXXXXXXXoooooooooooooooo    OOOO",
"OOOO    ooooooooooooooooXXXXXXXXXXXXXXXXoooooooooooooooo    OOOO",
"OOOO    ooooooooooooooooXXXXXXXXXXXXXXXXoooooooooooooooo    OOOO",
"OOOO    ooooooooooooooooXXXXXXXXXXXXXXXXoooooooooooooooo    OOOO",
"OOOO    oooooooooooooooooooooooooooooooooooooooooooooooo    OOOO",
"OOOO    oooooooooooooooooooooooooooooooooooooooooooooooo    OOOO",
"OOOO    oooooooooooooooooooooooooooooooooooooooooooooooo    OOOO",
"OOOO    oooooooooooooooooooooooooooooooooooooooooooooooo    OOOO",
"OOOO    oooooooooooooooooooooooooooooooooooooooooooooooo    OOOO",
"OOOO    oooooooooooooooooooooooooooooooooooooooooooooooo    OOOO",
"OOOO    oooooooooooooooooooooooooooooooooooooooooooooooo    OOOO",
"OOOO    oooooooooooooooooooooooooooooooooooooooooooooooo    OOOO",
"        oooooooooooooooooooooooooooooooooooooooooooooooo        ",
"        oooooooooooooooooooooooooooooooooooooooooooooooo        ",
"        oooooooooooooooooooooooooooooooooooooooooooooooo        ",
"        oooooooooooooooooooooooooooooooooooooooooooooooo        ",
"OOOO    oooooooooooooooooooooooooooooooooooooooooooooooo    OOOO",
"OOOO    oooooooooooooooooooooooooooooooooooooooooooooooo    OOOO",
"OOOO    oooooooooooooooooooooooooooooooooooooooooooooooo    OOOO",
"OOOO    oooooooooooooooooooooooooooooooooooooooooooooooo    OOOO",
"        oooooooooooooooooooooooooooooooooooooooooooooooo        ",
"        oooooooooooooooooooooooooooooooooooooooooooooooo        ",
"        oooooooooooooooooooooooooooooooooooooooooooooooo        ",
"        oooooooooooooooooooooooooooooooooooooooooooooooo        ",
"OOOO    oooooooooooooooooooooooooooooooooooooooooooooooo    OOOO",
"OOOO    oooooooooooooooooooooooooooooooooooooooooooooooo    OOOO",
"OOOO    oooooooooooooooooooooooooooooooooooooooooooooooo    OOOO",
"OOOO    oooooooooooooooooooooooooooooooooooooooooooooooo    OOOO",
"OOOOOOOO            ........................            OOOOOOOO",
"OOOOOOOO            ........................            OOOOOOOO",
"OOOOOOOO            ........................            OOOOOOOO",
"OOOOOOOO            ........................            OOOOOOOO",
"OOOOOOOOOOOOOOOO    ........................    OOOOOOOOOOOOOOOO",
"OOOOOOOOOOOOOOOO    ........................    OOOOOOOOOOOOOOOO",
"OOOOOOOOOOOOOOOO    ........................    OOOOOOOOOOOOOOOO",
"OOOOOOOOOOOOOOOO    ........................    OOOOOOOOOOOOOOOO",
"OOOOOOOOOOOO    XXXXoooooooo        ooooooooXXXX    OOOOOOOOOOOO",
"OOOOOOOOOOOO    XXXXoooooooo        ooooooooXXXX    OOOOOOOOOOOO",
"OOOOOOOOOOOO    XXXXoooooooo        ooooooooXXXX    OOOOOOOOOOOO",
"OOOOOOOOOOOO    XXXXoooooooo        ooooooooXXXX    OOOOOOOOOOOO",
"OOOOOOOOOOOO    XXXXoooo    oooooooo    ooooXXXX    OOOOOOOOOOOO",
"OOOOOOOOOOOO    XXXXoooo    oooooooo    ooooXXXX    OOOOOOOOOOOO",
"OOOOOOOOOOOO    XXXXoooo    oooooooo    ooooXXXX    OOOOOOOOOOOO",
"OOOOOOOOOOOO    XXXXoooo    oooooooo    ooooXXXX    OOOOOOOOOOOO",
"OOOOOOOOOOOOOOOO    oooooooooooooooooooooooo    OOOOOOOOOOOOOOOO",
"OOOOOOOOOOOOOOOO    oooooooooooooooooooooooo    OOOOOOOOOOOOOOOO",
"OOOOOOOOOOOOOOOO    oooooooooooooooooooooooo    OOOOOOOOOOOOOOOO",
"OOOOOOOOOOOOOOOO    oooooooooooooooooooooooo    OOOOOOOOOOOOOOOO",
"OOOOOOOOOOOOOOOO    XXXXXXXX        XXXXXXXX    OOOOOOOOOOOOOOOO",
"OOOOOOOOOOOOOOOO    XXXXXXXX        XXXXXXXX    OOOOOOOOOOOOOOOO",
"OOOOOOOOOOOOOOOO    XXXXXXXX        XXXXXXXX    OOOOOOOOOOOOOOOO",
"OOOOOOOOOOOOOOOO    XXXXXXXX        XXXXXXXX    OOOOOOOOOOOOOOOO",
"OOOOOOOOOOOOOOOOOOOO        OOOOOOOO        OOOOOOOOOOOOOOOOOOOO",
"OOOOOOOOOOOOOOOOOOOO        OOOOOOOO        OOOOOOOOOOOOOOOOOOOO",
"OOOOOOOOOOOOOOOOOOOO        OOOOOOOO        OOOOOOOOOOOOOOOOOOOO",
"OOOOOOOOOOOOOOOOOOOO        OOOOOOOO        OOOOOOOOOOOOOOOOOOOO"
};
