/* XPM */
static char *result[] = {
/* columns rows colors chars-per-pixel */
"64 64 5 1 ",
"  c #72751B",
". c #7F8226",
"X c #787B21",
"o c #656C17",
"O c #311A12",
/* pixels */
"                                                                ",
"                                                                ",
"                                                                ",
"                                                                ",
"                                                                ",
"                                                                ",
"                                                                ",
"                                        .                       ",
"                                        XX                      ",
"                                    ..X oX                      ",
"                                     .XXoo ..X                  ",
"                                  X. oXX oXX.                   ",
"                                   .XXoX XXX                    ",
"                                   oXX ooXXo                    ",
"                                    oX  ooo                     ",
"                                     o XX                       ",
"                                       .o                       ",
"                              OOO      o                        ",
"                             OOOOOO   OOO                       ",
"                         OOO OOOOOOO OOOOO  OO                  ",
"                  OOO   OOOOOOOOOOOOOOOOOO OOOO                 ",
"                 OOOOO OOOOOOOOOOOOOOOOOOOOOOOOO                ",
"                 OOOOOOOOOOOOOOOOOOOOOOOOOOOOOOOO               ",
"               OOOOOOOOOOOOOOOOOOOOOOOOOOOOOOOOOO               ",
"              OOOOOOOOOOOOOOOOOOOOOOOOOOOOOOOOOOOO              ",
"             OOOOOOOOOOOOOOOOOOOOOOOOOOOOOOOOOOOOO              ",
"             OOOOOOOOOOOOOOOOOOOOOOOOOOOOOOOOOOOOO              ",
"              OOOOOOOOOOOOOOOOOOOOOOOOOOOOOOOOOOO               ",
"              OOOOOOOOOOOOOOOOOOOOOOOOOOOOOOOOOOOOO             ",
"             OOOOOOOOOOOOOOOOOOOOOOOOOOOOOOOOOOOOOOO            ",
"            OOOOOOOOOOOOOOOOOOOOOOOOOOOOOOOOOOOOOOOO            ",
"           OOOOOOOOOOOOOOOOOOOOOOOOOOOOOOOOOOOOOOOOO            ",
"           OOOOOOOOOOOOOOOOOOOOOOOOOOOOOOOOOOOOOOO              ",
"           OOOOOOOOOOOOOOOOOOOOOOOOOOOOOOOOOOOOOOOO             ",
"           OOOOOOOOOOOOOOOOOOOOOOOOOOOOOOOOOOOOOOOO             ",
"            OOOOOOOOOOOOOOOOOOOOOOOOOOOOOOOOOOOOOO              ",
"              OOOOOOOOOOOOOOOOOOOOOOOOOOOOOOOOOOOOO             ",
"              OOOOOOOOOOOOOOOOOOOOOOOOOOOOOOOOOOOOO             ",
"             OOOOOOOOOOOOOOOOOOOOOOOOOOOOOOOOOOOOOO             ",
"             OOOOOOOOOOOOOOOOOOOOOOOOOOOOOOOOOOOOO              ",
"              OOOO OOOOOOOOOOOOOOOOOOOOOOOOOOOOO         .      ",
"                   OOOOOOOOOOOOOOOOOOOOOOOOOOOOO    ..X  XX     ",
"                    OOOOOOOOOOOOOOOOOOOOOOO OOO      .XX oX  .  ",
"                     OOO OOOOOOOOOOOOOOOOOO          oXXXo XXo  ",
"           .              OOO OOOOO OOOO OO         .XoXX  XXo  ",
"      ..X  XX                  OOO   OO             oXXoX  oo   ",
"       .XX oX  .                                     oXoo       ",
"       oXXXo XXo                                                ",
"      .XoXX  XXo                                                ",
"      oXXoX  oo                                                 ",
"       oXoo                                                     ",
"                                                                ",
"                                                                ",
"                                                                ",
"                                                                ",
"                                                                ",
"                                                                ",
"                                     ..                         ",
"                                      .XX   ..                  ",
"                                      oXX  X.                   ",
"                                       oo XXX                   ",
"                                          XXo                   ",
"                                          oo                    ",
"                                                                "
};
