/* XPM */
static char *result[] = {
/* columns rows colors chars-per-pixel */
"64 64 72 1 ",
"  c #4F2713",
". c #4E2913",
"X c #532C14",
"o c #542E19",
"O c #57321C",
"+ c #59341D",
"@ c #5D381E",
"# c #5B3721",
"$ c #5E3B24",
"% c #613D25",
"& c #613E29",
"* c #624127",
"= c #64442C",
"- c #674B2F",
"; c #694A2F",
": c #674731",
"> c #654A35",
", c #6A4D31",
"< c #634C38",
"1 c #6C4E39",
"2 c #6E5134",
"3 c #66513D",
"4 c #68523F",
"5 c #705335",
"6 c #735539",
"7 c #75593B",
"8 c #785A3E",
"9 c #675341",
"0 c #695542",
"q c #6C5843",
"w c #6F5F4D",
"e c #7A5E43",
"r c #6F604E",
"t c #7D6144",
"y c #73624E",
"u c #7F6548",
"i c #746552",
"p c #796653",
"a c #7A6A56",
"s c #7C6D5C",
"d c #7E705E",
"f c #806649",
"g c #836A4D",
"h c #876E52",
"j c #886F52",
"k c #806F5E",
"l c #877053",
"z c #8A7256",
"x c #81715F",
"c c #8C765A",
"v c #8E795C",
"b c #907A5D",
"n c #827564",
"m c #857866",
"M c #867968",
"N c #897C6B",
"B c #947F63",
"V c #8E816F",
"C c #968165",
"Z c #988267",
"A c #9A8569",
"S c #8F8271",
"D c #928576",
"F c #948778",
"G c #968B7B",
"H c #988C7E",
"J c #998F81",
"K c #9C9283",
"L c #9F9588",
"P c #A0978A",
"I c #A2988C",
"U c None",
/* pixels */
"UUUUUUUUUUUUUUUUUUUUUUUUUUUUUUUUUUUUUUUUUUUUUUUUUUUUUUUUUUUUUUUU",
"UUUUUUUUUUUUUUUUUUUUUUUUUUUUUUUUUUUUUUUUUUUUUUUUUUUUUUUUUUUUUUUU",
"UUUUUUUUUUUUUUUUUUUUUUUUUUUUUUUUUUUUUUUUUUUUUUUUUUUUUUUUUUUUUUUU",
"UUUUUUUUUUUUUUUUUUUUUUUUUUUUUUUUUUUUUUUUUUUUUUUUUUUUUUUUUUUUUUUU",
"UUUUUUUUUUUUUUUUUUUUUUUUUUUUUUUUUUUUUUUUUUUUUUUUUUUUUUUUUUUUUUUU",
"UUUUUUUUUUUUUUUUUUUUUUUUUUUUUUUUUUUUUUUUUUUUUUUUUUUUUUUUUUUUUUUU",
"UUUUUUUUUUUUUUUUUUUUUUUUUUUUUUUUUUUUUUUUUUUUUUUUUUUUUUUUUUUUUUUU",
"UUUUUUUUUUUUUUUUUUUUUUUUUUUUUUUUUUUUUUUUUUUUUUUUUUUUUUUUUUUUUUUU",
"UUUUUUUUUUUUUUUUUUUUUUUUUUUUUUUUUUUUUUUUUUUUUUUUUUUUUUUUUUUUUUUU",
"UUUUUUUUUUUUUUUUUUUUUUUUUUUUUUUUUUUUUUUUUUUUUUUUUUUUUUUUUUUUUUUU",
"UUUUUUUUUUUUUUUUUUUUUUUUUUUUUUUUUUUUUUUUUUUUUUUUUUUUUUUUUUUUUUUU",
"UUUUUUUUUUUUUUUUUUUUUUUUUUUUUUUUUUUUUUUUUUUUUUUUUUUUUUUUUUUUUUUU",
"UUUUUUUUUUUUUUUUUUUUUUUUUUUUUUUUUUUUUUUUUUUUUUUUUUUUUUUUUUUUUUUU",
"UUUUUUUUUUUUUUUUUUUUUUUUUUUUUUUUUUUUUUUUUUUUUUUUUUUUUUUUUUUUUUUU",
"UUUUUUUUUUUUUUUUUUUUUUUUUUUUUUUUUUUUUUUUUUUUUUUUUUUUUUUUUUUUUUUU",
"UUUUUUUUUUUUUUUUUUUUUUUUUUUUUUUUUUUUUUUUUUUUUUUUUUUUUUUUUUUUUUUU",
"UUUUUUUUUUUUUUUUU$#++UUUUUUUUUUUUUUUUUUUUUU%##$UUUUUUUUUUUUUUUUU",
"UUUUUUUUUUUUUUUU#kpp+XXXXX+UXXXXXXXXUXXXXXX%ipdOUUUUUUUUUUUUUUUU",
"UUUUUUUUUUUUUUUU=mkk@55555g+h5255527$u22551&ssm$UUUUUUUUUUUUUUUU",
"UUUUUUUUUUUUUUUU1FNN%eggggj=cggfgggz=hfgggg&NNF:UUUUUUUUUUUUUUUU",
"UUUUUUUUUUUUUUUU1HDD&fhghgb;Bgghgggv=cggggg=DDJ&UUUUUUUUUUUUUUUU",
"UUUUUUUUUUUUUUUU1PFF&fcbbbB8bccbvvvb,ccvccc:DDL:UUUUUUUUUUUUUUUU",
"UUUUUUUUUUUUUUUU1PKK%gvvbbB8BbbbccvB,cvvvcc:HHI:UUUUUUUUUUUUUUUU",
"UUUUUUUUUUUUUUUU,IPP=gCCBZA6ZBBBCBBB,CBBBBB:PPI:UUUUUUUUUUUUUUUU",
"UUUUUUUUUUUUUUUU1IPP&gBZBZA8ABBBCCCC>ZBBBBB:PPI1UUUUUUUUUUUUUUUU",
"UUUUUUUUUUUUUUUU1IPP&gbABZZ6ABBBBBBZ,ZBBBBB:LPI:UUUUUUUUUUUUUUUU",
"UUUUUUUUUUUUUUUU=PGH@fbbbbZ6BbbbvvvA;Zvvbcb:GHP:UUUUUUUUUUUUUUUU",
"UUUUUUUUUUUUUUUU*PHG@fbbbbB6BbbbvvvZ;Cvvbcb:GGP:UUUUUUUUUUUUUUUU",
"UUUUUUUUUUUUUUUU&PND+fbbbbB2BbbbcvbB=Cbccbb&DDJ,UUUUUUUUUUUUUUUU",
"UUUUUUUUUUUUUUUU&HDBO8ghggj2jggggggc*cggggg&NNJ:UUUUUUUUUUUUUUUU",
"UUUUUUUUUUUUUUUU%FNNX8ggggj%zggggggz+jggggg&NmF&UUUUUUUUUUUUUUUU",
"UUUUUUUUUUUUUUUU%DmNX8ggggj@jtt8eeez+zgfgfg&mmD&UUUUUUUUUUUUUUUU",
"UUUUUUUUUUUUUUUU@XXXX87888fo2$@$##+uo776653@XX.#UUUUUUUUUUUUUUUU",
"UUUUUUUUUUUUUUUU@GGGOXXXXXXXXXVVND+XXXXXXXXOGGG$UUUUUUUUUUUUUUUU",
"UUUUUUUUUUUUUUUU$NldX******X$XdXXaX%X2=====XsdM$UUUUUUUUUUUUUUUU",
"UUUUUUUUUUUUUUUU$MssX-55757.2XixXyX#X722252Xasm@UUUUUUUUUUUUUUUU",
"UUUUUUUUUUUUUUUU*diiX-22227X,XrrXrX$.7,,-,,Xiid#UUUUUUUUUUUUUUUU",
"UUUUUUUUUUUUUUUU$siiX*,,2,7X,.44a4X$X72,2,,XrrsoUUUUUUUUUUUUUUUU",
"UUUUUUUUUUUUUUUU+irr.*,2,,7X,*..XX$,.7,2,2>.rriXUUUUUUUUUUUUUUUU",
"UUUUUUUUUUUUUUUUXyqq.*----7X,,****,,.7---,, qqyXUUUUUUUUUUUUUUUU",
"UUUUUUUUUUUUUUUU.yqq.%----7X,,,,,,-,X7-----.0qy UUUUUUUUUUUUUUUU",
"UUUUUUUUUUUUUUUU yqq.$----5.,,,,,,--.6----,.qqy.UUUUUUUUUUUUUUUU",
"UUUUUUUUUUUUUUUU ##OO$$*$$6X$$$$$$*$X6$$$$$OOOO UUUUUUUUUUUUUUUU",
"UUUUUUUUUUUUUUUU nnnm...XXXX.XXXXXXXXXXX...mnnn UUUUUUUUUUUUUUUU",
"UUUUUUUUUUUUUUUU.rwyi.adsnnmNNNNVVMMMmndds.iwwy UUUUUUUUUUUUUUUU",
"UUUUUUUUUUUUUUUU <<<yX33344400q033qq990993Xy<<< UUUUUUUUUUUUUUUU",
"UUUUUUUUUUUUUUUU      ..      ..............    UUUUUUUUUUUUUUUU",
"UUUUUUUUUUUUUUUUUUUUUUUUUUUUUUUUUUUUUUUUUUUUUUUUUUUUUUUUUUUUUUUU",
"UUUUUUUUUUUUUUUUUUUUUUUUUUUUUUUUUUUUUUUUUUUUUUUUUUUUUUUUUUUUUUUU",
"UUUUUUUUUUUUUUUUUUUUUUUUUUUUUUUUUUUUUUUUUUUUUUUUUUUUUUUUUUUUUUUU",
"UUUUUUUUUUUUUUUUUUUUUUUUUUUUUUUUUUUUUUUUUUUUUUUUUUUUUUUUUUUUUUUU",
"UUUUUUUUUUUUUUUUUUUUUUUUUUUUUUUUUUUUUUUUUUUUUUUUUUUUUUUUUUUUUUUU",
"UUUUUUUUUUUUUUUUUUUUUUUUUUUUUUUUUUUUUUUUUUUUUUUUUUUUUUUUUUUUUUUU",
"UUUUUUUUUUUUUUUUUUUUUUUUUUUUUUUUUUUUUUUUUUUUUUUUUUUUUUUUUUUUUUUU",
"UUUUUUUUUUUUUUUUUUUUUUUUUUUUUUUUUUUUUUUUUUUUUUUUUUUUUUUUUUUUUUUU",
"UUUUUUUUUUUUUUUUUUUUUUUUUUUUUUUUUUUUUUUUUUUUUUUUUUUUUUUUUUUUUUUU",
"UUUUUUUUUUUUUUUUUUUUUUUUUUUUUUUUUUUUUUUUUUUUUUUUUUUUUUUUUUUUUUUU",
"UUUUUUUUUUUUUUUUUUUUUUUUUUUUUUUUUUUUUUUUUUUUUUUUUUUUUUUUUUUUUUUU",
"UUUUUUUUUUUUUUUUUUUUUUUUUUUUUUUUUUUUUUUUUUUUUUUUUUUUUUUUUUUUUUUU",
"UUUUUUUUUUUUUUUUUUUUUUUUUUUUUUUUUUUUUUUUUUUUUUUUUUUUUUUUUUUUUUUU",
"UUUUUUUUUUUUUUUUUUUUUUUUUUUUUUUUUUUUUUUUUUUUUUUUUUUUUUUUUUUUUUUU",
"UUUUUUUUUUUUUUUUUUUUUUUUUUUUUUUUUUUUUUUUUUUUUUUUUUUUUUUUUUUUUUUU",
"UUUUUUUUUUUUUUUUUUUUUUUUUUUUUUUUUUUUUUUUUUUUUUUUUUUUUUUUUUUUUUUU",
"UUUUUUUUUUUUUUUUUUUUUUUUUUUUUUUUUUUUUUUUUUUUUUUUUUUUUUUUUUUUUUUU"
};
