/* XPM */
static char *result[] = {
/* columns rows colors chars-per-pixel */
"64 64 76 1 ",
"  c #4F2713",
". c #4F2913",
"X c #502713",
"o c #522A15",
"O c #552F19",
"+ c #56321B",
"@ c #59351D",
"# c #5C391F",
"$ c #5B3721",
"% c #5D3C22",
"& c #603D25",
"* c #633E28",
"= c #5F4024",
"- c #5F4531",
"; c #614126",
": c #64442A",
"> c #68442B",
", c #66492C",
"< c #694C2E",
"1 c #6B502F",
"2 c #644732",
"3 c #684731",
"4 c #6C4D32",
"5 c #644D39",
"6 c #6D4E39",
"7 c #6E5334",
"8 c #66513D",
"9 c #68533F",
"0 c #715536",
"q c #725837",
"w c #745739",
"e c #755B3B",
"r c #795F3F",
"t c #79603F",
"y c #6A5542",
"u c #6D5A44",
"i c #795F40",
"p c #715E49",
"a c #795F4C",
"s c #6F604E",
"d c #7B6242",
"f c #74624D",
"g c #766552",
"h c #796752",
"j c #776854",
"k c #796955",
"l c #7D6D5B",
"z c #7F705F",
"x c #816647",
"c c #846B4A",
"v c #886F4F",
"b c #88704F",
"n c #886F50",
"m c #826F5C",
"M c #8B7454",
"N c #81715D",
"B c #8D7758",
"V c #8F7959",
"C c #927D5E",
"Z c #837563",
"A c #857966",
"S c #897A66",
"D c #877B6A",
"F c #8A7D6C",
"G c #937F60",
"H c #8E806E",
"J c #8F8270",
"K c #928574",
"L c #958876",
"P c #958979",
"I c #998E7D",
"U c #9A8F80",
"Y c #9D9283",
"T c #A09687",
"R c #A49989",
"E c None",
/* pixels */
"EEEEEEEEEEEEEEEEEEEEEEEEEEEEEEEEEEEEEEEEEEEEEEEEEEEEEEEEEEEEEEEE",
"EEEEEEEEEEEEEEEEEEEEEEEEEEEEEEEEEEEEEEEEEEEEEEEEEEEEEEEEEEEEEEEE",
"EEEEEEEEEEEEEEEEEEEEEEEEEEEEEEEEEEEEEEEEEEEEEEEEEEEEEEEEEEEEEEEE",
"EEEEEEEEEEEEEEEEEEEEEEEEEEEEEEEEEEEEEEEEEEEEEEEEEEEEEEEEEEEEEEEE",
"EEEEEEEEEEEEEEEEEEEEEEEEEEEEEEEEEEEEEEEEEEEEEEEEEEEEEEEEEEEEEEEE",
"EEEEEEEEEEEEEEEEEEEEEEEEEEEEEEEEEEEEEEEEEEEEEEEEEEEEEEEEEEEEEEEE",
"EEEEEEEEEEEEEEEEEEEEEEEEEEEEEEEEEEEEEEEEEEEEEEEEEEEEEEEEEEEEEEEE",
"EEEEEEEEEEEEEEEEE>>>>EEEEEEEEEEEEEEEEEEEEEE:>>>EEEEEEEEEEEEEEEEE",
"EEEEEEEEEEEEEEEE4YLL>>**>***>*>*>*****>*>>:>LKU4EEEEEEEEEEEEEEEE",
"EEEEEEEEEEEEEEEE7TLL*xxvMMVCBVBVCMMMMvvvxxx*LLT6EEEEEEEEEEEEEEEE",
"EEEEEEEEEEEEEEEE7RRR*xvMVCCCC#&&&&#CVCVBvcx>RRR4EEEEEEEEEEEEEEEE",
"EEEEEEEEEEEEEEEEONhhO4007wewwoJfSGOwwww0w4<*cfmOEEEEEEEEEEEEEEEE",
"EEEEEEEEEEEEEEEEOmffoooOoooOooLL6FooooooOooofxmOEEEEEEEEEEEEEEEE",
"EEEEEEEEEEEEEEEEOkafo&=#&#&&%OIIYTo&&&&####ofakoEEEEEEEEEEEEEEEE",
"EEEEEEEEEEEEEEEEokaio;#&###&%oghxhX&#&#####oapkoEEEEEEEEEEEEEEEE",
"EEEEEEEEEEEEEEEEXhpro;;;>;>>::XXXo****&%&#&oppkXEEEEEEEEEEEEEEEE",
"EEEEEEEEEEEEEEEEXgupX&;;;:;;::=;;;;=;;==%%%XpugXEEEEEEEEEEEEEEEE",
"EEEEEEEEEEEEEEEEXfuuX&&;;=;;;===;===&;%&%%#XuufXEEEEEEEEEEEEEEEE",
"EEEEEEEEEEEEEEEE fyuX;;::,,<<,,,2,,,:,3,:;;.uyf EEEEEEEEEEEEEEEE",
"EEEEEEEEEEEEEEEE fyyX;:::,,:<:<,3,,,,<,,:;;Xyyp EEEEEEEEEEEEEEEE",
"EEEEEEEEEEEEEEEE f99.=:::<<<<<<<4<,<,,,,<;;.y9f EEEEEEEEEEEEEEEE",
"EEEEEEEEEEEEEEEE p98.;<<<<<<<<<1<44,<<4<<;:.89p EEEEEEEEEEEEEEEE",
"EEEEEEEEEEEEEEEE u88.<7qq0qqqqqqqqq0qq0074<.88p EEEEEEEEEEEEEEEE",
"EEEEEEEEEEEEEEEE u85 <qqeweewweeweeqwqw0074.58yXEEEEEEEEEEEEEEEE",
"EEEEEEEEEEEEEEEE y55 <qqeeeeeeteeeeeeeeq00<X85yXEEEEEEEEEEEEEEEE",
"EEEEEEEEEEEEEEEE 5-2 <qeeeeeeeeeereeeqqr001X-,5 EEEEEEEEEEEEEEEE",
"EEEEEEEEEEEEEEEE%*%%+7eeediitttttttttttttrqXX   EEEEEEEEEEEEEEEE",
"EEEEEEEEEEEEEEEE$KFFO$%%%===;:;,::::>;::;;&XKJH EEEEEEEEEEEEEEEE",
"EEEEEEEEEEEEEEEEOuyyXX       X.ooooooXoooXoXuyy%EEEEEEEEEEEEEEEE",
"EEEEEEEEEEEEEEEEO$$$@00qereerdttttttrrrww00X*&&%EEEEEEEEEEEEEEEE",
"EEEEEEEEEEEEEEEEOZkkX,:<,,:,,,,,,,,,,,<:<::OhhZOEEEEEEEEEEEEEEEE",
"EEEEEEEEEEEEEEEEODkkO:::::,:::::,,::,<:::<,XkkS+EEEEEEEEEEEEEEEE",
"EEEEEEEEEEEEEEEE@HNNO=--=-====-=::=,:,=,-::ozNF@EEEEEEEEEEEEEEEE",
"EEEEEEEEEEEEEEEE#KZZ+=%======%=$%#=%%%%%=%%OSNH#EEEEEEEEEEEEEEEE",
"EEEEEEEEEEEEEEEE&LSS+=%%$=%%=%$=#%%%#%%%%%%+SNK=EEEEEEEEEEEEEEEE",
"EEEEEEEEEEEEEEEE;LFF#%=%=$=#=#=#%%%#%%%%%%%@HHL-EEEEEEEEEEEEEEEE",
"EEEEEEEEEEEEEEEE>KJF$=====%%=%#=%%#%####$%%$JFI*EEEEEEEEEEEEEEEE",
"EEEEEEEEEEEEEEEE3IJK%$@@+++++++++++++++++++$JFI*EEEEEEEEEEEEEEEE",
"EEEEEEEEEEEEEEEE>IKJ%++%%++++@++++.+++++OOO%JJI3EEEEEEEEEEEEEEEE",
"EEEEEEEEEEEEEEEE2IKK%%++++++@@++++++++++O$O%KKI>EEEEEEEEEEEEEEEE",
"EEEEEEEEEEEEEEEE3UPK*@@@@+@@+++++++++++o++o=KKU3EEEEEEEEEEEEEEEE",
"EEEEEEEEEEEEEEEE3YPP*XoX...#........#.....o=PKY3EEEEEEEEEEEEEEEE",
"EEEEEEEEEEEEEEEE3TYU&0vccccocdcccchdocbdccc;YYY2EEEEEEEEEEEEEEEE",
"EEEEEEEEEEEEEEEEoFNzO7rrttt.tttqtttdottqeet+lZF=EEEEEEEEEEEEEEEE",
"EEEEEEEEEEEEEEEEXDzlO:treet.deeeqttt.tqteeeOllD%EEEEEEEEEEEEEEEE",
"EEEEEEEEEEEEEEEEoZjjO>retet+teeeqqtt+tqteetOjhz#EEEEEEEEEEEEEEEE",
"EEEEEEEEEEEEEEEEozfg+;00q7t.e777777totqqq7qoggz+EEEEEEEEEEEEEEEE",
"EEEEEEEEEEEEEEEEojffo,7777eOe777777tot77707osfjOEEEEEEEEEEEEEEEE",
"EEEEEEEEEEEEEEEEogsf.:7777e.q777777t.t77777.uug EEEEEEEEEEEEEEEE",
"EEEEEEEEEEEEEEEEXguu.=1<<<e.q<<<<<<qoq11117.uug EEEEEEEEEEEEEEEE",
"EEEEEEEEEEEEEEEE.huu =77<,e.7<<<<<<7Oq<111<.yug EEEEEEEEEEEEEEEE",
"EEEEEEEEEEEEEEEE.$$$@===;-eO<=-,-,-1.1,-::-+@@$.EEEEEEEEEEEEEEEE",
"EEEEEEEEEEEEEEEE.ZZZZ....oO.oo......O..o...ZzAA EEEEEEEEEEEEEEEE",
"EEEEEEEEEEEEEEEE sssj.llzNzSHHHDHHAHDzAzzl.jsps EEEEEEEEEEEEEEEE",
"EEEEEEEEEEEEEEEE 555f 8898998yyyyu99yyyyyy.f555 EEEEEEEEEEEEEEEE",
"EEEEEEEEEEEEEEEE ..   ........  ....     ...   .EEEEEEEEEEEEEEEE",
"EEEEEEEEEEEEEEEEEEEEEEEEEEEEEEEEEEEEEEEEEEEEEEEEEEEEEEEEEEEEEEEE",
"EEEEEEEEEEEEEEEEEEEEEEEEEEEEEEEEEEEEEEEEEEEEEEEEEEEEEEEEEEEEEEEE",
"EEEEEEEEEEEEEEEEEEEEEEEEEEEEEEEEEEEEEEEEEEEEEEEEEEEEEEEEEEEEEEEE",
"EEEEEEEEEEEEEEEEEEEEEEEEEEEEEEEEEEEEEEEEEEEEEEEEEEEEEEEEEEEEEEEE",
"EEEEEEEEEEEEEEEEEEEEEEEEEEEEEEEEEEEEEEEEEEEEEEEEEEEEEEEEEEEEEEEE",
"EEEEEEEEEEEEEEEEEEEEEEEEEEEEEEEEEEEEEEEEEEEEEEEEEEEEEEEEEEEEEEEE",
"EEEEEEEEEEEEEEEEEEEEEEEEEEEEEEEEEEEEEEEEEEEEEEEEEEEEEEEEEEEEEEEE",
"EEEEEEEEEEEEEEEEEEEEEEEEEEEEEEEEEEEEEEEEEEEEEEEEEEEEEEEEEEEEEEEE"
};
