/* XPM */
static char *result[] = {
/* columns rows colors chars-per-pixel */
"64 64 40 1 ",
"  c #4D2711",
". c #4E2812",
"X c #512B14",
"o c #593722",
"O c #5B3A25",
"+ c #5D3E2A",
"@ c #5F412E",
"# c #52453B",
"$ c #554A3E",
"% c #60412E",
"& c #564B40",
"* c #594F44",
"= c #5C5346",
"- c #5E5549",
"; c #655E55",
": c #676056",
"> c #686157",
", c #676158",
"< c #6B655C",
"1 c #6E685F",
"2 c #70685F",
"3 c #6F6A60",
"4 c #726E65",
"5 c #747067",
"6 c #76736A",
"7 c #78756D",
"8 c #797770",
"9 c #7C7A72",
"0 c #87857A",
"q c #89867B",
"w c #8B897D",
"e c #52CEE7",
"r c #8C8A81",
"t c #918F85",
"y c #929087",
"u c #96938B",
"i c #99978F",
"p c #9C9A92",
"a c #A09C96",
"s c None",
/* pixels */
"ssssssssssssssssssssssssssssssssssssssssssssssssssssssssssssssss",
"ssssssssssssssssssssssssssssssssssssssssssssssssssssssssssssssss",
"ssssssssssssssssssssssssssssssssssssssssssssssssssssssssssssssss",
"ssssssssssssssssssssssssssssssssssssssssssssssssssssssssssssssss",
"ssssssssssssssssssssssssssssssssssssssssssssssssssssssssssssssss",
"ssssssssssssssssssssssssssssssssssssssssssssssssssssssssssssssss",
"sssssssssssssssssssss+%%%%%%%%@+@@@+++++OOosssssssssssssssssssss",
"ssssssssssssssssssss+wrwq0q0qqqqrr0000qqq00ossssssssssssssssssss",
"sssssssssssssssssss%ywwq00000000r0q000q0000yOsssssssssssssssssss",
"sssssssssssssssssssOyw00qqq0qqq0qq0000000q0tOsssssssssssssssssss",
"sssssssssssssssssssOu000q0qqq0qqqq00q000000yOsssssssssssssssssss",
"sssssssssssssssssssOu0qqqq0qqqqqqqqq0wwt000u+sssssssssssssssssss",
"sssssssssssssssssss+y00qqwqqqqqqqq0qqtytq00u%sssssssssssssssssss",
"sssssssssssssssssss+u00qqqq0qqwqqq0wwttyqqqu%sssssssssssssssssss",
"sssssssssssssssssssop0qqqqqq0qqqqqq00w0qwqqi%sssssssssssssssssss",
"sssssssssssssssssssopwwqqqqqwq0qqwqwqq0wqqqi+sssssssssssssssssss",
"sssssssssssssssssss+iwwwqwqqwwwqwwwwwwwwqqqi%sssssssssssssssssss",
"sssssssssssssssssss+iwwwqqqqwwwwwwwwwrwwwqqa%sssssssssssssssssss",
"sssssssssssssssssss%iwwwyuqwwwqwwwwwwrttttyp%sssssssssssssssssss",
"sssssssssssssssssss%iwwwuuwwwwwwwqwwwwwttaa4Osssssssssssssssssss",
"sssssssssssssssssssX2iwwqwwwrrrrwwwwtttta445Xsssssssssssssssssss",
"sssssssssssssssssssX22iaaaiiuuuuuuiiiiaaa45;Xsssssssssssssssssss",
"sssssssssssssssssssX20q7676666663<322<222w>>Xsssssssssssssssssss",
"sssssssssssssssssssXw1276667541<<3<222<22w>>Xsssssssssssssssssss",
"sssssssssssssssssssXr<<<3355622<3<3<333<330;Xsssssssssssssssssss",
"sssssssssssssssssssXr1<33<3322<2<3333<33<330Xsssssssssssssssssss",
"sssssssssssssssssssX931<<3<322eee33<<2323330Xsssssssssssssssssss",
"sssssssssssssssssssX9<<13<3<<2e55ee3333<3350Xsssssssssssssssssss",
"sssssssssssssssssssX94<<;3<3<3e33453332<<349Xsssssssssssssssssss",
"sssssssssssssssssssX9<<<<33<2<eee12<2<221148Xsssssssssssssssssss",
"sssssssssssssssssssX9<<<<<3<<2e44ee2<2221148Xsssssssssssssssssss",
"sssssssssssssssssssX71<<<<;3<<4<1443<2<<5448Xsssssssssssssssssss",
"sssssssssssssssssssX8<<<,<<<<,<<<<1<21,14448.sssssssssssssssssss",
"sssssssssssssssssss.8,,,<<<,<<<ee<<<,,,,4448Xsssssssssssssssssss",
"sssssssssssssssssss.8;,,<,<<<,e33,e,<,2,4438Xsssssssssssssssssss",
"sssssssssssssssssss.8;;,:<,<,<e3eee,,,,,,448.sssssssssssssssssss",
"sssssssssssssssssss.8;,,:;,,,,e33<e,,,,,,448Xsssssssssssssssssss",
"sssssssssssssssssssX6;;;::,,,,eee;<;,,,,,348Xsssssssssssssssssss",
"sssssssssssssssssss.6;;:::<,,;<<3,;;;,,,,,48.sssssssssssssssssss",
"sssssssssssssssssss.5;;;::&&;;:;;;;;,;,,,;;8Xsssssssssssssssssss",
"sssssssssssssssssss.6:;:>$651<;;eee;;;,,,,,7.sssssssssssssssssss",
"sssssssssssssssssss.5:;;$41>1>,e<<<;;;;,;,,7Xsssssssssssssssssss",
"sssssssssssssssssss.3;;;=5<<><e;,ee,;;;,,;;7Xsssssssssssssssssss",
"sssssssssssssssssss.5;;*$5><:;<e;<<;;;,;;;;7Xsssssssssssssssssss",
"ssssssssssssssssssss.##&5<<<;;:>eee;;;;;,;;8 sssssssssssssssssss",
"ssssssssssssssssssss.#55<<><;;>;<<<;;;-;,,,7.sssssssssssssssssss",
"ssssssssssssssssssss.#5;><>;-:>;;;;;;;;;;,,7.sssssssssssssssssss",
"ssssssssssssssssssss 6;;:>>;::ee,ee;;;;;,,,8.sssssssssssssssssss",
"sssssssssssssssssss.6:;;;;;;;>>e>e<;-;:>,,,6.sssssssssssssssssss",
"sssssssssssssssssss.3:::;;;;>>:1:<:::;;>,,,7.sssssssssssssssssss",
"sssssssssssssssssss.5:::>;;>>>>e>e:>::>:<:,6.sssssssssssssssssss",
"sssssssssssssssssss.5:::>>;>>>ee>ee>::>>::,7.sssssssssssssssssss",
"sssssssssssssssssss.41>>;>>>:>43>24>>>>::::6.sssssssssssssssssss",
"sssssssssssssssssss.51>>>>>>>>>>>>>>>>$$::>6.sssssssssssssssssss",
"sssssssssssssssssss.533>>>>>>>>><>>>>$==>:<6.sssssssssssssssssss",
"sssssssssssssssssss.53332111>><>><><$===**:6.sssssssssssssssssss",
"sssssssssssssssssss.711111321><><>>$====---6.sssssssssssssssssss",
"ssssssssssssssssssss.........  .  ...  ..X..ssssssssssssssssssss",
"ssssssssssssssssssssssssssssssssssssssssssssssssssssssssssssssss",
"ssssssssssssssssssssssssssssssssssssssssssssssssssssssssssssssss",
"ssssssssssssssssssssssssssssssssssssssssssssssssssssssssssssssss",
"ssssssssssssssssssssssssssssssssssssssssssssssssssssssssssssssss",
"ssssssssssssssssssssssssssssssssssssssssssssssssssssssssssssssss",
"ssssssssssssssssssssssssssssssssssssssssssssssssssssssssssssssss"
};
