/* XPM */
static char *result[] = {
/* columns rows colors chars-per-pixel */
"64 64 39 1 ",
"  c #4D2711",
". c #4E2812",
"X c #512B14",
"o c #593722",
"O c #5B3A25",
"+ c #5D3E2A",
"@ c #5F412E",
"# c #52453A",
"$ c #55493D",
"% c #60412E",
"& c #574B40",
"* c #594E43",
"= c #5C5246",
"- c #5F5549",
"; c #655E55",
": c #676056",
"> c #686157",
", c #676158",
"< c #6B655C",
"1 c #6E685F",
"2 c #70685F",
"3 c #6F6A60",
"4 c #726E65",
"5 c #747067",
"6 c #76736A",
"7 c #78756D",
"8 c #797770",
"9 c #7C7A72",
"0 c #87857A",
"q c #89867B",
"w c #8B897D",
"e c #8C8A81",
"r c #918F85",
"t c #929087",
"y c #96938B",
"u c #99978F",
"i c #9C9A92",
"p c #A09C96",
"a c None",
/* pixels */
"aaaaaaaaaaaaaaaaaaaaaaaaaaaaaaaaaaaaaaaaaaaaaaaaaaaaaaaaaaaaaaaa",
"aaaaaaaaaaaaaaaaaaaaaaaaaaaaaaaaaaaaaaaaaaaaaaaaaaaaaaaaaaaaaaaa",
"aaaaaaaaaaaaaaaaaaaaaaaaaaaaaaaaaaaaaaaaaaaaaaaaaaaaaaaaaaaaaaaa",
"aaaaaaaaaaaaaaaaaaaaaaaaaaaaaaaaaaaaaaaaaaaaaaaaaaaaaaaaaaaaaaaa",
"aaaaaaaaaaaaaaaaaaaaaaaaaaaaaaaaaaaaaaaaaaaaaaaaaaaaaaaaaaaaaaaa",
"aaaaaaaaaaaaaaaaaaaaaaaaaaaaaaaaaaaaaaaaaaaaaaaaaaaaaaaaaaaaaaaa",
"aaaaaaaaaaaaaaaaaaaaa++%%%%%%%%%@@@++++++Ooaaaaaaaaaaaaaaaaaaaaa",
"aaaaaaaaaaaaaaaaaaaa+wewwqqq00q0ee000000000oaaaaaaaaaaaaaaaaaaaa",
"aaaaaaaaaaaaaaaaaaa+tww0000000qqw000000q000rOaaaaaaaaaaaaaaaaaaa",
"aaaaaaaaaaaaaaaaaaa+tw0qqq0qqqqqw0q0qq0000qrOaaaaaaaaaaaaaaaaaaa",
"aaaaaaaaaaaaaaaaaaaOtqq0q00qq0qq0q00qqq0000rOaaaaaaaaaaaaaaaaaaa",
"aaaaaaaaaaaaaaaaaaaOyqqqqqqqqqqqqq0wq0tw00qt+aaaaaaaaaaaaaaaaaaa",
"aaaaaaaaaaaaaaaaaaa+y00qqqqqqqqqqq0w0rrr00wy+aaaaaaaaaaaaaaaaaaa",
"aaaaaaaaaaaaaaaaaaa+y0qqqqqqqqqqwqqq0ttt0w0y%aaaaaaaaaaaaaaaaaaa",
"aaaaaaaaaaaaaaaaaaaou0qqqqqqqqqqqqw0qqwqw0wu%aaaaaaaaaaaaaaaaaaa",
"aaaaaaaaaaaaaaaaaaaouwqqqqqqqqqqqq0wqq0w0w0u+aaaaaaaaaaaaaaaaaaa",
"aaaaaaaaaaaaaaaaaaa+uwwwqqqqwwwqqwwwwwwwwqwi%aaaaaaaaaaaaaaaaaaa",
"aaaaaaaaaaaaaaaaaaa+uwwwqqqqwwwwwwwewwrwqqqu+aaaaaaaaaaaaaaaaaaa",
"aaaaaaaaaaaaaaaaaaa%uwwwyyqwwwwwwwwwwwwrrrrp%aaaaaaaaaaaaaaaaaaa",
"aaaaaaaaaaaaaaaaaaa%uwwwyywwwwqwwwwwwwwrrpp5Oaaaaaaaaaaaaaaaaaaa",
"aaaaaaaaaaaaaaaaaaaX2uwwqweweeeewwwwrrrrp444Xaaaaaaaaaaaaaaaaaaa",
"aaaaaaaaaaaaaaaaaaaX22uppiuuyyyyyyuuuuppp44;Xaaaaaaaaaaaaaaaaaaa",
"aaaaaaaaaaaaaaaaaaaX20q766576666<33222222w>>Xaaaaaaaaaaaaaaaaaaa",
"aaaaaaaaaaaaaaaaaaaXw1277757642<312<2<222w>>Xaaaaaaaaaaaaaaaaaaa",
"aaaaaaaaaaaaaaaaaaaXe<<<33557<21<3<3333<<3e;Xaaaaaaaaaaaaaaaaaaa",
"aaaaaaaaaaaaaaaaaaaXe1<33<3323<23<33<3333330Xaaaaaaaaaaaaaaaaaaa",
"aaaaaaaaaaaaaaaaaaaX931<<3<3<<***33333<33359Xaaaaaaaaaaaaaaaaaaa",
"aaaaaaaaaaaaaaaaaaaX9<<13<3<22&44--<2<333350Xaaaaaaaaaaaaaaaaaaa",
"aaaaaaaaaaaaaaaaaaaX94<<;3<3<3&2266<<<323349Xaaaaaaaaaaaaaaaaaaa",
"aaaaaaaaaaaaaaaaaaaX9<<<<33<2<&**3<2323<<148Xaaaaaaaaaaaaaaaaaaa",
"aaaaaaaaaaaaaaaaaaaX9<<<<<3<<2&44--322<21148Xaaaaaaaaaaaaaaaaaaa",
"aaaaaaaaaaaaaaaaaaaX71<<<<;3<<42<45<<<2<4448Xaaaaaaaaaaaaaaaaaaa",
"aaaaaaaaaaaaaaaaaaaX8<<,<<,,<<><<<<<<<<<4448.aaaaaaaaaaaaaaaaaaa",
"aaaaaaaaaaaaaaaaaaaX8,,,,<<:><<=*<<<<<<,4448Xaaaaaaaaaaaaaaaaaaa",
"aaaaaaaaaaaaaaaaaaaX8;,,<,<<<<$34,&,<,,<4438Xaaaaaaaaaaaaaaaaaaa",
"aaaaaaaaaaaaaaaaaaa.6,;,<<:<<<#3&&&;,,,,,448.aaaaaaaaaaaaaaaaaaa",
"aaaaaaaaaaaaaaaaaaa.6,,,;;,,:<$133#,,,,,,448Xaaaaaaaaaaaaaaaaaaa",
"aaaaaaaaaaaaaaaaaaaX6;,;;:,,::$$&;2;;,,,;348Xaaaaaaaaaaaaaaaaaaa",
"aaaaaaaaaaaaaaaaaaa.6,;;::,<:;<<1;;;;,,,3;48.aaaaaaaaaaaaaaaaaaa",
"aaaaaaaaaaaaaaaaaaa.5;;:;:*$;;;;;;;;;;,,;;;8Xaaaaaaaaaaaaaaaaaaa",
"aaaaaaaaaaaaaaaaaaa.5:::>$65<<;;###;;;;;,,,8.aaaaaaaaaaaaaaaaaaa",
"aaaaaaaaaaaaaaaaaaa.5:;;$41<<<>#<<<;;;;,,;;8Xaaaaaaaaaaaaaaaaaaa",
"aaaaaaaaaaaaaaaaaaa.3;;;$8<<<<#;;&#,;;;;,;;8Xaaaaaaaaaaaaaaaaaaa",
"aaaaaaaaaaaaaaaaaaa.5;:&$5><;;<#;<<;;;;;;;;8Xaaaaaaaaaaaaaaaaaaa",
"aaaaaaaaaaaaaaaaaaaa.##&5><<;;>>###;;;;;;;;8 aaaaaaaaaaaaaaaaaaa",
"aaaaaaaaaaaaaaaaaaaa.#55<1<<;;:;<<<;;;;;,,,8.aaaaaaaaaaaaaaaaaaa",
"aaaaaaaaaaaaaaaaaaaa.#5;>>>;;;;;;;;;;;;;;,,6.aaaaaaaaaaaaaaaaaaa",
"aaaaaaaaaaaaaaaaaaaa.6;;:>>;;;##;##;;;;;,,,8.aaaaaaaaaaaaaaaaaaa",
"aaaaaaaaaaaaaaaaaaa.6:;;;;;;;;2#:#<:-;:>,,,6.aaaaaaaaaaaaaaaaaaa",
"aaaaaaaaaaaaaaaaaaa.3:::;;;;:;:2:1:::;;>,,,6.aaaaaaaaaaaaaaaaaaa",
"aaaaaaaaaaaaaaaaaaa.5:::::;:;;>$:$>>::>><:,7.aaaaaaaaaaaaaaaaaaa",
"aaaaaaaaaaaaaaaaaaa.5::::>;:>>#$:##>>:>>::,7.aaaaaaaaaaaaaaaaaaa",
"aaaaaaaaaaaaaaaaaaa.51::;>>>>>33:15:>>>>:::6.aaaaaaaaaaaaaaaaaaa",
"aaaaaaaaaaaaaaaaaaa.53::>>>>>>>>>>>>>>$$::>6.aaaaaaaaaaaaaaaaaaa",
"aaaaaaaaaaaaaaaaaaa.533>>>>>>>>>:<>>>$==>>>6.aaaaaaaaaaaaaaaaaaa",
"aaaaaaaaaaaaaaaaaaa.53332211>>1>>:<<$===*=:6Xaaaaaaaaaaaaaaaaaaa",
"aaaaaaaaaaaaaaaaaaa.711111321><>><<$====---6.aaaaaaaaaaaaaaaaaaa",
"aaaaaaaaaaaaaaaaaaaa............  ..  ...X..aaaaaaaaaaaaaaaaaaaa",
"aaaaaaaaaaaaaaaaaaaaaaaaaaaaaaaaaaaaaaaaaaaaaaaaaaaaaaaaaaaaaaaa",
"aaaaaaaaaaaaaaaaaaaaaaaaaaaaaaaaaaaaaaaaaaaaaaaaaaaaaaaaaaaaaaaa",
"aaaaaaaaaaaaaaaaaaaaaaaaaaaaaaaaaaaaaaaaaaaaaaaaaaaaaaaaaaaaaaaa",
"aaaaaaaaaaaaaaaaaaaaaaaaaaaaaaaaaaaaaaaaaaaaaaaaaaaaaaaaaaaaaaaa",
"aaaaaaaaaaaaaaaaaaaaaaaaaaaaaaaaaaaaaaaaaaaaaaaaaaaaaaaaaaaaaaaa",
"aaaaaaaaaaaaaaaaaaaaaaaaaaaaaaaaaaaaaaaaaaaaaaaaaaaaaaaaaaaaaaaa"
};
