/* XPM */
static char *result[] = {
/* columns rows colors chars-per-pixel */
"64 64 44 1 ",
"  c #4D2711",
". c #4E2812",
"X c #512B14",
"o c #593722",
"O c #5B3A25",
"+ c #5D3E2A",
"@ c #656C17",
"# c #686F16",
"$ c #72751B",
"% c #5F412E",
"& c #52453B",
"* c #554A3E",
"= c #60412E",
"- c #787B21",
"; c #564B40",
": c #594F44",
"> c #5C5346",
", c #5E5549",
"< c #655E55",
"1 c #676056",
"2 c #686157",
"3 c #676158",
"4 c #6B655C",
"5 c #6E685F",
"6 c #70685F",
"7 c #6F6A60",
"8 c #726E65",
"9 c #747067",
"0 c #76736A",
"q c #78756D",
"w c #797770",
"e c #7C7A72",
"r c #7F8225",
"t c #87857A",
"y c #89867B",
"u c #8B897D",
"i c #52CEE7",
"p c #8C8A81",
"a c #918F85",
"s c #929087",
"d c #96938B",
"f c #99978F",
"g c #9C9A92",
"h c #A09C96",
/* pixels */
"$$$$$$$$$$$$$$$$$$$$$$$$$$$$$$$$$$$$$$$$$$$$$$$$$$$$$$$$$$$$$$$$",
"$$$$$$$$$$$$$$$$$$$$$$$$$$$$$$$$$$$$$$$$$$$$$$$$$$$$$$$$$$$$$$$$",
"$$$$$$$$$$$$$$$$$$$$$$$$$$$$$$$$$$$$$$$$$$$$$$$$$$$$$$$$$$$$$$$$",
"$$$$$$$$$$$$$$$$$$$$$$$$$$$$$$$$$$$$$$$$$$$$$$$$$$$$$$$$$$$$$$$$",
"$$$$$$$$$$$$$$$$$$$$$$$$$$$$$$$$$$$$$$$$$$$$$$$$$$$$$$$$$$$$$$$$",
"$$$$$$$$$$$$$$$$$$$$$$$$$$$$$$$$$$$$$$$$$$$$$$$$$$$$$$$$$$$$$$$$",
"$$$$$$$$$$$$$$$$$$$$$O++===========+++++OOo$$$$$$$$$$$$$$$$$$$$$",
"$$$$$$$$$$$$$$$$$$$$=uuuytyyttttpptttttttyyo$$$$$$$$$$$$$$$$$$$$",
"$$$$$$$$$$$$$$$$$$$+suuyttttttttptttttyttttaO$$$$$$$$$$$$$$$$$$$",
"$$$$$$$$$$$$$$$$$$$OsutyttyyyyyyttyttttttytaO$$$$$$$$$$$$$$$$$$$",
"$$$$$$$$$$$$$$$$$$$Odtytyyyytyyyyyytttyytttso$$$$$$$$$$$$$$$$$$$",
"$$$$$$$$$$$$$$$$$$$OdyyytytyyyyyttyyyyaayttdO$$$$$$$$$$$$$$$$$$$",
"$$$$$$$$$$$$$$$$$$$Odtttyyyyyyyyyyyyyaaaytyd=$$$$$$$$$$$$$$$$$$$",
"$$$$$$$$$$$$$$$$$$$Odttyyyyyyyyuypyyysaayytd=$$$$$$$$$$$$$$$$$$$",
"$$$$$$$$$$$$$$$$$$$Oftyyyyyyyyyyyyyyyyuyyyyf=$$$$$$$$$$$$$$$$$$$",
"$$$$$$$$$$$$$$$$$$$ofuuyyuyyyyyyyyyyyyyyyyyf=$$$$$$$$$$$$$$$$$$$",
"$$$$$$$$$$$$$$$$$$$+fuuuyyuyyuuyyuuuuupuyytg=$$$$$$$$$$$$$$$$$$$",
"$$$$$$$$$$$$$$$$$$$+fuuuyuyyuuuuuuuuupupyyth+$$$$$$$$$$$$$$$$$$$",
"$$$$$$$$$$$$$$$$$$$=fuuudsyuuuuuuuuuupyaaash=$$$$$$$$$$$$$$$$$$$",
"$$$$$$$$$$$$$$$$$$$=fuuusduuuuuuuuuuuupaahh8O$$$$$$$$$$$$$$$$$$$",
"$$$$$$$$$$$$$$$$$$$X6fuuyuuuppppuuuuaaaah888X$$$$$$$$$$$$$$$$$$$",
"$$$$$$$$$$$$$$$$$$$X66fhhggfddddfdffffhhh882X$$$$$$$$$$$$$$$$$$$",
"$$$$$$$$$$$$$$$$$$$X6tyqq0000900476664666u22X$$$$$$$$$$$$$$$$$$$",
"$$$$$$$$$$$$$$$$$$$Xu56q0q000956746466666u22X$$$$$$$$$$$$$$$$$$$",
"$$$$$$$$$$$$$$$$$$$Xp444779004644747676447p<X$$$$$$$$$$$$$$$$$$$",
"$$$$$$$$$$$$$$$$$$$Xp5477474666464674777776tX$$$$$$$$$$$$$$$$$$$",
"$$$$$$$$$$$$$$$$$$$Xe744777466iii7677766740eX$$$$$$$$$$$$$$$$$$$",
"$$$$$$$$$$$$$$$$$$$Xe45577<746i09ii46466740tX$$$$$$$$$$$$$$$$$$$",
"$$$$$$$$$$$$$$$$$$$Xe645<77474i468054476748eX$$$$$$$$$$$$$$$$$$$",
"$$$$$$$$$$$$$$$$$$$Xe544474474iii5457655478eX$$$$$$$$$$$$$$$$$$$",
"$$$$$$$$$$$$$$$$$$$Xe444444744i88ii45555648wX$$$$$$$$$$$$$$$$$$$",
"$$$$$$$$$$$$$$$$$$$Xw4444444440458045444898qX$$$$$$$$$$$$$$$$$$$",
"$$$$$$$$$$$$$$$$#rr.w3444444444444544544888w.$$$$$$$$$$$$$$$$$$$",
"$$$$$$$$$$$$$$$$###.w3344343444ii4434334888w.$$$$$$$$$$$$$$$$$$$",
"$$$$$$$$$$$$$$$$r## w<3<144444i783i33443888w.$$$$$$$$$$$$$$$$$$$",
"$$$$$$$$$$$$$$$$r#r.w33<141441i7iii33333387q.$$$$$$$$$$$$$$$$$$$",
"$$$$$$$$$$$$$$$$##$.w<<3<13422i777i33333388w.$$$$$$$$$$$$$$$$$$$",
"$$$$$$$$$$$$$$$$#r$.0<<3<<3311iii<4<3333378qX$$$$$$$$$$$$$$$$$$$",
"$$$$$$$$$$$$$$$$$$$.w<<<<<341<5453<<<333338w.$$$$$$$$$$$$$$$$$$$",
"$$$$$$$$$$$$$$$$$$$.9<<3<1**<<<<<<<<<<33333w.$$$$$$$$$$$$$$$$$$$",
"$$$$$$$$$$$$$$$$$$$.91<<2*9944<<iii3<<3<333wX$$$$$$$$$$$$$$$$$$$",
"$$$$$$$$$$$$$$$$$$$.9<1<*544442i444<<<<33<3q.$$$$$$$$$$$$$$$$$$$",
"$$$$$$$$$$$$$$$$$$$.81<<>94242i<3ii3<<<<<3<q.$$$$$$$$$$$$$$$$$$$",
"$$$$$$$$$$$$$$$$$$$.811*>944<<5i343<<<<<33<q.$$$$$$$$$$$$$$$$$$$",
"$$$$$$$$$$$$$$$$$$$$ &&*9444<<22iii3<<<<<<<q.@$$$$$$$$$$$$$$$$$$",
"$$$$$$$$$$$$$$$$$$$$ &992444<<<<433<<<<<333q.$$$$$$$$$$$$$$$$$$$",
"$$$$$$$$$$$$$$$$$$$$.&9<2462<<2233<<<<<<<33q.$$$$$$$$$$$$$$$$$$$",
"$$$$$$$$$$$$$$$$$$$$.0<<244*<<ii3ii<,3<<333q.$$$$$$$$$$$$$$$$$$$",
"$$$$$$$$$$$$$$$$$$$ 9<<<<<<<229i1i4<<<<23330.$$$$$$$$$$$$$$$$$$$",
"$$$$$$$$$$$$$$$$$$$ 7<2<222<*2261511<<<23330.$$$$$$$$$$$$$$$$$$$",
"$$$$$$$$$$$$$$$$$$$ 9<<<2<<<222i1i21<<223330.$$$$$$$$$$$$$$$$$$$",
"$$$$$$$$$$$$$$$$$$$ 9<22222222ii2ii11122333q $$$$$$$$$$$$$$$$$$$",
"$$#$$$$$$$$$$$$$$$$ 95<2<2222297277222213110 $$$$$$$$$$$$$$$$$$$",
"$$rr$$$$--$$$$$$$#$ 9522<2222222222211**<310 $$$$$$$$$$$$$$$$$$$",
"$$$rr$$--$$$$$$$#rr.95522222242242421*>,3330.$$$$$$$$$$$$$$$$$$$",
"$$$@r$$--$$$$$$$#r#.9755664422242242*>>,::10.$$$$$$$$$$$$$$$$$$$",
"$$$@--$@@$$$$$$$$$$ 975577775422422**,*,,,,q.$$$$$$$$$$$$$$$$$$$",
"$$$$@@$$$$$$$$$$$$$$                X XX....$$$$$$$$$$$$$$$$$$$-",
"$$$$$$$$$$$$$$$$$$$$r$$$r#$$$$$$$$$$$$r#$r$$$$$$$$$$$$$$$$$$r$$-",
"$$$$$$$$$$$$$$$$$$$$#$$$$$$$$$$$$$$$$$$$--$$$$$$$$$$$$$$$$$$$r-@",
"$$$$$$$$$$$$$$$$$$$$$$$$$$$$$$$$$$$$$$$$--@$$$$$$$$$$$$$$$$$@--$",
"$$$$$$$$$$$$$$$$$$$$$$$$$$$$$$$$$$$$$$$$@@-r$$$$$$$$$$$$$$$$-@-$",
"$$$$$$$$$$$$$$$$$$$$$$$$$$$$$$$$$$$$$$$$$$--$$$$$$$$$$$$$$$$$$@$",
"$$$$$$$$$$$$$$$$$$$$$$$$$$$$$$$$$$$$$$$$$$@@$$$$$$$$$$$$$$$$$$$$"
};
