/* XPM */
static char *result[] = {
/* columns rows colors chars-per-pixel */
"64 64 80 1 ",
"  c #4F2713",
". c #4F2913",
"X c #502713",
"o c #522A15",
"O c #552F19",
"+ c #56321B",
"@ c #59351D",
"# c #5C391F",
"$ c #5B3721",
"% c #5D3C22",
"& c #603D25",
"* c #633E28",
"= c #656C17",
"- c #686F16",
"; c #72751B",
": c #5F4024",
"> c #5F4531",
", c #614126",
"< c #64442A",
"1 c #68442B",
"2 c #66492C",
"3 c #694C2E",
"4 c #6B502F",
"5 c #644732",
"6 c #684731",
"7 c #6C4D32",
"8 c #644D39",
"9 c #6D4E39",
"0 c #6E5334",
"q c #66513D",
"w c #68533F",
"e c #715536",
"r c #725837",
"t c #745739",
"y c #755B3B",
"u c #795F3F",
"i c #787B21",
"p c #79603F",
"a c #6A5542",
"s c #6D5A44",
"d c #795F40",
"f c #715E49",
"g c #795F4C",
"h c #6F604E",
"j c #7B6242",
"k c #74624D",
"l c #766552",
"z c #796752",
"x c #776854",
"c c #796955",
"v c #7D6D5B",
"b c #7F705F",
"n c #816647",
"m c #846B4A",
"M c #886F4F",
"N c #88704F",
"B c #886F50",
"V c #826F5C",
"C c #8B7454",
"Z c #81715D",
"A c #8D7758",
"S c #8F7959",
"D c #927D5E",
"F c #837563",
"G c #857966",
"H c #897A66",
"J c #877B6A",
"K c #8A7D6C",
"L c #937F60",
"P c #7F8226",
"I c #8E806E",
"U c #8F8270",
"Y c #928574",
"T c #958876",
"R c #958979",
"E c #998E7D",
"W c #9A8F80",
"Q c #9D9283",
"! c #A09687",
"~ c #A49989",
/* pixels */
";;;;;;;;;;;;;;;;;;;;;;;;;;;;;;;;;;;;;;;;;;;;;;;;;;;;;;;;;;;;;;;;",
";;;;;;;;;;;;;;;;;;;;;;;;;;;;;;;;;;;;;;;;;;;;;;;;;;;;;;;;;;;;;;;;",
";;;;;;;;;;;;;;;;;;;;;;;;;;;;;;;;;;;;;;;;;;;;;;;;;;;;;;;;;;;;;;;;",
";;;;;;;;;;;;;;;;;;;;;;;;;;;;;;;;;;;;;;;;;;;;;;;;;;;;;;;;;;;;;;;;",
";;;;;;;;;;;;;;;;;;;;;;;;;;;;;;;;;;;;;;;;;;;;;;;;;;;;;;;;;;;;;;;;",
";;;;;;;;;;;;;;;;;;;;;;;;;;;;;;;;;;;;;;;;;;;;;;;;;;;;;;;;;;;;;;;;",
";;;;;;;;;;;;;;;;;;;i;;;;;;;;;;;;;;;;;;;;;;;;;;;;;;;;;;;;;;;;;;;;",
";;;;;;;;;;;;;;;;i1*1*;;i;;;;;;;;;;;;;;;;;;;1*11;;;;;;;;;;;;;;;;;",
";;;;;;;;;;;;;;;;7QTT11**1***1*1*****1***11<1TTW6;;;;;;;;;;;;;;;;",
";;;;;;;;;;;;;;;;0!TT*nnMCCSDASASCCCCNNCMnnn*TT!9;;;;;;;;;;;;;;;;",
";;;;;;;;;;;;;;;;0~~~*nMCSDDDD#&&&*#DSDSAMmn1~~~7;;;;;;;;;;;;;;;;",
";;;;;;;;;;;;;;;;OZzzO7ee0tyttoUkLLottttet73*mkVO;;;;;;;;;;;;;;;;",
";;;;;;;;;;;;;;;;OVkkoooOoooOooTT9KoooooooOoOjzcO;;;;;;;;;;;;;;;;",
";;;;;;;;;;;;;;;;Ocgko&:#&#&&%OEEQQX&&*%%###oggVo;;;;;;;;;;;;;;;;",
";;;;;;;;;;;;;;;;ocgdo,#&###&%olznzX&#&#####ofkco;;;;;;;;;;;;;;;;",
";;;;;;;;;;;;;;;;Xzfuo,,,1,11<<XXOX****&%&#&XffzX;;;;;;;;;;;;;;;;",
";;;;;;;;;;;;;;;;XlsfX&,,,<,,<<:,:<<:,,&&%%%XsszX;;;;;;;;;;;;;;;;",
";;;;;;;;;;;;;;;;XkssX&&,,:,,,:::%:::%,%%%$%XsslX;;;;;;;;;;;;;;;;",
";;;;;;;;;;;;;;;; kasX,,<<223322262222222<,,.sakX;;;;;;;;;;;;;;;;",
";;;;;;;;;;;;;;;; kaaX,<<<22<3<3223222622<,,Xaaf ;;;;;;;;;;;;;;;;",
";;;;;;;;;;;;;;;; kww.:<<<3333333632333323,<.waf ;;;;;;;;;;;;;;;;",
";;;;;;;;;;;;;;;; fwq.,3333333334027633333,:.wafX;;;;;;;;;;;;;;;;",
";;;;;;;;;;;;;;;; sqq.30rrerrrrrrrrrrreee030 w8s ;;;;;;;;;;;;;;;;",
";;;;;;;;;;;;;;;; sq8 3rrytyyttyyuyrrrttee07.8wa.;;;;;;;;;;;;;;;;",
";;;;;;;;;;;;;;;; a88 3rryyyyyypyrtyyyyyrre3X89aX;;;;;;;;;;;;;;;;",
";;;;;;;;;;;;;;;; 8>5 3ryyyyyyyyyyuyyryrur44o5>8 ;;;;;;;;;;;;;;;;",
";;;;;;;;;;;;;;;;%*%%+0yyyjddppppppppppppuurX.   ;;;;;;;;;;;;;;;;",
";;;;;;;;;;;;;;;;$YKKO$%%%:::,<,2<<<<<<<<,,&oUUU ;;;;;;;;;;;;;;;;",
";;;;;;;;;;;;;;;;OsaaXX       X.oooo.oXoXXoXXaaa%;;;;;;;;;;;;;;;;",
";;;;;;;;;;;;;;;;O$$$@eeryuyyujppppppuuuyyeeX*&&&;;;;;;;;;;;;;;;;",
";;;;;;;;;;;;;;;;OFccX2<322<2222223222213<31OzcFO;;;;;;;;;;;;;;;;",
";;;;;;;;;;;;;;;;OJccO<<<<<2<<<<<21<222<<3<<occHO;;;;;;;;;;;;;;;;",
";;;;;;;;;;;;;;;;@KFZO>:>:>::>:>:<<:2::22<22obZI@;;;;;;;;;;;;;;;;",
";;;;;;;;;;;;;;;;%UFA+::%:::%:##%##%::::%%%%OZFU$;;;;;;;;;;;;;;;;",
";;;;;;;;;;;;;;;;*YHJ+%:%:::%#:%%%%%%#%#:%$%@JHY%;;;;;;;;;;;;;;;;",
";;;;;;;;;;;;;;;;<RJI@:::%%%%%#%:#%%#%%%#%%%@IJT<;;;;;;;;;;;;;;;;",
";;;;;;;;;;;;;;;;<RKK$::::%:@#:@:@%%@%@%%%%%$YKR*;;;;;;;;;;;;;;;;",
";;;;;;;;;;;;;;;;5EYY%%++++++#+++++++++++++O$KKE5;;;;;;;;;;;;;;;;",
";;;;;;;;;;;;;;;;1EYK%+@@@++@+#++++++O++++OO%YYE1;;;;;;;;;;;;;;;;",
";;;;;;;;;;;;;;;;6EYY:@@@@+@+++++++++OO+OOOO%YYE5;;;;;;;;;;;;;;;;",
";;;;;;;;;;;;;;;;6WRT&$@@+++++++++++++++++o+:YYW1;;;;;;;;;;;;;;;;",
";;;;;;;;;;;;;;;;6!RR&oOXo..#........#......:RRQ5;;;;;;;;;;;;;;;;",
";;;;;;;;;;;;;;;;1!QW&tmmmmm.mmjmmmcmommmmmm%WQQ5;;;;;;;;;;;;;;;;",
";;;;;;;;;;;;;;;;XKZbO7uuppp.jppypppp.ppryyp+bbU%;;;;;;;;;;;;;;;;",
";;;;;;;;;;;;;;;;OJvbO<uupyj.jyyyrrpp.jpryuy+vvJ%;;;;;;;;;;;;;;;;",
";;;;;;;;;;;;;;;;XbxzO1uyypp+pyyyprpp+jrpyypozzb$;;;;;;;;;;;;;;;;",
";;;;;;;;;;;;;;;;obkz+<ee00poy000400pop0re0roklb+;;;;;;;;;;;;;;;;",
";;;;;;;;;;;;;;;;Ochko<0000yoy000400pop00e0e.kkx+;;;;;;;;;;;;;;;;",
";;;;;;;;;;;;;;;;olhf <0000r.r000000p.p00e00.sslo;;;;;;;;;;;;;;;;",
";;;;;;;;;;;;;;;;.lsso:4434yo04334440or44440.ssl.;;;;;;;;;;;;;;;;",
";;;;;;;;;;;;;;;;olsa.:8444y.02332340or44443.ssh ;;;;;;;;;;;;;;;;",
";;;;;;;;;;;;;;;;.$$$$%<,::p.32>52:>4.0>><,>O+$$ ;;;;;;;;;;;;;;;;",
";;;;;;;;;;;;;;;;.JbJb....oO.oo.oo...ooo+...FbGG ;;;;;;;;;;;;;;;;",
";;iP;;;;ii;;;;;; hhhx.xvbbbbJIKKIIbIJbbbbv.xhhh ;;;;;;;;;;;;;;;;",
";;;PP;;ii;;;;;;;.8>8x.qqaqaaaaaaaahaaaaaaa.l888 ;;;;;;;;;;;;;;;;",
";;;=ii;ii;;;;;;;..o  .....  ... ....       .    ;;;;;;;;;;;;;;;;",
";;;=ii;==;;;;;;;;;;;;;;;;;;;;;;;;;;;;;;;;;;;;;;;;;;;;;;;;;;;;;;;",
";;;;==;;;;;;;;;;;;;;;;;;;;;;;;;;;;;;;;;;;;P;;;;;;;;;;;;;;;;;;;;i",
";;;;;;;;;;;;;;;;;;;;;;;;;;;;;;;;;;;;;;;;;P;;;;;;;;;;;;;;;;;;P;;i",
";;;;;;;;;;;;;;;;;;;;;;;;;;;;;;;;;;;;;;;;ii;;;;;;;;;;;;;;;;;;;Pi-",
";;;;;;;;;;;;;;;;;;;;;;;;;;;;;;;;;;;;;;;;ii=;;;;;;;;;;;;;;;;;-;i;",
";;;;;;;;;;;;;;;;;;;;;;;;;;;;;;;;;;;;;;;;==iP;;;;;;;;;;;;;;;;;-i;",
";;;;;;;;;;;;;;;;;;;;;;;;;;;;;;;;;;;;;;;;;;ii;;;;;;;;;;;;;;;;;;-;",
";;;;;;;;;;;;;;;;;;;;;;;;;;;;;;;;;;;;;;;;;;--;;;;;;;;;;;;;;;;;;;;"
};
