/* XPM */
static char *result[] = {
/* columns rows colors chars-per-pixel */
"64 64 43 1 ",
"  c #4D2711",
". c #4E2812",
"X c #512B14",
"o c #593722",
"O c #5B3A25",
"+ c #5D3E2A",
"@ c #656C17",
"# c #686F16",
"$ c #72751B",
"% c #5F412E",
"& c #52453A",
"* c #55493D",
"= c #60412E",
"- c #787B21",
"; c #574B40",
": c #594E43",
"> c #5C5246",
", c #5F5549",
"< c #655E55",
"1 c #676056",
"2 c #686157",
"3 c #676158",
"4 c #6B655C",
"5 c #6E685F",
"6 c #70685F",
"7 c #6F6A60",
"8 c #726E65",
"9 c #747067",
"0 c #76736A",
"q c #78756D",
"w c #797770",
"e c #7C7A72",
"r c #7F8225",
"t c #87857A",
"y c #89867B",
"u c #8B897D",
"i c #8C8A81",
"p c #918F85",
"a c #929087",
"s c #96938B",
"d c #99978F",
"f c #9C9A92",
"g c #A09C96",
/* pixels */
"$$$$$$$$$$$$$$$$$$$$$$$$$$$$$$$$$$$$$$$$$$$$$$$$$$$$$$$$$$$$$$$$",
"$$$$$$$$$$$$$$$$$$$$$$$$$$$$$$$$$$$$$$$$$$$$$$$$$$$$$$$$$$$$$$$$",
"$$$$$$$$$$$$$$$$$$$$$$$$$$$$$$$$$$$$$$$$$$$$$$$$$$$$$$$$$$$$$$$$",
"$$$$$$$$$$$$$$$$$$$$$$$$$$$$$$$$$$$$$$$$$$$$$$$$$$$$$$$$$$$$$$$$",
"$$$$$$$$$$$$$$$$$$$$$$$$$$$$$$$$$$$$$$$$$$$$$$$$$$$$$$$$$$$$$$$$",
"$$$$$$$$$$$$$$$$$$$$$$$$$$$$$$$$$$$$$$$$$$$$$$$$$$$$$$$$$$$$$$$$",
"$$$$$$$$$$$$$$$$$$$$$O++===========+++++OOo$$$$$$$$$$$$$$$$$$$$$",
"$$$$$$$$$$$$$$$$$$$$=uuuytytyyttipttttttttto$$$$$$$$$$$$$$$$$$$$",
"$$$$$$$$$$$$$$$$$$$+auuyttttttttttttttyttttpO$$$$$$$$$$$$$$$$$$$",
"$$$$$$$$$$$$$$$$$$$OsutyytytytyytttttttttytpO$$$$$$$$$$$$$$$$$$$",
"$$$$$$$$$$$$$$$$$$$OatttyyyyyyyyytytytytyttaO$$$$$$$$$$$$$$$$$$$",
"$$$$$$$$$$$$$$$$$$$Osyyyytytyyyyyttiytpptyta=$$$$$$$$$$$$$$$$$$$",
"$$$$$$$$$$$$$$$$$$$Oatytyyuyyyyyytyyyaaayyys=$$$$$$$$$$$$$$$$$$$",
"$$$$$$$$$$$$$$$$$$$Ostyyyyyyyyyyyiyyyaaaytys=$$$$$$$$$$$$$$$$$$$",
"$$$$$$$$$$$$$$$$$$$Odyyyyyyyyyyyyyyyyyyyyyyd=$$$$$$$$$$$$$$$$$$$",
"$$$$$$$$$$$$$$$$$$$oduuyyyyyyutyyyyyyyyyyyydO$$$$$$$$$$$$$$$$$$$",
"$$$$$$$$$$$$$$$$$$$+duuuyyuyyuuyyyuuuuuyyytd+$$$$$$$$$$$$$$$$$$$",
"$$$$$$$$$$$$$$$$$$$+duuuyyyuuuuuuypupuiiiyyg=$$$$$$$$$$$$$$$$$$$",
"$$$$$$$$$$$$$$$$$$$=duuusayuuuuyuuuuyuipppaf=$$$$$$$$$$$$$$$$$$$",
"$$$$$$$$$$$$$$$$$$$=duuussuuuuuuyuuuuuyppgg8O$$$$$$$$$$$$$$$$$$$",
"$$$$$$$$$$$$$$$$$$$X6duuuuiuiiiiuuuuppppg888X$$$$$$$$$$$$$$$$$$$",
"$$$$$$$$$$$$$$$$$$$X66dgfgddssssdsddddggg88<X$$$$$$$$$$$$$$$$$$$",
"$$$$$$$$$$$$$$$$$$$X6tyq000q0800476664666i22X$$$$$$$$$$$$$$$$$$$",
"$$$$$$$$$$$$$$$$$$$Xu56q00000045746666666i22X$$$$$$$$$$$$$$$$$$$",
"$$$$$$$$$$$$$$$$$$$Xi444779086644764777665i<X$$$$$$$$$$$$$$$$$$$",
"$$$$$$$$$$$$$$$$$$$Xi5477474665564747474555tX$$$$$$$$$$$$$$$$$$$",
"$$$$$$$$$$$$$$$$$$$Xe744777466:::7774676558tX$$$$$$$$$$$$$$$$$$$",
"$$$$$$$$$$$$$$$$$$$Xe45577<746:88,,77774558tX$$$$$$$$$$$$$$$$$$$",
"$$$$$$$$$$$$$$$$$$$Xe645<77474:459957666448eX$$$$$$$$$$$$$$$$$$$",
"$$$$$$$$$$$$$$$$$$$Xe544474474:::5556466768eX$$$$$$$$$$$$$$$$$$$",
"$$$$$$$$$$$$$$$$$$$Xe444444744:88,,55555768qX$$$$$$$$$$$$$$$$$$$",
"$$$$$$$$$$$$$$$$$$$Xw4444444448459844454888qX$$$$$$$$$$$$$$$$$$$",
"$$$$$$$$$$$$$$$$#rr.w3443443444444444444888w.$$$$$$$$$$$$$$$$$$$",
"$$$$$$$$$$$$$$$$###.w3334444244*;4444344888w.$$$$$$$$$$$$$$$$$$$",
"$$$$$$$$$$$$$$$$r##.w33<424444*783;43434887w.$$$$$$$$$$$$$$$$$$$",
"$$$$$$$$$$$$$$$$$$r.033<233242*7;;&33333388w.$$$$$$$$$$$$$$$$$$$",
"$$$$$$$$$$$$$$$$$$$.0333113341*777&<3333378w.$$$$$$$$$$$$$$$$$$$",
"$$$$$$$$$$$$$$$$$$$.03<31<2411**;<6<3333378w.$$$$$$$$$$$$$$$$$$$",
"$$$$$$$$$$$$$$$$$$$.0<<<11331<447<<<<333337w.-$$$$$$$$$$$$$$$$$$",
"$$$$$$$$$$$$$$$$$$$.9<1<11*:<<<<<<<<<<<3333w.$$$$$$$$$$$$$$$$$$$",
"$$$$$$$$$$$$$$$$$$$.9<<<2*0944<<&&&3<<<<333q.$$$$$$$$$$$$$$$$$$$",
"$$$$$$$$$$$$$$$$$$$.8<<<*744442&444<<<333<3q.$$$$$$$$$$$$$$$$$$$",
"$$$$$$$$$$$$$$$$$$$.8<<<>94442&<3&&3<<<<3<3q.$$$$$$$$$$$$$$$$$$$",
"$$$$$$$$$$$$$$$$$$$.8<<>>922<<5&<44<<<<<<<<q.$$$$$$$$$$$$$$$$$$$",
"$$$$$$$$$$$$$$$$$$$$.&&;0525<<22&&&<<<<<3<30 @$$$$$$$$$$$$$$$$$$",
"$$$$$$$$$$$$$$$$$$$$.&892752<<<<433<<<<<333q.-$$$$$$$$$$$$$$$$$$",
"$$$$$$$$$$$$$$$$$$$$.&9<2272<<<<3<<<<<<<<33q.$$$$$$$$$$$$$$$$$$$",
"$$$$$$$$$$$$$$$$$$$$.0<<<27*<<*&3&&<<<<<333q.$$$$$$$$$$$$$$$$$$$",
"$$$$$$$$$$$$$$$$$$$ 9<<<<<<<2<2&1*41<<123330.$$$$$$$$$$$$$$$$$$$",
"$$$$$$$$$$$$$$$$$$$ 7<<<22<<<<271411,<<23330.$$$$$$$$$$$$$$$$$$$",
"$$$$$$$$$$$$$$$$$$r 9<<22<<<<22*1*1111223330.$$$$$$$$$$$$$$$$$$$",
"$$$$$$$$$$$$$$$$$$# 9<22222222&*1&*221223339.$$$$$$$$$$$$$$$$$$$",
"$$#$$$$$$#$$$$$$$$$ 9522<2222277277241213319.$$$$$$$$$$$$$$$$$$$",
"$$rr$$$$-r$$$$$$$$$ 95<222222222222422**3320.$$$$$$$$$$$$$$$$$$$",
"$$$rr$$$-$$$$$$$$$r 97522222222522412*>>2220.$$$$$$$$$$$$$$$$$$$",
"$$$@r$$r-$$$$$$$$$# 9777455522224242*>>>::20.$$$$$$$$$$$$$$$$$$$",
"$$$@--$@@$$$$$$$$$$.977477777222222*>>>>,,,0.$$$$$$$$$$$$$$$$$$$",
"$$$$@@$$$$$$$$$$$$$$..   .........  . ......$$$$$$$$$$$$$$$$$$$-",
"$$$$$$$$$$$$$$$$$$$$r$$$$$$$$$$$$$$$$$$$$r$$$$$$$$$$$$$$$$$$--$-",
"$$$$$$$$$$$$$$$$$$$$#$$$$$$$$$$$$$$$$$$$--$$$$$$$$$$$$$$$$$$---@",
"$$$$$$$$$$$$$$$$$$$$$$$$$$$$$$$$$$$$$$$$--@$$$$$$$$$$$$$$$$$@---",
"$$$$$$$$$$$$$$$$$$$$$$$$$$$$$$$$$$$$$$$$@@-r$$$$$$$$$$$$$$$$$@-$",
"$$$$$$$$$$$$$$$$$$$$$$$$$$$$$$$$$$$$$$$$$$--$$$$$$$$$$$$$$$$$$@$",
"$$$$$$$$$$$$$$$$$$$$$$$$$$$$$$$$$$$$$$$$$$@@$$$$$$$$$$$$$$$$$$$$"
};
