/* XPM */
static char *result[] = {
/* columns rows colors chars-per-pixel */
"64 64 6 1 ",
"  c #72751B",
". c #7F8226",
"X c #787B21",
"o c #656C17",
"O c #7F8124",
"+ c #686F16",
/* pixels */
"                                                                ",
"                                                                ",
"                                                                ",
"                                                                ",
"                                                                ",
"                                                                ",
"                                                                ",
"                                                                ",
"                                                                ",
"                                                                ",
"                                                                ",
"                                                                ",
"                                                                ",
"                                                                ",
"                                                                ",
"                                                                ",
"                                                                ",
"                                                                ",
"                                                                ",
"                                                                ",
"                                        .                       ",
"                                   ..X  XX                      ",
"                                    .XX oX  .                   ",
"                                    oXXXo XXo                   ",
"                                   .XoXX  XXo                   ",
"                                   oXXoX  oo                    ",
"                                    oXoo                        ",
"                                                                ",
"                                                                ",
"                                                                ",
"                                                                ",
"                                                                ",
"                                                                ",
"                                                                ",
"                                                                ",
"                                                                ",
"                                                                ",
"                    ..                                          ",
"                     .XX   ..                                   ",
"                     oXX  X.                                    ",
"                      oo XXX                                    ",
"                         XXo                                    ",
"                         oo                                     ",
"                                                                ",
"                                                                ",
"                                                                ",
"                                                                ",
"                            X.                                  ",
"                             ..                                 ",
"                             XXX                                ",
"                             oXXoXX..                           ",
"                              ooXXX                             ",
"                                XXo                             ",
"  X.    XX                      Xo                              ",
"   ..  XX                                                       ",
"   oXX XX                                                       ",
"   oXX oo                                                       ",
"    oo                                    .                    X",
"                                         .                  O  X",
"                                        XX                   OX+",
"                                        XXo                 +XX ",
"                                        ooX.                 +X ",
"                                          XX                  + ",
"                                          oo                    "
};
