/* XPM */
static char *result[] = {
/* columns rows colors chars-per-pixel */
"64 64 76 1 ",
"  c #4F2713",
". c #4E2913",
"X c #532C14",
"o c #542E19",
"O c #57321C",
"+ c #59341D",
"@ c #5D381E",
"# c #5B3721",
"$ c #5E3B24",
"% c #613D25",
"& c #613E29",
"* c #656C17",
"= c #686F16",
"- c #72751B",
"; c #624127",
": c #64442C",
"> c #674B2F",
", c #694A2F",
"< c #674731",
"1 c #654A35",
"2 c #6A4D31",
"3 c #634C38",
"4 c #6C4E39",
"5 c #6E5134",
"6 c #66513D",
"7 c #68523F",
"8 c #705335",
"9 c #735539",
"0 c #75593B",
"q c #785A3E",
"w c #787B21",
"e c #675341",
"r c #695542",
"t c #6C5843",
"y c #6F5F4D",
"u c #7A5E43",
"i c #6F604E",
"p c #7D6144",
"a c #73624E",
"s c #7F6548",
"d c #746552",
"f c #796653",
"g c #7A6A56",
"h c #7C6D5C",
"j c #7E705E",
"k c #806649",
"l c #836A4D",
"z c #876E52",
"x c #886F52",
"c c #806F5E",
"v c #877053",
"b c #8A7256",
"n c #81715F",
"m c #8C765A",
"M c #8E795C",
"N c #907A5D",
"B c #827564",
"V c #857866",
"C c #867968",
"Z c #897C6B",
"A c #947F63",
"S c #7F8226",
"D c #8E816F",
"F c #968165",
"G c #988267",
"H c #9A8569",
"J c #8F8271",
"K c #928576",
"L c #948778",
"P c #968B7B",
"I c #988C7E",
"U c #998F81",
"Y c #9C9283",
"T c #9F9588",
"R c #A0978A",
"E c #A2988C",
/* pixels */
"----------------------------------------------------------------",
"----------------------------------------------------------------",
"----------------------------------------------------------------",
"----------------------------------------------------------------",
"----------------------------------------------------------------",
"----------------------------------------------------------------",
"----------------------------------------------------------------",
"----------------------------------------------------------------",
"----------------------------------------------------------------",
"----------------------------------------------------------------",
"----------------------------------------------------------------",
"----------------------------------------------------------------",
"----------------------------------------------------------------",
"----------------------------------------------------------------",
"----------------------------------------------------------------",
"----------------------------------------------------------------",
"-----------------$#++----------------------%OO%-----------------",
"----------------#cff+XXXXX+-XXXXXXXX-XXXXXX&ffcO----------------",
"----------------:Vcc@88888l+l5588880+k55484&ccC&----------------",
"----------------4LZZ%ullllx:mlklkllb:xkllll&ZCU&----------------",
"----------------4IKK&kzlzlN,AllzlllN,blllll:LZT&----------------",
"----------------4RLL&kmNNNAqNmmNNMMN2mMMmmm<PZR<----------------",
"----------------4RYY%lMMNNAqANNNMMMN2mMNmmm<UUR<----------------",
"----------------2ERR:lFFAGH9GAAAAAAF2AAAAAA<RRR<----------------",
"----------------4ERR&lAGAGHqHAAAFAFF2FAFAAA<RRR4----------------",
"----------------4ERR&lNHAGG9HAAAAAFF2FAAAAA<TTR4----------------",
"----------------:RPI@kNNNNG9ANNNMAmF2FAmNMN<PPR<----------------",
"----------------;RIP@kNNNNA9ANNNMMMF,FMmMNN<PPR<----------------",
"----------------&RZK+kNNNNA5ANNNmNmA:FNNMMM&KZY<----------------",
"----------------&IKAOqlzllx5xlllzllM%mlllll&ZZY,----------------",
"----------------%LZZXqllllx%bllllllb+blllkl%ZZL&----------------",
"----------------%KVZXqllllx@xppquuubOxlklll%VZK%----------------",
"----------------@XXXX0q000lX5$#$##+uOq08895#.oX#----------------",
"----------------@PIPXOXXXXXXXXDDKZOXXXXXXXXOPPP$----------------",
"----------------@ZnhX:;;;;&X$XhXXgX$X5::::>XhjZ$----------------",
"----------------%ZhgX>88990X5XdjXyX%X055555XggB#----------------",
"----------------%BddX>55550X2XiiXiX$X05>222Xddj#----------------",
"----------------$haaX;25250X2Xt6g6X;X922>52Xiiho----------------",
"----------------Ofii.;55520X2;XXXX;>X022522.iidX----------------",
"----------------Xatt.$>>>>9X>>;;;;>>X02>>21 tta.----------------",
"----------------.att.%>>>>9X>5>2>2>5X0>>>>>.tta ----------------",
"----------------.atr.$>>>>9.>>>5>>>>X9>>>>>.tta.----------------",
"---------------- ##OO$;$$$9X;;$$$$;;.0&$$;;OOOO ----------------",
"---------------- VBBB...XXXXX.X.XXXX.o.o..XjBBB ----------------",
"----------------.iiif.gjhBBVZZZZDDCCCjjjhh.diii ----------------",
"---------------- 333d.666e66rrte66eetteeee.i333 ----------------",
"----------------     ....     ...............   ----------------",
"----------------------------wS----------------------------------",
"-----------------------------SS---------------------------------",
"-----------------------------www--------------------------------",
"-----------------------------*ww*wwSS---------------------------",
"------------------------------**www-----------------------------",
"--------------------------------ww*-----------------------------",
"---S----ww----------------------w*------------------------------",
"---SS--ww-------------------------------------------------------",
"---*ww-ww-------------------------------------------------------",
"---*ww-*=-------------------------------------------------------",
"----**------------------------------------S--------------------w",
"-----------------------------------------S------------------S--w",
"----------------------------------------ww-------------------Sw=",
"----------------------------------------ww*-----------------=ww-",
"----------------------------------------**wS-----------------=w-",
"------------------------------------------ww------------------=-",
"------------------------------------------**--------------------"
};
