/* XPM */
static char *result[] = {
/* columns rows colors chars-per-pixel */
"64 64 100 2 ",
"   c #4F2913",
".  c #4F311E",
"X  c #53321E",
"o  c #56321C",
"O  c #4F3625",
"+  c #543523",
"@  c #543624",
"#  c #553726",
"$  c #553827",
"%  c #5A3B27",
"&  c #5E3B25",
"*  c #563B2A",
"=  c #563D2C",
"-  c #573C2D",
";  c #573D2D",
":  c #573E2E",
">  c #593D2A",
",  c #573F30",
"<  c #583F30",
"1  c #5B4231",
"2  c #584132",
"3  c #594133",
"4  c #5E4532",
"5  c #5A4335",
"6  c #5A4336",
"7  c #5A4436",
"8  c #5A4437",
"9  c #5B4639",
"0  c #5A4739",
"q  c #5B473A",
"w  c #5B483B",
"e  c #5B493C",
"r  c #5C493D",
"t  c #5C4B3E",
"y  c #5C4B3F",
"u  c #624937",
"i  c #5C4B40",
"p  c #5C4D41",
"a  c #5D4D41",
"s  c #5D4D42",
"d  c #5D4E42",
"f  c #5D4E43",
"g  c #5D4F43",
"h  c #5E4F44",
"j  c #5E4F45",
"k  c #5A5046",
"l  c #5D5044",
"z  c #5C5147",
"x  c #5E5146",
"c  c #5C5247",
"v  c #5D5247",
"b  c #5D5248",
"n  c #5F5349",
"m  c #655444",
"M  c #665444",
"N  c #675544",
"B  c #615851",
"V  c #655C55",
"C  c #655D56",
"Z  c #665F58",
"A  c #666057",
"S  c #676159",
"D  c #676259",
"F  c #68625A",
"G  c #68635A",
"H  c #69635B",
"J  c #69645B",
"K  c #69645C",
"L  c #6A645C",
"P  c #6A655C",
"I  c #6B655D",
"U  c #6A665C",
"Y  c #6B665D",
"T  c #6B675D",
"R  c #6B665E",
"E  c #6C665E",
"W  c #6C675E",
"Q  c #6C675F",
"!  c #6C685E",
"~  c #6C685F",
"^  c #6D685F",
"/  c #6D695F",
"(  c #6D6860",
")  c #6D6960",
"_  c #6E6A61",
"`  c #6F6A62",
"'  c #6F6B62",
"]  c #706B62",
"[  c #706B63",
"{  c #706C63",
"}  c #746F67",
"|  c #767469",
" . c #868579",
".. c #86847B",
"X. c #88877B",
"o. c #918F88",
"O. c #929088",
"+. c #94928B",
"@. c #99978F",
"#. c None",
/* pixels */
"% % % % % % % % % % % % % % % % #.% % % % % % % % % % % % % % % % % % % % % % % % % % % % % % % #.% % % % % % % % % % % % % % % ",
" . . . . . . . . . . . . . .X. .4  . . . . . . . . . . . . . . . . . . . . . . . . . . . . .X. .4  . . . . . . . . . . . . . . .",
" . . . . . . . . . . . . . . . .u  . . . . . . . . . . . . . . . . . . . . . . . . . . . . . . .u  . . . . . . . . . . . . . . .",
" . . . . . . . . . . . . . . . .N  . . . . . . . . . . . . . . . . . . . . . . . . . . . . . . .N  . . . . . . . . . . . . . . .",
"o.o.o.o.o.o.o.o.o.o.o.O.+.@.@.@.M +.@.@.@.+.+.+.+.+.+.+.+.+.+.+.o.o.o.o.o.o.o.o.o.o.o.O.+.@.@.@.M +.@.@.@.+.+.+.+.+.+.+.+.+.+.+.",
"/ / / ^ ^ ^ ^ ^ ^ ^ / / / / / ^ 1 ^ ^ ^ ! ^ ^ ^ ^ ^ W ! ! ! ! ! / / / ^ ^ ^ ^ ^ ^ ^ / / / / / ^ 1 ^ ^ ^ ! ^ ^ ^ ^ ^ W ! ! ! ! ! ",
"^ ^ ^ ^ ^ ^ ^ ^ ^ ^ ^ ^ ^ / ^ ^ 1 ^ ^ ! ! ! ^ ^ ^ ! W W W W W W ^ ^ ^ ^ ^ ^ ^ ^ ^ ^ ^ ^ ^ / ^ ^ 1 ^ ^ ! ! ! ^ ^ ^ ! W W W W W W ",
"^ ^ ^ ^ ^ ^ ^ ^ ! ! ! ! ! ! W W 1 ^ ! ! W W ! ! ! W W W W W W W ^ ^ ^ ^ ^ ^ ^ ^ ! ! ! ! ! ! W W 1 ^ ! ! W W ! ! ! W W W W W W W ",
"^ ! ! ! ! ! ! ! ! ! ! W W W W W 1 W W W W W T T W W W W W E Y Y ^ ! ! ! ! ! ! ! ! ! ! W W W W W 1 W W W W W T T W W W W W E Y Y ",
"W W W W W W W W W W W T T T T T 1 Y Y Y Y Y Y Y Y Y Y Y Y Y Y Y W W W W W W W W W W W T T T T T 1 Y Y Y Y Y Y Y Y Y Y Y Y Y Y Y ",
"T Y Y Y Y Y Y Y Y Y Y Y Y Y Y Y 1 Y Y Y Y Y I I P P P P U U U U T Y Y Y Y Y Y Y Y Y Y Y Y Y Y Y 1 Y Y Y Y Y I I P P P P U U U U ",
"P P P P P P P P P P P P I I I I > I I P L L L L L L L L P P P P P P P P P P P P P P P P I I I I > I I P L L L L L L L L P P P P ",
"P P P P P P P P P P P P P P L P X J J J J J J J J J J J J J J J P P P P P P P P P P P P P P L P X J J J J J J J J J J J J J J J ",
"J J L J J J J J J J J J J J J J X H H H H H H J J J J J J J J J J J L J J J J J J J J J J J J J X H H H H H H J J J J J J J J J ",
"H H H H H H H H H H H H H H G G X G G G G G G G G G G G G G H H H H H H H H H H H H H H H H G G X G G G G G G G G G G G G G H H ",
"D D D D D D D F D F F F G G G F X F F F F F F F F F G G F G G G D D D D D D D F D F F F G G G F X F F F F F F F F F G G F G G G ",
"S S S S S S S S S S S S S S S S X S S S S S S S S S S S S S S S S S S S S S S S S S S S S S S S X S S S S S S S S S S S S S S S ",
"S S S S S S S S S S S S S S S S   S S S S S S S S S S S S S S S S S S S S S S S S S S S S S S S   S S S S S S S S S S S S S S S ",
"                                c                                                               k                               ",
"c c c c c c c c c c c c c c c c c c c c c c c . k k k k k k k k k k k k k k k k k k k k k k k k k k k k k k k . z z c v v v v b ",
"c c c c c c c c c c c c c c c c c c c c c c c . k k k k k k k k k k k k k k k k k k k k k k k k k k k k k k k . c c v v v v v b ",
"c c c c c c c c c c c c c c c c c c c c c c c O k k k k k k k k k k k k k k k k k k k k k k k k k k k k k k k O c c v v v v v b ",
"c c c c c c c c c c c c c c c c c c c c c c c O k k k k k k k k k k k k k k k k k k k k k k k k k k k k k k k O c c c v v v v b ",
"c c c c c c c c c c c c c c c c c c c c c c c O k k k k k k k k k k k k k k k k k k k k k k k k k k k k k k k O c c c v v v v b ",
"c c c c c c c c c c c c c c c c c c c c c c c O k k k k k k k k k k k k k k k k k k k k k k k k k k k k k k k O z z c v v v v v ",
"S S S S S S S S S S S S S S S S S S S S S S S 2 B B B B B B B B B B B B B B B B B B B B B B B B B B B B B B B 2 S S S S S S S S ",
"S S S S S S S S S S S S S S S S S S S S S S S @ B B B B B B B B B B B B B B B B B B B B B B B B B B B B B B B @ S S S S S S S S ",
"x x x x x a a a x x x n n n n n n n n 2 2 = * # $ $ $ 3 3 6 5 6 7 8 8 8 9 B B B B 2 x n n n n n n n n 2 2 = * # $ < n n n n n n ",
"^ ^ ^ ^ ^ ^ a Q Q Q Q Q Q Q Q Q Q Q Q Q Q Q Q Q Q Q Q Q Q Q ( ' { { { ] ] 2 B B 2 ` [ ' Q Q Q Q Q Q Q Q Q Q Q Q Q Q Q Q Q Q Q Q ",
"S S S S S S a S S S S S S S S S S S S S S S S S S S S S S S S S S S S S S ) 2 2 _ S S S S S S S S S S S S S S S S S S S S S S S ",
"S S S S S S a S S S S S S S S S S S S S S S S S S S S S S S S S S S S S S S 2 ` S S S S S S S S S S S S S S S S S S S S S S S S ",
"S S S S S S a S S S S S S S S S S S S S S S S S S S S S S S S S S S S S S S 2 S S S S S S S S S S S S S S S S S S S S S S S S S ",
"S S S S S S a S S S S S S S S S S S S S S S S S S S S S S S S S S S S S S S 2 S S S S S S S S S S S S S S S S S S S S S S S S S ",
"S S S S S S a S S S S S S S S S S S S S S S S S S S S S S S S S S S S S S S 2 S S S S S S S S S S S S S S S S S S S S S S S S S ",
"S S S S S S 2 S S S S S S S S S S S S S S S S S S S S S S S S S S S S S S S 2 S S S S S S S S S S S S S S S S S S S S S S S S S ",
"S S S S S S , S S S S S S S S S S S S S S S S S S S S S S S S S S S S S S S , S S S S S S S S S S S S S S S S S S S S S S S S S ",
"w w w - - @ + # - n n n n n n n n n n n 0 w e s e e q n n n n n w w w - - @ + # - n n n n n n n n n n n 0 w e s e e q n n n n n ",
"K K K K K K K K K K K K K K K K ~ ~ ~ ~ ~ Q W i Q Q Q Q Q Q Q Q K K K K K K K K K K K K K K K K ~ ~ ~ ~ ~ Q W i Q Q Q Q Q Q Q Q ",
"Z Z Z Z Z Z Z Z Z Z Z Z Z Z Z Z Z Z Z Z Z Z Z y Z Z Z Z Z Z Z Z Z Z Z Z Z Z Z Z Z Z Z Z Z Z Z Z Z Z Z Z Z Z Z y Z Z Z Z Z Z Z Z ",
"Z Z Z Z Z Z Z Z Z Z Z Z Z Z Z Z Z Z Z Z Z Z Z r Z Z Z Z Z Z Z Z Z Z Z Z Z Z Z Z Z Z Z Z Z Z Z Z Z Z Z Z Z Z Z r Z Z Z Z Z Z Z Z ",
"Z Z Z Z Z Z Z Z Z Z Z Z Z Z Z Z Z Z Z Z Z Z Z j V Z Z Z Z Z Z Z Z Z Z Z Z Z Z Z Z Z Z Z Z Z Z Z Z Z Z Z Z Z Z j V Z Z Z Z Z Z Z ",
"Z Z Z Z Z Z Z Z Z Z Z Z Z Z Z Z Z Z Z Z Z Z Z j C Z Z Z Z Z Z Z Z Z Z Z Z Z Z Z Z Z Z Z Z Z Z Z Z Z Z Z Z Z Z j C Z Z Z Z Z Z Z ",
"Z Z Z Z Z Z Z Z Z Z Z Z Z Z Z Z Z Z Z Z Z Z Z h Z Z Z Z Z Z Z Z Z Z Z Z Z Z Z Z Z Z Z Z Z Z Z Z Z Z Z Z Z Z Z h Z Z Z Z Z Z Z Z ",
"Z Z Z Z Z Z Z Z Z Z Z Z Z Z Z Z Z Z Z Z Z Z Z + Z Z Z Z Z Z Z Z Z Z Z Z Z Z Z Z Z Z Z Z Z Z Z Z Z Z Z Z Z Z Z + Z Z Z Z Z Z Z Z ",
"Z Z Z C Z Z Z Z Z Z Z Z Z Z Z Z Z Z Z Z Z Z Z + Z Z Z Z Z Z Z Z Z Z Z C Z Z Z Z Z Z Z Z Z Z Z Z Z Z Z Z Z Z Z + Z Z Z Z Z Z Z Z ",
"n n n t t e t t l l l l g f d d d d d s + + + + + + p p p p p p n n n t t e t t l l l l g f d d d d d s + + + + + + p p p p p p ",
"Q Q Q Q Q Q t } } } } } } } } } } } } } } } } } } } } } } } } } } } } } } } t Q Q Q Q Q Q Q Q Q Q Q Q Q Q Q Q Q Q Q Q Q Q Q Q Q ",
"Z Z Z Z Z Z t Q Q Q Q Q Q Q Q Q Q Q Q Q Q Q Q Q Q Q Q Q Q Q Q Q Q Q Q Q Q Q t Z Z Z Z Z Z Z Z Z Z Z Z Z Z Z Z Z Z Z Z Z Z Z Z Z ",
"Z Z Z Z Z Z t Q Q Q Q Q Q Q Q Q Q Q Q Q Q Q Q Q Q Q Q Q Q Q Q Q Q Q Q Q Q Q t Z Z Z Z Z Z Z Z Z Z Z Z Z Z Z Z Z Z Z Z Z Z Z Z Z ",
"Z Z Z Z Z Z x Q Q Q Q Q Q Q Q Q Q Q Q Q Q Q Q Q Q Q Q Q Q Q Q Q Q Q Q Q Q Q x Z Z Z Z Z Z Z Z Z Z Z Z Z Z Z Z Z Z Z Z Z Z Z Z Z ",
"Z Z Z Z Z Z n Q Q Q Q Q Q Q Q Q Q Q Q Q Q Q Q Q Q Q Q Q Q Q Q Q Q Q Q Q Q Q n Z Z Z Z Z Z Z Z Z Z Z Z Z Z Z Z Z Z Z Z Z Z Z Z Z ",
"Z Z Z Z Z Z 2 Q Q Q Q Q Q Q Q Q Q Q Q Q Q Q Q Q Q Q Q Q Q Q Q Q Q Q Q Q Q Q 2 Z Z Z Z Z Z Z Z Z Z Z Z Z Z Z Z Z Z Z Z Z Z Z Z Z ",
"Z Z Z Z Z Z ; Q Q Q Q Q Q Q Q Q Q Q Q Q Q Q Q Q Q Q Q Q Q Q Q Q Q Q Q Q Q Q ; Z Z Z Z Z Z Z Z Z Z Z Z Z Z Z Z Z Z Z Z Z Z Z Z Z ",
"Z Z Z Z Z Z : Q Q Q Q Q Q Q Q Q Q Q Q Q Q Q Q Q Q Q Q Q Q Q Q Q Q Q Q Q Q Q : Z Z Z Z Z Z Z Z Z Z Z Z Z Z Z Z Z Z Z Z Z Z Z Z Z ",
"o o o o o o o o o o o o o o o o R o o o o o o o o o o o o o o o o o o o o o o o o o o o o o o o Z o o o o o o o o o o o o o o o ",
"| | | | | | | | | | | | | | | | & | | | | | | | | | | | | | | | | | | | | | | | | | | | | | | | & | | | | | | | | | | | | | | | ",
"| | | | | | | | | | | | | | | | m | | | | | | | | | | | | | | | | | | | | | | | | | | | | | | | m | | | | | | | | | | | | | | | ",
"| | | | | | | | | | | | | | | | m | | | | | | | | | | | | | | | | | | | | | | | | | | | | | | | m | | | | | | | | | | | | | | | ",
"| | | | | | | | | | | | | | | | m | | | | | | | | | | | | | | | | | | | | | | | | | | | | | | | m | | | | | | | | | | | | | | | ",
"................................m ..............................................................m ..............................",
"A A A A A A A A A A A A A A A A m A A A A A A A A A A A A A A A A A A A A A A A A A A A A A A A m A A A A A A A A A A A A A A A ",
"A A A A A A A A A A A A A A A A m A A A A A A A A A A A A A A A A A A A A A A A A A A A A A A A m A A A A A A A A A A A A A A A ",
"A A A A A A A A A A A A A A A A   A A A A A A A A A A A A A A A A A A A A A A A A A A A A A A A   A A A A A A A A A A A A A A A ",
"                                                                                                                                "
};
