/* XPM */
static char *result[] = {
/* columns rows colors chars-per-pixel */
"64 64 100 2 ",
"   c #4F2913",
".  c #4F311E",
"X  c #53321E",
"o  c #56321C",
"O  c #4F3625",
"+  c #543523",
"@  c #543624",
"#  c #553726",
"$  c #553827",
"%  c #5A3B27",
"&  c #5E3B25",
"*  c #563B2A",
"=  c #563D2C",
"-  c #573C2D",
";  c #573D2D",
":  c #573E2E",
">  c #593D2A",
",  c #573F30",
"<  c #583F30",
"1  c #5B4231",
"2  c #584132",
"3  c #594133",
"4  c #5E4532",
"5  c #5A4335",
"6  c #5A4336",
"7  c #5A4436",
"8  c #5A4437",
"9  c #5B4639",
"0  c #5A4739",
"q  c #5B473A",
"w  c #5B483B",
"e  c #5B493C",
"r  c #5C493D",
"t  c #5C4B3E",
"y  c #5C4B3F",
"u  c #624937",
"i  c #5C4B40",
"p  c #5C4D41",
"a  c #5D4D41",
"s  c #5D4D42",
"d  c #5D4E42",
"f  c #5D4E43",
"g  c #5D4F43",
"h  c #5E4F44",
"j  c #5E4F45",
"k  c #5A5046",
"l  c #5D5044",
"z  c #5C5147",
"x  c #5E5146",
"c  c #5C5247",
"v  c #5D5247",
"b  c #5D5248",
"n  c #5F5349",
"m  c #655444",
"M  c #665444",
"N  c #675544",
"B  c #615851",
"V  c #655C55",
"C  c #655D56",
"Z  c #665F58",
"A  c #666057",
"S  c #676159",
"D  c #676259",
"F  c #68625A",
"G  c #68635A",
"H  c #69635B",
"J  c #69645B",
"K  c #69645C",
"L  c #6A645C",
"P  c #6A655C",
"I  c #6B655D",
"U  c #6A665C",
"Y  c #6B665D",
"T  c #6B675D",
"R  c #6B665E",
"E  c #6C665E",
"W  c #6C675E",
"Q  c #6C675F",
"!  c #6C685E",
"~  c #6C685F",
"^  c #6D685F",
"/  c #6D695F",
"(  c #6D6860",
")  c #6D6960",
"_  c #6E6A61",
"`  c #6F6A62",
"'  c #6F6B62",
"]  c #706B62",
"[  c #706B63",
"{  c #706C63",
"}  c #746F67",
"|  c #767469",
" . c #868579",
".. c #86847B",
"X. c #88877B",
"o. c #918F88",
"O. c #929088",
"+. c #94928B",
"@. c #99978F",
"#. c None",
/* pixels */
"  A A A ..| | | | o Z Z Z Z Z Z Z Q n Z Z Z Z Z Z Z K w S S S S S S S ^ x S S c c c c c c   S S D H J P P T W ^ ^ ^ / o. . . .% ",
"  A A A ..| | | | o Z Z Z Z Z Z Z Q n Z Z Z Z Z Z Z K w S S S S S S S ^ x S S c c c c c c   S S D H J P P Y W ! ^ ^ / o. . . .% ",
"  A A A ..| | | | o Z Z Z Z Z Z Z Q n Z Z Z Z Z Z Z K w S S S S S S S ^ x S S c c c c c c   S S D H L P P Y W ! ^ ^ / o. . . .% ",
"  A A A ..| | | | o Z Z Z Z Z Z Z Q t C Z Z Z Z Z Z K - S S S S S S S ^ x S S c c c c c c   S S D H J P P Y W ! ^ ^ ^ o. . . .% ",
"  A A A ..| | | | o Z Z Z Z Z Z Z Q t Z Z Z Z Z Z Z K - S S S S S S S ^ x S S c c c c c c   S S D H J P P Y W ! ^ ^ ^ o. . . .% ",
"  A A A ..| | | | o Z Z Z Z Z Z Z Q e Z Z Z Z Z Z Z K @ S S S S S S S ^ a S S c c c c c c   S S D H J P P Y W ! ^ ^ ^ o. . . .% ",
"  A A A ..| | | | o : ; 2 n x t t t t Z Z Z Z Z Z Z K + , 2 a a a a a a a S S c c c c c c   S S D H J P P Y W ! ^ ^ ^ o. . . .% ",
"  A A A ..| | | | o Q Q Q Q Q Q Q } t Z Z Z Z Z Z Z K # S S S S S S S Q a S S c c c c c c   S S F H J P P Y W ! ^ ^ ^ o. . . .% ",
"  A A A ..| | | | o Q Q Q Q Q Q Q } l Z Z Z Z Z Z Z K - S S S S S S S Q x S S c c c c c c   S S D H J P P Y W ! ! ^ ^ o. . . .% ",
"  A A A ..| | | | o Q Q Q Q Q Q Q } l Z Z Z Z Z Z Z K n S S S S S S S Q x S S c c c c c c   S S F H J P P Y W ! ! ^ ^ o. . . .% ",
"  A A A ..| | | | o Q Q Q Q Q Q Q } l Z Z Z Z Z Z Z K n S S S S S S S Q x S S c c c c c c   S S F H J P P Y W ! ! ^ / o. . . .% ",
"  A A A ..| | | | o Q Q Q Q Q Q Q } l Z Z Z Z Z Z Z K n S S S S S S S Q n S S c c c c c c   S S F H J P P Y T W ! ^ / O. . . .% ",
"  A A A ..| | | | o Q Q Q Q Q Q Q } g Z Z Z Z Z Z Z K n S S S S S S S Q n S S c c c c c c   S S G H J P I Y T W ! ^ / +. . . .% ",
"  A A A ..| | | | o Q Q Q Q Q Q Q } f Z Z Z Z Z Z Z K n S S S S S S S Q n S S c c c c c c   S S G H J P I Y T W ! / / @. . . .% ",
"  A A A ..| | | | o Q Q Q Q Q Q Q } d Z Z Z Z Z Z Z K n S S S S S S S Q n S S c c c c c c   S S G G J L I Y T W W ^ / @. . .X.% ",
"  A A A ..| | | | o Q Q Q Q Q Q Q } d Z Z Z Z Z Z Z K n S S S S S S S Q n S S c c c c c c   S S F G J P I Y T W W ^ ^ @. . . .% ",
"    m m m m m m & R Q Q Q Q Q Q Q } d Z Z Z Z Z Z Z ~ n S S S S S S S Q n S S c c c c c c c   X X X X X > 1 1 1 1 1 1 M N u 4 #.",
"  A A A ..| | | | o Q Q Q Q Q Q Q } d Z Z Z Z Z Z Z ~ n S S S S S S S Q n S S c c c c c c   S S F G H J I Y Y W ^ ^ ^ +. . . .% ",
"  A A A ..| | | | o Q Q Q Q Q Q Q } d Z Z Z Z Z Z Z ~ n S S S S S S S Q n S S c c c c c c   S S F G H J I Y Y W ! ^ ^ @. . . .% ",
"  A A A ..| | | | o Q Q Q Q Q Q Q } s Z Z Z Z Z Z Z ~ n S S S S S S S Q 2 S S c c c c c c   S S F G H J P Y Y W ! ! ^ @. . . .% ",
"  A A A ..| | | | o Q Q Q Q Q Q Q } + Z Z Z Z Z Z Z ~ 0 S S S S S S S Q 2 S S c c c c c c   S S F G H J L Y Y W W ! ! @. . . .% ",
"  A A A ..| | | | o Q Q Q Q Q Q Q } + Z Z Z Z Z Z Z Q w S S S S S S S Q = S S c c c c c c   S S F G H J L Y Y W W ! ^ +. . . .% ",
"  A A A ..| | | | o Q Q Q Q Q Q Q } + Z Z Z Z Z Z Z W e S S S S S S S Q * S S c c c c c c   S S F G H J L I Y T ! ^ ^ +. . . .% ",
"  A A A ..| | | | o Q Q Q Q Q Q Q } + + + h j j r y i s S S S S S S S Q # @ 2 O O O O . .   S S F G J J L I Y T ! ^ ^ +. . . .% ",
"  A A A ..| | | | o Q Q Q Q Q Q Q } + Z Z Z C V Z Z Q e S S S S S S S Q $ B B k k k k k k   S S F G J J L P Y W ! ^ ^ +. . . .% ",
"  A A A ..| | | | o Q Q Q Q Q Q Q } + Z Z Z Z Z Z Z Q e S S S S S S S Q $ B B k k k k k k   S S F G J J L P Y W W ! ^ +. . . .% ",
"  A A A ..| | | | o Q Q Q Q Q Q Q } p Z Z Z Z Z Z Z Q q S S S S S S S Q $ B B k k k k k k   S S G G J J L P Y W W W W +. . . .% ",
"  A A A ..| | | | o Q Q Q Q Q Q Q } p Z Z Z Z Z Z Z Q n S S S S S S S Q 3 B B k k k k k k   S S G G J J L P Y W W W ! +. . . .% ",
"  A A A ..| | | | o Q Q Q Q Q Q Q } p Z Z Z Z Z Z Z Q n S S S S S S S Q 3 B B k k k k k k   S S F G J J P U Y W W W ! +. . . .% ",
"  A A A ..| | | | o Q Q Q Q Q Q Q } p Z Z Z Z Z Z Z Q n S S S S S S S Q 6 B B k k k k k k   S S G G J J P U Y E W W ! +. . . .% ",
"  A A A ..| | | | o Q Q Q Q Q Q Q } p Z Z Z Z Z Z Z Q n S S S S S S S ( 5 B B k k k k k k   S S G H J J P U Y Y W W ! +. . . .% ",
"  A A A ..| | | | o Q Q Q Q Q Q Q } p Z Z Z Z Z Z Z Q n S S S S S S S ' 6 B B k k k k k k   S S G H J J P U Y Y W W ! +. . . .% ",
"  A A A ..| | | | o Q Q Q Q Q Q Q } n Z Z Z Z Z Z Z K w S S S S S S S { 7 B B k k k k k k   S S D H J P P T W ^ ^ ^ / o. . . .% ",
"  A A A ..| | | | o Q Q Q Q Q Q Q } n Z Z Z Z Z Z Z K w S S S S S S S { 8 B B k k k k k k   S S D H J P P Y W ! ^ ^ / o. . . .% ",
"  A A A ..| | | | o Q Q Q Q Q Q Q } n Z Z Z Z Z Z Z K w S S S S S S S { 8 B B k k k k k k   S S D H L P P Y W ! ^ ^ / o. . . .% ",
"  A A A ..| | | | o Q Q Q Q Q Q Q } t C Z Z Z Z Z Z K - S S S S S S S ] 8 B B k k k k k k   S S D H J P P Y W ! ^ ^ ^ o. . . .% ",
"  A A A ..| | | | o Q Q Q Q Q Q Q } t Z Z Z Z Z Z Z K - S S S S S S S ] 9 B B k k k k k k   S S D H J P P Y W ! ^ ^ ^ o. . . .% ",
"  A A A ..| | | | o Q Q Q Q Q Q Q } e Z Z Z Z Z Z Z K @ S S S S S S ) 2 B B B k k k k k k   S S D H J P P Y W ! ^ ^ ^ o. . . .% ",
"  A A A ..| | | | o : ; 2 n x t t t t Z Z Z Z Z Z Z K + , 2 2 2 2 2 2 B B B B k k k k k k   S S D H J P P Y W ! ^ ^ ^ o. . . .% ",
"  A A A ..| | | | o Z Z Z Z Z Z Z Q t Z Z Z Z Z Z Z K # S S S S S ` 2 B B B B k k k k k k   S S F H J P P Y W ! ^ ^ ^ o. . . .% ",
"  A A A ..| | | | o Z Z Z Z Z Z Z Q l Z Z Z Z Z Z Z K - S S S S S S _ 2 B B B k k k k k k   S S D H J P P Y W ! ! ^ ^ o. . . .% ",
"  A A A ..| | | | o Z Z Z Z Z Z Z Q l Z Z Z Z Z Z Z K n S S S S S S S ` 2 B B k k k k k k   S S F H J P P Y W ! ! ^ ^ o. . . .% ",
"  A A A ..| | | | o Z Z Z Z Z Z Z Q l Z Z Z Z Z Z Z K n S S S S S S S [ x B B k k k k k k   S S F H J P P Y W ! ! ^ / o. . . .% ",
"  A A A ..| | | | o Z Z Z Z Z Z Z Q l Z Z Z Z Z Z Z K n S S S S S S S ' n B B k k k k k k   S S F H J P P Y T W ! ^ / O. . . .% ",
"  A A A ..| | | | o Z Z Z Z Z Z Z Q g Z Z Z Z Z Z Z K n S S S S S S S Q n B B k k k k k k   S S G H J P I Y T W ! ^ / +. . . .% ",
"  A A A ..| | | | o Z Z Z Z Z Z Z Q f Z Z Z Z Z Z Z K n S S S S S S S Q n B B k k k k k k   S S G H J P I Y T W ! / / @. . . .% ",
"  A A A ..| | | | o Z Z Z Z Z Z Z Q d Z Z Z Z Z Z Z K n S S S S S S S Q n B B k k k k k k   S S G G J L I Y T W W ^ / @. . .X.% ",
"  A A A ..| | | | o Z Z Z Z Z Z Z Q d Z Z Z Z Z Z Z K n S S S S S S S Q n B B k k k k k k   S S F G J P I Y T W W ^ ^ @. . . .% ",
"    m m m m m m & Z Z Z Z Z Z Z Z Q d Z Z Z Z Z Z Z ~ n S S S S S S S Q n B B k k k k k k k   X X X X X > 1 1 1 1 1 1 M N u 4 #.",
"  A A A ..| | | | o Z Z Z Z Z Z Z Q d Z Z Z Z Z Z Z ~ n S S S S S S S Q n B B k k k k k k   S S F G H J I Y Y W ^ ^ ^ +. . . .% ",
"  A A A ..| | | | o Z Z Z Z Z Z Z Q d Z Z Z Z Z Z Z ~ n S S S S S S S Q n B B k k k k k k   S S F G H J I Y Y W ! ^ ^ @. . . .% ",
"  A A A ..| | | | o Z Z Z Z Z Z Z Q s Z Z Z Z Z Z Z ~ n S S S S S S S Q 2 B B k k k k k k   S S F G H J P Y Y W ! ! ^ @. . . .% ",
"  A A A ..| | | | o Z Z Z Z Z Z Z Q + Z Z Z Z Z Z Z ~ 0 S S S S S S S Q 2 B B k k k k k k   S S F G H J L Y Y W W ! ! @. . . .% ",
"  A A A ..| | | | o Z Z Z Z Z Z Z Q + Z Z Z Z Z Z Z Q w S S S S S S S Q = B B k k k k k k   S S F G H J L Y Y W W ! ^ +. . . .% ",
"  A A A ..| | | | o Z Z Z Z Z Z Z Q + Z Z Z Z Z Z Z W e S S S S S S S Q * B B k k k k k k   S S F G H J L I Y T ! ^ ^ +. . . .% ",
"  A A A ..| | | | o Z Z Z Z Z Z Z Q + + + h j j r y i s S S S S S S S Q # @ 2 O O O O . .   S S F G J J L I Y T ! ^ ^ +. . . .% ",
"  A A A ..| | | | o Z Z Z Z Z Z Z Q + Z Z Z C V Z Z Q e S S S S S S S Q $ S S z c c c c z   S S F G J J L P Y W ! ^ ^ +. . . .% ",
"  A A A ..| | | | o Z Z Z Z Z Z Z Q + Z Z Z Z Z Z Z Q e S S S S S S S Q < S S z c c c c z   S S F G J J L P Y W W ! ^ +. . . .% ",
"  A A A ..| | | | o Z Z Z Z Z Z Z Q p Z Z Z Z Z Z Z Q q S S S S S S S Q n S S c c c v v c   S S G G J J L P Y W W W W +. . . .% ",
"  A A A ..| | | | o Z Z Z Z Z Z Z Q p Z Z Z Z Z Z Z Q n S S S S S S S Q n S S v v v v v v   S S G G J J L P Y W W W ! +. . . .% ",
"  A A A ..| | | | o Z Z Z Z Z Z Z Q p Z Z Z Z Z Z Z Q n S S S S S S S Q n S S v v v v v v   S S F G J J P U Y W W W ! +. . . .% ",
"  A A A ..| | | | o Z Z Z Z Z Z Z Q p Z Z Z Z Z Z Z Q n S S S S S S S Q n S S v v v v v v   S S G G J J P U Y E W W ! +. . . .% ",
"  A A A ..| | | | o Z Z Z Z Z Z Z Q p Z Z Z Z Z Z Z Q n S S S S S S S Q n S S v v v v v v   S S G H J J P U Y Y W W ! +. . . .% ",
"  A A A ..| | | | o Z Z Z Z Z Z Z Q p Z Z Z Z Z Z Z Q n S S S S S S S Q n S S v b b b b b   S S G H J J P U Y Y W W ! +. . . .% "
};
