/* XPM */
static char *result[] = {
/* columns rows colors chars-per-pixel */
"64 64 91 1 ",
"  c #4F2913",
". c #4F311E",
"X c #53321E",
"o c #56321C",
"O c #4F3625",
"+ c #543523",
"@ c #543624",
"# c #553726",
"$ c #553827",
"% c #5A3B27",
"& c #563B2A",
"* c #563D2C",
"= c #573C2D",
"- c #573D2D",
"; c #573E2E",
": c #593D2A",
"> c #573F30",
", c #583F30",
"< c #5B4231",
"1 c #584132",
"2 c #5E4532",
"3 c #5A4437",
"4 c #5B4639",
"5 c #5A4739",
"6 c #5B473A",
"7 c #5B483B",
"8 c #5B493C",
"9 c #5C493D",
"0 c #5C4B3E",
"q c #5C4B3F",
"w c #624937",
"e c #5C4B40",
"r c #5C4D41",
"t c #5D4D41",
"y c #5D4D42",
"u c #5D4E42",
"i c #5D4E43",
"p c #5D4F43",
"a c #5E4F44",
"s c #5E4F45",
"d c #5A5046",
"f c #5D5044",
"g c #5C5147",
"h c #5E5146",
"j c #5C5247",
"k c #5D5247",
"l c #5D5248",
"z c #5F5349",
"x c #665444",
"c c #675544",
"v c #615851",
"b c #655C55",
"n c #655D56",
"m c #665F58",
"M c #666057",
"N c #676159",
"B c #676259",
"V c #68625A",
"C c #68635A",
"Z c #69635B",
"A c #69645B",
"S c #69645C",
"D c #6A645C",
"F c #6A655C",
"G c #6B655D",
"H c #6A665C",
"J c #6B665D",
"K c #6B675D",
"L c #6C665E",
"P c #6C675E",
"I c #6C675F",
"U c #6C685E",
"Y c #6C685F",
"T c #6D685F",
"R c #6D695F",
"E c #6D6960",
"W c #6E6A61",
"Q c #6F6A62",
"! c #6F6B62",
"~ c #706B62",
"^ c #706B63",
"/ c #746F67",
"( c #767469",
") c #868579",
"_ c #86847B",
"` c #88877B",
"' c #918F88",
"] c #929088",
"[ c #94928B",
"{ c #99978F",
"} c None",
/* pixels */
"%%%%%%%%%%%%%%%%%%}%%%%%%%%%%%%%%%%%%%%%%%%%%%%%}%%%%%%%%%%%%%%%",
"%))))))))))))))`))2)))))))))))))))))))))))))))))2)))))))))))))`)",
"%)))))))))))))))))w)))))))))))))))))))))))))))))w)))))))))))))))",
"%)))))))))))))))))c)))))))))))))))))))))))))))))c)))))))))))))))",
"%)))['''''''][{{{'x[[{{{[[[[[[[[[[['''''''''''][x''''''''''][{{{",
"%)))[RRRTTTTTTTRRR<TTTTUTTTTTPUUUUURRRTTTTTTTRRR<RRTTTTTTTRRRRRT",
"%)))[TTTTTTTTTTTTT<TTTUUUTTTUPPPPPPTTTTTTTTTTTTT<TTTTTTTTTTTTRTT",
"%)))[TTTTTTTTUUUUT<TTUUPPUUUPPPPPPPTTTTTTTTUUUUU<TTTTTTTUUUUUUPP",
"%)))[TUUUUUUUUUUPT<PPPPPPKKPPPPPLJJTUUUUUUUUUUPP<UUUUUUUUUUPPPPP",
"%)))[PPPPPPPPPPPKP<JJJJJJJJJJJJJJJJPPPPPPPPPPPKK<PPPPPPPPPPKKKKK",
"%)))[KJJJJJJJJJJJK<JJJJJJGGFFFFHHHHKJJJJJJJJJJJJ<JJJJJJJJJJJJJJJ",
"%))){FFFFFFFFFFFFF:GGGFDDDDDDDDFFFFFFFFFFFFFFFFG:FFFFFFFFFFFGGGG",
"%))){FFFFFFFFFFFFFXAAAAAAAAAAAAAAAAFFFFFFFFFFFFFXFFFFFFFFFFFFFDF",
"%))){AADAAAAAAAAAAXZZZZZZZAAAAAAAAAAADAAAAAAAAAAXADAAAAAAAAAAAAA",
"%)))[ZZZZZZZZZZZZZXCCCCCCCCCCCCCCZZZZZZZZZZZZZZZXZZZZZZZZZZZZZCC",
"%)))[UPPJJHFAAZCNBXVVVVVVVVVVCCVCCCBBBBBBBVBVVVCXBBBBBBVBVVVCCCV",
"%)))[UPPJJHFAAZCNNXNNNNNNNNNNNNNNNNNNNNNNNNNNNNNXNNNNNNNNNNNNNNN",
"%)))[UPPLJHFAACCNN NNNNNNNNNNNNNNNNNNNNNNNNNNNNN NNNNNNNNNNNNNNN",
"}2wcx<<<<<<:XXXXX                               j               ",
"%))){TTPPKJGFACVNN dddddddddddddddddddd.ggjkkkkljjjjjjjjjjjjjjjj",
"%`)){RTPPKJGDACCNN dddddddddddddddddddd.jjkkkkkljjjjjjjjjjjjjjjj",
"%))){RRUPKJGFAZCNN ddddddddddddddddddddOjjkkkkkljjjjjjjjjjjjjjjj",
"%)))[RTUPKJGFAZCNN ddddddddddddddddddddOjjjkkkkljjjjjjjjjjjjjjjj",
"%)))]RTUPKJFFAZVNN ddddddddddddddddddddOjjjkkkkljjjjjjjjjjjjjjjj",
"%)))'RTUUPJFFAZVNN ddddddddddddddddddddOggjkkkkkjjjjjjjjjjjjjjjj",
"%)))'TTUUPJFFAZVNN vvvvvvvvvvvvvvvvvvvv1NNNNNNNNNNNNNNNNNNNNNNNN",
"%)))'TTUUPJFFAZBNN vvvvvvvvvvvvvvvvvvvv@NNNNNNNNNNNNNNNNNNNNNNNN",
"%)))'TTTUPJFFAZVNN 34vvvv1hzzzzzzzz11*&#$,zzzzzzzhhhhttthhhzzzzz",
"%)))'TTTUPJFFAZBNN ~~1vv1Q^!IIIIIIIIIIIIIIIIIIIIITTTTTtIIIIIIIII",
"%)))'TTTUPJFFAZBNN NNE11WNNNNNNNNNNNNNNNNNNNNNNNNNNNNNtNNNNNNNNN",
"%)))'TTTUPJFFAZBNN NNN1QNNNNNNNNNNNNNNNNNNNNNNNNNNNNNNtNNNNNNNNN",
"%)))'TTTUPJFFAZBNN NNN1NNNNNNNNNNNNNNNNNNNNNNNNNNNNNNNtNNNNNNNNN",
"%)))'RTTUPJFFDZBNN NNN1NNNNNNNNNNNNNNNNNNNNNNNNNNNNNNNtNNNNNNNNN",
"%)))'RTTUPJFFAZBNN NNN1NNNNNNNNNNNNNNNNNNNNNNNNNNNNNNNtNNNNNNNNN",
"%)))'RTTTPKFFAZBNN NNN1NNNNNNNNNNNNNNNNNNNNNNNNNNNNNNN1NNNNNNNNN",
"%)))[UPPJJHFAAZCNN NNN>NNNNNNNNNNNNNNNNNNNNNNNNNNNNNNN>NNNNNNNNN",
"%)))[UPPJJHFAAZCNN ==@+#=zzzzzzzzzzz578y886zzzzzz77==@+#=zzzzzzz",
"%)))[UPPLJHFAACCNN SSSSSSSSSSSSSYYYYYIPeIIIIIIIIYSSSSSSSSSSSSSSS",
"%)))[UPPPJHFAACVNN mmmmmmmmmmmmmmmmmmmmqmmmmmmmmmmmmmmmmmmmmmmmm",
"%)))[UPPPJFDAACCNN mmmmmmmmmmmmmmmmmmmm9mmmmmmmmmmmmmmmmmmmmmmmm",
"%)))[PPPPJFDAACCNN mmmmmmmmmmmmmmmmmmmmsbmmmmmmmmmmmmmmmmmmmmmmm",
"%)))[TUPPJFDAACVNN mmmmmmmmmmmmmmmmmmmmsnmmmmmmmmmmmmmmmmmmmmmmm",
"%)))[TTUPJFDAACVNN mmmmmmmmmmmmmmmmmmmmammmmmmmmmmmmmmmmmmmmmmmm",
"%)))[TTUKJGDAACVNN mmmmmmmmmmmmmmmmmmmm+mmmmmmmmmmmmmmmmmmmmmmmm",
"%)))[TTUKJGDAZCVNN nmmmmmmmmmmmmmmmmmmm+mmmmmmmmmmmnmmmmmmmmmmmm",
"%)))[TUPPJJDAZCVNN 00800ffffpiuuuuuy++++++rrrrrruzz00800ffffpiuu",
"%))){UUPPJJDAZCVNN lllllkNNzINNNNNNNzImmmmmmmrIm/IIIII0/////////",
"}2wcx<<<<<<:XXXXX dkkkkkkNNzINNNNNNNzImmmmmmmrImImmmmm0IIIIIIIII",
"%))){TTPPKJGFACVNN kkkkkkNNzINNNNNNNzImmmmmmmrImImmmmm0IIIIIIIII",
"%`)){RTPPKJGDACCNN kkkkkkNNzINNNNNNNzImmmmmmmrImImmmmmhIIIIIIIII",
"%))){RRUPKJGFAZCNN kkkkkkNNzINNNNNNNzImmmmmmmrImImmmmmzIIIIIIIII",
"%)))[RTUPKJGFAZCNN jkkjjjNNzINNNNNNN6ImmmmmmmrImImmmmm1IIIIIIIII",
"%)))]RTUPKJFFAZVNN gjjjjgNN,INNNNNNN8Immmmmmm+ImImmmmm-IIIIIIIII",
"%)))'RTUUPJFFAZVNN gjjjjgNN$INNNNNNN8Immbnmmm+ImImmmmm;IIIIIIIII",
"%)))'TTUUPJFFAZVNN ..OOOO1@#INNNNNNNyeq9ssa+++Immmmmmmoooooooooo",
"%)))'TTUUPJFFAZBNN kkkkkkNNzINNNNNNNzImmmmmmmrImmmmmmmo(((((((((",
"%)))'TTTUPJFFAZVNN kkkkkkNNzINNNNNNNzImmmmmmmrImmmmmmmo(((((((((",
"%)))'TTTUPJFFAZBNN kkkkkkNNzINNNNNNNzImmmmmmmrImmmmmmmo(((((((((",
"%)))'TTTUPJFFAZBNN kkkkkkNNzINNNNNNNzImmmmmmmrImmmmmmmo(((((((((",
"%)))'TTTUPJFFAZBNN jkkjjjNNzINNNNNNN6ImmmmmmmrImmmmmmmo((((_____",
"%)))'TTTUPJFFAZBNN gjjjjgNN,INNNNNNN8Immmmmmm+Immmmmmmo((((_MMMM",
"%)))'RTTUPJFFDZBNN gjjjjgNN$INNNNNNN8Immbnmmm+Immmmmmmo((((_MMMM",
"%)))'RTTUPJFFAZBNN ..OOOO1@#INNNNNNNyeq9ssa+++Immmmmmmo((((_MMMM",
"%)))[UPPJJHFAAZCNN lllllkNNzINNNNNNNzImmmmmmmrImmmmmmmo((((_MMM "
};
