/* XPM */
static char *result[] = {
/* columns rows colors chars-per-pixel */
"64 64 100 2 ",
"   c #4F2913",
".  c #4F311E",
"X  c #53321E",
"o  c #56321C",
"O  c #4F3625",
"+  c #543523",
"@  c #543624",
"#  c #553726",
"$  c #553827",
"%  c #5A3B27",
"&  c #5E3B25",
"*  c #563B2A",
"=  c #563D2C",
"-  c #573C2D",
";  c #573D2D",
":  c #573E2E",
">  c #593D2A",
",  c #573F30",
"<  c #583F30",
"1  c #5B4231",
"2  c #584132",
"3  c #594133",
"4  c #5E4532",
"5  c #5A4335",
"6  c #5A4336",
"7  c #5A4436",
"8  c #5A4437",
"9  c #5B4639",
"0  c #5A4739",
"q  c #5B473A",
"w  c #5B483B",
"e  c #5B493C",
"r  c #5C493D",
"t  c #5C4B3E",
"y  c #5C4B3F",
"u  c #624937",
"i  c #5C4B40",
"p  c #5C4D41",
"a  c #5D4D41",
"s  c #5D4D42",
"d  c #5D4E42",
"f  c #5D4E43",
"g  c #5D4F43",
"h  c #5E4F44",
"j  c #5E4F45",
"k  c #5A5046",
"l  c #5D5044",
"z  c #5C5147",
"x  c #5E5146",
"c  c #5C5247",
"v  c #5D5247",
"b  c #5D5248",
"n  c #5F5349",
"m  c #655444",
"M  c #665444",
"N  c #675544",
"B  c #615851",
"V  c #655C55",
"C  c #655D56",
"Z  c #665F58",
"A  c #666057",
"S  c #676159",
"D  c #676259",
"F  c #68625A",
"G  c #68635A",
"H  c #69635B",
"J  c #69645B",
"K  c #69645C",
"L  c #6A645C",
"P  c #6A655C",
"I  c #6B655D",
"U  c #6A665C",
"Y  c #6B665D",
"T  c #6B675D",
"R  c #6B665E",
"E  c #6C665E",
"W  c #6C675E",
"Q  c #6C675F",
"!  c #6C685E",
"~  c #6C685F",
"^  c #6D685F",
"/  c #6D695F",
"(  c #6D6860",
")  c #6D6960",
"_  c #6E6A61",
"`  c #6F6A62",
"'  c #6F6B62",
"]  c #706B62",
"[  c #706B63",
"{  c #706C63",
"}  c #746F67",
"|  c #767469",
" . c #868579",
".. c #86847B",
"X. c #88877B",
"o. c #918F88",
"O. c #929088",
"+. c #94928B",
"@. c #99978F",
"#. c None",
/* pixels */
"%  . . .+.! W W Y Y U P J J H G S S   b b b b b v S S n Q S S S S S S S n Q Z Z Z Z Z Z Z p Q Z Z Z Z Z Z Z o | | | | ..A A A   ",
"%  . . .+.! W W Y Y U P J J H G S S   v v v v v v S S n Q S S S S S S S n Q Z Z Z Z Z Z Z p Q Z Z Z Z Z Z Z o | | | | ..A A A   ",
"%  . . .+.! W W E Y U P J J G G S S   v v v v v v S S n Q S S S S S S S n Q Z Z Z Z Z Z Z p Q Z Z Z Z Z Z Z o | | | | ..A A A   ",
"%  . . .+.! W W W Y U P J J G F S S   v v v v v v S S n Q S S S S S S S n Q Z Z Z Z Z Z Z p Q Z Z Z Z Z Z Z o | | | | ..A A A   ",
"%  . . .+.! W W W Y P L J J G G S S   v v v v v v S S n Q S S S S S S S n Q Z Z Z Z Z Z Z p Q Z Z Z Z Z Z Z o | | | | ..A A A   ",
"%  . . .+.W W W W Y P L J J G G S S   c v v c c c S S n Q S S S S S S S q Q Z Z Z Z Z Z Z p Q Z Z Z Z Z Z Z o | | | | ..A A A   ",
"%  . . .+.^ ! W W Y P L J J G F S S   z c c c c z S S < Q S S S S S S S e Q Z Z Z Z Z Z Z + Q Z Z Z Z Z Z Z o | | | | ..A A A   ",
"%  . . .+.^ ^ ! W Y P L J J G F S S   z c c c c z S S $ Q S S S S S S S e Q Z Z V C Z Z Z + Q Z Z Z Z Z Z Z o | | | | ..A A A   ",
"%  . . .+.^ ^ ! T Y I L J J G F S S   . . O O O O 2 @ # Q S S S S S S S s i y r j j h + + + Q Z Z Z Z Z Z Z o | | | | ..A A A   ",
"%  . . .+.^ ^ ! T Y I L J H G F S S   k k k k k k B B * Q S S S S S S S e W Z Z Z Z Z Z Z + Q Z Z Z Z Z Z Z o | | | | ..A A A   ",
"%  . . .+.^ ! W W Y Y L J H G F S S   k k k k k k B B = Q S S S S S S S w Q Z Z Z Z Z Z Z + Q Z Z Z Z Z Z Z o | | | | ..A A A   ",
"%  . . .@.! ! W W Y Y L J H G F S S   k k k k k k B B 2 Q S S S S S S S 0 ~ Z Z Z Z Z Z Z + Q Z Z Z Z Z Z Z o | | | | ..A A A   ",
"%  . . .@.^ ! ! W Y Y P J H G F S S   k k k k k k B B 2 Q S S S S S S S n ~ Z Z Z Z Z Z Z s Q Z Z Z Z Z Z Z o | | | | ..A A A   ",
"%  . . .@.^ ^ ! W Y Y I J H G F S S   k k k k k k B B n Q S S S S S S S n ~ Z Z Z Z Z Z Z d Q Z Z Z Z Z Z Z o | | | | ..A A A   ",
"%  . . .+.^ ^ ^ W Y Y I J H G F S S   k k k k k k B B n Q S S S S S S S n ~ Z Z Z Z Z Z Z d Q Z Z Z Z Z Z Z o | | | | ..A A A   ",
"#.4 u N M 1 1 1 1 1 1 > X X X X X   k k k k k k k B B n Q S S S S S S S n ~ Z Z Z Z Z Z Z d Q Z Z Z Z Z Z Z Z & m m m m m m     ",
"%  . . .@.^ ^ W W T Y I P J G F S S   k k k k k k B B n Q S S S S S S S n K Z Z Z Z Z Z Z d Q Z Z Z Z Z Z Z o | | | | ..A A A   ",
"% X. . .@./ ^ W W T Y I L J G G S S   k k k k k k B B n Q S S S S S S S n K Z Z Z Z Z Z Z d Q Z Z Z Z Z Z Z o | | | | ..A A A   ",
"%  . . .@./ / ! W T Y I P J H G S S   k k k k k k B B n Q S S S S S S S n K Z Z Z Z Z Z Z f Q Z Z Z Z Z Z Z o | | | | ..A A A   ",
"%  . . .+./ ^ ! W T Y I P J H G S S   k k k k k k B B n Q S S S S S S S n K Z Z Z Z Z Z Z g Q Z Z Z Z Z Z Z o | | | | ..A A A   ",
"%  . . .O./ ^ ! W T Y P P J H F S S   k k k k k k B B n ' S S S S S S S n K Z Z Z Z Z Z Z l Q Z Z Z Z Z Z Z o | | | | ..A A A   ",
"%  . . .o./ ^ ! ! W Y P P J H F S S   k k k k k k B B x [ S S S S S S S n K Z Z Z Z Z Z Z l Q Z Z Z Z Z Z Z o | | | | ..A A A   ",
"%  . . .o.^ ^ ! ! W Y P P J H F S S   k k k k k k B B 2 ` S S S S S S S n K Z Z Z Z Z Z Z l Q Z Z Z Z Z Z Z o | | | | ..A A A   ",
"%  . . .o.^ ^ ! ! W Y P P J H D S S   k k k k k k B B B 2 _ S S S S S S - K Z Z Z Z Z Z Z l Q Z Z Z Z Z Z Z o | | | | ..A A A   ",
"%  . . .o.^ ^ ^ ! W Y P P J H F S S   k k k k k k B B B B 2 ` S S S S S # K Z Z Z Z Z Z Z t Q Z Z Z Z Z Z Z o | | | | ..A A A   ",
"%  . . .o.^ ^ ^ ! W Y P P J H D S S   k k k k k k B B B B 2 2 2 2 2 2 , + K Z Z Z Z Z Z Z t t t t x n 2 ; : o | | | | ..A A A   ",
"%  . . .o.^ ^ ^ ! W Y P P J H D S S   k k k k k k B B B 2 ) S S S S S S @ K Z Z Z Z Z Z Z e } Q Q Q Q Q Q Q o | | | | ..A A A   ",
"%  . . .o.^ ^ ^ ! W Y P P J H D S S   k k k k k k B B 9 ] S S S S S S S - K Z Z Z Z Z Z Z t } Q Q Q Q Q Q Q o | | | | ..A A A   ",
"%  . . .o.^ ^ ^ ! W Y P P J H D S S   k k k k k k B B 8 ] S S S S S S S - K Z Z Z Z Z Z C t } Q Q Q Q Q Q Q o | | | | ..A A A   ",
"%  . . .o./ ^ ^ ! W Y P P L H D S S   k k k k k k B B 8 { S S S S S S S w K Z Z Z Z Z Z Z n } Q Q Q Q Q Q Q o | | | | ..A A A   ",
"%  . . .o./ ^ ^ ! W Y P P J H D S S   k k k k k k B B 8 { S S S S S S S w K Z Z Z Z Z Z Z n } Q Q Q Q Q Q Q o | | | | ..A A A   ",
"%  . . .o./ ^ ^ ^ W T P P J H D S S   k k k k k k B B 7 { S S S S S S S w K Z Z Z Z Z Z Z n } Q Q Q Q Q Q Q o | | | | ..A A A   ",
"%  . . .+.! W W Y Y U P J J H G S S   k k k k k k B B 6 ' S S S S S S S n Q Z Z Z Z Z Z Z p } Q Q Q Q Q Q Q o | | | | ..A A A   ",
"%  . . .+.! W W Y Y U P J J H G S S   k k k k k k B B 5 ( S S S S S S S n Q Z Z Z Z Z Z Z p } Q Q Q Q Q Q Q o | | | | ..A A A   ",
"%  . . .+.! W W E Y U P J J G G S S   k k k k k k B B 6 Q S S S S S S S n Q Z Z Z Z Z Z Z p } Q Q Q Q Q Q Q o | | | | ..A A A   ",
"%  . . .+.! W W W Y U P J J G F S S   k k k k k k B B 3 Q S S S S S S S n Q Z Z Z Z Z Z Z p } Q Q Q Q Q Q Q o | | | | ..A A A   ",
"%  . . .+.! W W W Y P L J J G G S S   k k k k k k B B 3 Q S S S S S S S n Q Z Z Z Z Z Z Z p } Q Q Q Q Q Q Q o | | | | ..A A A   ",
"%  . . .+.W W W W Y P L J J G G S S   k k k k k k B B $ Q S S S S S S S q Q Z Z Z Z Z Z Z p } Q Q Q Q Q Q Q o | | | | ..A A A   ",
"%  . . .+.^ ! W W Y P L J J G F S S   k k k k k k B B $ Q S S S S S S S e Q Z Z Z Z Z Z Z + } Q Q Q Q Q Q Q o | | | | ..A A A   ",
"%  . . .+.^ ^ ! W Y P L J J G F S S   k k k k k k B B $ Q S S S S S S S e Q Z Z V C Z Z Z + } Q Q Q Q Q Q Q o | | | | ..A A A   ",
"%  . . .+.^ ^ ! T Y I L J J G F S S   . . O O O O 2 @ # Q S S S S S S S s i y r j j h + + + } Q Q Q Q Q Q Q o | | | | ..A A A   ",
"%  . . .+.^ ^ ! T Y I L J H G F S S   c c c c c c S S * Q S S S S S S S e W Z Z Z Z Z Z Z + } Q Q Q Q Q Q Q o | | | | ..A A A   ",
"%  . . .+.^ ! W W Y Y L J H G F S S   c c c c c c S S = Q S S S S S S S w Q Z Z Z Z Z Z Z + } Q Q Q Q Q Q Q o | | | | ..A A A   ",
"%  . . .@.! ! W W Y Y L J H G F S S   c c c c c c S S 2 Q S S S S S S S 0 ~ Z Z Z Z Z Z Z + } Q Q Q Q Q Q Q o | | | | ..A A A   ",
"%  . . .@.^ ! ! W Y Y P J H G F S S   c c c c c c S S 2 Q S S S S S S S n ~ Z Z Z Z Z Z Z s } Q Q Q Q Q Q Q o | | | | ..A A A   ",
"%  . . .@.^ ^ ! W Y Y I J H G F S S   c c c c c c S S n Q S S S S S S S n ~ Z Z Z Z Z Z Z d } Q Q Q Q Q Q Q o | | | | ..A A A   ",
"%  . . .+.^ ^ ^ W Y Y I J H G F S S   c c c c c c S S n Q S S S S S S S n ~ Z Z Z Z Z Z Z d } Q Q Q Q Q Q Q o | | | | ..A A A   ",
"#.4 u N M 1 1 1 1 1 1 > X X X X X   c c c c c c c S S n Q S S S S S S S n ~ Z Z Z Z Z Z Z d } Q Q Q Q Q Q Q R & m m m m m m     ",
"%  . . .@.^ ^ W W T Y I P J G F S S   c c c c c c S S n Q S S S S S S S n K Z Z Z Z Z Z Z d } Q Q Q Q Q Q Q o | | | | ..A A A   ",
"% X. . .@./ ^ W W T Y I L J G G S S   c c c c c c S S n Q S S S S S S S n K Z Z Z Z Z Z Z d } Q Q Q Q Q Q Q o | | | | ..A A A   ",
"%  . . .@./ / ! W T Y I P J H G S S   c c c c c c S S n Q S S S S S S S n K Z Z Z Z Z Z Z f } Q Q Q Q Q Q Q o | | | | ..A A A   ",
"%  . . .+./ ^ ! W T Y I P J H G S S   c c c c c c S S n Q S S S S S S S n K Z Z Z Z Z Z Z g } Q Q Q Q Q Q Q o | | | | ..A A A   ",
"%  . . .O./ ^ ! W T Y P P J H F S S   c c c c c c S S n Q S S S S S S S n K Z Z Z Z Z Z Z l } Q Q Q Q Q Q Q o | | | | ..A A A   ",
"%  . . .o./ ^ ! ! W Y P P J H F S S   c c c c c c S S x Q S S S S S S S n K Z Z Z Z Z Z Z l } Q Q Q Q Q Q Q o | | | | ..A A A   ",
"%  . . .o.^ ^ ! ! W Y P P J H F S S   c c c c c c S S x Q S S S S S S S n K Z Z Z Z Z Z Z l } Q Q Q Q Q Q Q o | | | | ..A A A   ",
"%  . . .o.^ ^ ! ! W Y P P J H D S S   c c c c c c S S x Q S S S S S S S - K Z Z Z Z Z Z Z l } Q Q Q Q Q Q Q o | | | | ..A A A   ",
"%  . . .o.^ ^ ^ ! W Y P P J H F S S   c c c c c c S S a Q S S S S S S S # K Z Z Z Z Z Z Z t } Q Q Q Q Q Q Q o | | | | ..A A A   ",
"%  . . .o.^ ^ ^ ! W Y P P J H D S S   c c c c c c S S a a a a a a a 2 , + K Z Z Z Z Z Z Z t t t t x n 2 ; : o | | | | ..A A A   ",
"%  . . .o.^ ^ ^ ! W Y P P J H D S S   c c c c c c S S a ^ S S S S S S S @ K Z Z Z Z Z Z Z e Q Z Z Z Z Z Z Z o | | | | ..A A A   ",
"%  . . .o.^ ^ ^ ! W Y P P J H D S S   c c c c c c S S x ^ S S S S S S S - K Z Z Z Z Z Z Z t Q Z Z Z Z Z Z Z o | | | | ..A A A   ",
"%  . . .o.^ ^ ^ ! W Y P P J H D S S   c c c c c c S S x ^ S S S S S S S - K Z Z Z Z Z Z C t Q Z Z Z Z Z Z Z o | | | | ..A A A   ",
"%  . . .o./ ^ ^ ! W Y P P L H D S S   c c c c c c S S x ^ S S S S S S S w K Z Z Z Z Z Z Z n Q Z Z Z Z Z Z Z o | | | | ..A A A   ",
"%  . . .o./ ^ ^ ! W Y P P J H D S S   c c c c c c S S x ^ S S S S S S S w K Z Z Z Z Z Z Z n Q Z Z Z Z Z Z Z o | | | | ..A A A   ",
"%  . . .o./ ^ ^ ^ W T P P J H D S S   c c c c c c S S x ^ S S S S S S S w K Z Z Z Z Z Z Z n Q Z Z Z Z Z Z Z o | | | | ..A A A   "
};
