/* XPM */
static char *result[] = {
/* columns rows colors chars-per-pixel */
"64 64 66 1 ",
"  c black",
". c #0A0502",
"X c #100B07",
"o c #120F0C",
"O c #18100A",
"+ c #191511",
"@ c #26160D",
"# c #231B16",
"$ c #291A11",
"% c #24201C",
"& c #533321",
"* c #563B2A",
"= c #583D2B",
"- c #4C3D32",
"; c #72751B",
": c #59402F",
"> c #554133",
", c #5B4434",
"< c #5C4738",
"1 c #53493F",
"2 c #5D4A3B",
"3 c #614D2C",
"4 c #685F22",
"5 c #695D2B",
"6 c #624734",
"7 c #634C3B",
"8 c #695939",
"9 c #696027",
"0 c #6B6133",
"q c #5F4E42",
"w c #5D5146",
"e c #5D544A",
"r c #625245",
"t c #6A5544",
"y c #62554B",
"u c #685649",
"i c #63594D",
"p c #6B5A4C",
"a c #715D4F",
"s c #645B52",
"d c #6C5F51",
"f c #665F58",
"g c #725E50",
"h c #666057",
"j c #6B6255",
"k c #676159",
"l c #69635B",
"z c #6D695E",
"x c #716355",
"c c #746758",
"v c #76695C",
"b c #7A6C5E",
"n c #6E6961",
"m c #726E65",
"M c #796F61",
"N c #747166",
"B c #7B7164",
"V c #767469",
"C c #79756C",
"Z c #7C786F",
"A c #7D7970",
"S c #817D72",
"D c #868579",
"F c #88877C",
"G c #8A897E",
"H c #8E8C82",
/* pixels */
"00vvgSgaSgBBBMBMBMMMpdBbBmmbMMMMMMBmMMMMmMxxbbMMMMMMBbBmBBccxx95",
"00vvSSSSgSBBBBMBMMMMapMBbBMMMmMMBMbBMMMMBBxxMMMMMMMMMbbBBBcxgd55",
"vvDDSDgSbBBBVVZZZZZZt7AAZZZZZZAACAAAAZZZCAdaZSZZZZCCVCMMBSDDFFpp",
"vvDFSSSSbbBCCVZZZZZZ7tACZZZZZAAAAAAAAZZZAApaZZZZZZCBVCMMSBDDFFat",
"BBDDDD67$$##%%%%%%%%oo%%%%%%%%%%%%%%%%%%%%++%%%%%%%#%###ppDDDDaa",
"SBDSDD66%%#%%$%%%%%%oo%%%%%%%%%%%%%%%%%%%%++%%%%%%#%%###ipDDDDgg",
"ttSgSS&6..                      .                       11SSSStt",
"ttvSSa36                                                11SSSStt",
"MMDDDDtt                                                eeDDDDhj",
"MMDDDDtt                                                eeDDDDaa",
"SbDDDDtt                                                eeDDDDaa",
"vSDDDDtr                                                eeDDDDgj",
"SSSSDDt8                                                eeDDDDgg",
"vSSSDDtt                                                eeDDDDgg",
"SSSFDDtt                                                eeDDDDgg",
"SSFFDDtt                                                eeDDDDgg",
"8SSSSHS6                                                --BVBB77",
"SSSSHHtt                                                --VVBV77",
"=6SSSS66                                                eeDDDDgg",
"6SSSSS66                                                eeDDDFgg",
"SSGGSS8t@@$$$$$$$$$$XX$$$$$$$$$$$$$$$$$$$$OO$$$$$$$$$$..iiDDDDag",
"gSGGSStt@@$$$$$#$$$$XX$$$$$$$$$#$$$$$$$$$$OO$$$$$$$$$$..iiDDDDgg",
"StHHGGSSDDDDDDDDDDDDccDDDDDDDDDDDDDDDDDDGGVBDDDDFDDDDDDDDDDDHGat",
"tSHGSSGGDDDDDDDDDDDDccDDDDDDDDDDDDDDDDDDGGBBDDDDFDDDDDDDDDDDGHta",
"6tSSASZCCCCCCCCCCCZZpdAZZZCCCCVCVCCVCCCCCCccCCVCCCCVVVVVCVVCSH=7",
"ttSSSACCCCACZCZCCCCZppZZZCCCCCVCVCCCCCCCCClxCCCCCCVVVVCVVCCVHS=<",
"uuSSnlncnknnknlnnznnrrnncnnnlnzzlzllnlnllzpinnllnlllnlzllllllltq",
"utgallnlnnnnnnnnnzmzrqmnnnnnnnznnlnlfnlnlziillnlnllnllllllzllg7q",
"gafllfllfknkknknllzl22zlnllnlzzllkllkknkllurllknfknflllklfllfl76",
"aalfllllfnknnknkllll22llnllnnllzlzllnklkllrynknknfnklllllljlfl67",
"uussffflfkkkfkkklkkl,>klkklkklkklkklllknllqwklknkkfklklfffffff<<",
"uuffffffkkkkkkknlllk,,lkklklllkllllllkkkllrwllkfnnkkkjflffflff=6",
"99<><<,,<<<<<<<<<<<<<=<7<22qqq=11<<<<2<<<<<<<<<2<2<<<<<<<<<<,,54",
"99<<,,<><<<<1<<1<<<<-=<7<<<-==q12<<<<<2<<<<>2<<<2<2<<<<22<<<<<44",
";;p8llzzkn=6eeeseeeyyy,-wwwwyyweeweweweeweeeyweeeeyy**yyyyyy**;;",
";;pizzzzll,-yeyeeeeeee-=weweeewweeweweweewewyyeyeeye==yyyyys**;;",
";;yuzlzlzz,:eyeeeeeeee-<ewwwwwwweweeewewweweeeeeyeye-&syyyui*=;;",
";;uuzzzzzz,:yyseyeeyee<-wewwwwwwweweweweeyeeeeeyeeey**syyiyi**;;",
";;ppzzzzzztr22qqwyeewwqqsysssssssseiww22qqqqqqqqqqq2>>yyiisi==;;",
";;upzzzzzztrqqqqrwwwww1qyessssssssie8e2wqqqqqqw1qq<2,>uyiyuu==;;",
";;upzzzzzz,,zzlnllllllllllllllllklllllqqeyeysessee&:iiiiiiii::;;",
";;ppzzNznn,,lnllnfllllllllllllllklllll1<yyyyeeeeew>&dipiiihi::;;",
";;ppzzzznc,,llllflfflffflfffflflkkfklfeessssesysss::iiiisihi*:;;",
";;ppzzNznv6,nlffffflflflfffffflfkkkkffeeesesssssse::iiiisdih**;;",
";;21Nmzznm,,q2yyyssysswrqyryyysysssssseseseeseee1<&&iiiiiiis==;;",
";;2qmmmzmm,,qqyessessyrerqyyyyyyssssssyeeessesee21&&iiiidhdi==;;",
";;00iixxlguunnmmnnmmmnmnrrflffffffflllflflflffllkkzz:,rwiiri==;;",
";;00iizxgfuynmnmnmnmnmnmqyllflffnflffflflflffflfkkzz::i8iii8==;;",
";;jxmmzNzNirznnnnnnnnnnnyyffffffffffffffffffffffkfnn<<jhdhlj87;;",
";;xxmNNNNNi8zznnnnnnnnnnyyfffffffffffffffffsffffkfnl<<didilj77;;",
";;xxNNNNNzddw7yyysysssyyyyssssssyssywwqqyyssssyy22qriijshhNN77;;",
";;cxNNNNNNdd72yyyufsysyyyessssssyysswwwwesssssyyq2rqiidhhdNN77;;",
";;xxVVVBVN6,hhfsfsfsfsssffllflfffflfflyyfffflkllkk,,djhjNNVV77;;",
";;xxVVVVBV<<jkfssfdyssffffflflllflllllyyfnflkkfflk,,fjjjNNVV77;;",
";;xcVVVCVV<6llffffffffffffffffffffffffssfffffffkff,,jjzmNVVV77;;",
";;cxVVVVVV66llffffffffffffffffffffffffssfffffffkff,,jlnzNVVV77;;",
";;ccCVCCCZdd7222q222yyq2222q<q77qq2q2q:672yy72q22287NmVVVVVV88;;",
";;ccZZCCVVid77272qq7yy22qq7qq<qq222q22,,22yr22722q22mmVVVVVV77;;",
";;vvCCVCZCCVVVZVVCVCuuCVmVNVBVVVCVVVCNBCVVjjVVVVVVVVBVVVVVZZ72;;",
";;vvCCVVCCCCZZVVVCVNduVVVVBVVVCCmCVVNCmCVVcjVVVVVVVVVVVVVVZZ72;;",
";;dxBVVBNNNNVNNNmmmmddmmmmBmmVmmmmmmmNmmVmjcNmmNNmNmNNNmNNNN:*;;",
";;axVVVVNNNNNNmmmmNNdfmVmmmNmmmmVmmmmmmmmmjjmNmNNNmNNNNNNNVN**;;",
";;3,<<<<<<<<3<1<2<<<==2=q=22<<<<<<qq=2q=<<>=<<<<<<2<<<<<1<3<33;;",
";;33<<<<<<<<1<<<<<<2==q=22q=<<<<<<=2q<<q<2=,<<<<<<<<<<<<<<,,33;;"
};
