/* XPM */
static char *result[] = {
/* columns rows colors chars-per-pixel */
"64 64 21 1 ",
"  c #6D721B",
". c #6E731A",
"X c #6F731A",
"o c #70741A",
"O c #72751B",
"+ c #70751C",
"@ c #71761C",
"# c #74771D",
"$ c #75781E",
"% c #76791F",
"& c #767A20",
"* c #787B20",
"= c #797B20",
"- c #797C21",
"; c #EAE178",
": c #5C4E92",
"> c #766DAA",
", c #E8B5AC",
"< c #DDD5DE",
"1 c #F3D8C5",
"2 c #F3F2C0",
/* pixels */
"OOOOOOOOOOOOOOOOOOOOOOOOOOOO::::::::::::OOOOOOOOOOOOOOOOOOOOOOOO",
"OOOOOOOOOOOOOOOOOOOOOOOOOOOO::::::::::::OOOOOOOOOOOOOOOOOOOOOOOO",
"OOOOOOOOOOOOOOOOOOOOOOOOOOOO::::::::::::OOOOOOOOOOOOOOOOOOOOOOOO",
"OOOOOOOOOOOOOOOOOOOOOOOOOOOO::::::::::::OOOOOOOOOOOOOOOOOOOOOOOO",
"OOOOOOOOOOOOOOOOOOOOOOOO::::222222222222::::OOOOOOOOOOOOOOOOOOOO",
"OOOOOOOOOOOOOOOOOOOOOOOO::::222222222222::::OOOOOOOOOOOOOOOOOOOO",
"OOOOOOOOOOOOOOOOOOOOOOOO::::222222222222::::OOOOOOOOOOOOOOOOOOOO",
"OOOOOOOOOOOOOOOOOOOOOOOO::::222222222222::::OOOOOOOOOOOOOOOOOOOO",
"OOOOOOOOOOOOOOOOOOOO::::::::2222,,,,,,,,2222::::OOOOOOOOOOOOOOOO",
"OOOOOOOOOOOOOOOOOOOO::::::::2222,,,,,,,,2222::::OOOOOOOOOOOOOOOO",
"OOOOOOOOOOOOOOOOOOOO::::::::2222,,,,,,,,2222::::OOOOOOOOOOOOOOOO",
"OOOOOOOOOOOOOOOOOOOO::::::::2222,,,,,,,,2222::::OOOOOOOOOOOOOOOO",
"OOOOOOOOOOOOOOOO::::222222222222,,,,,,,,2222::::OOOOOOOOOOOOOOOO",
"OOOOOOOOOOOOOOOO::::222222222222,,,,,,,,2222::::OOOOOOOOOOOOOOOO",
"OOOOOOOOOOOOOOOO::::222222222222,,,,,,,,2222::::OOOOOOOOOOOOOOOO",
"OOOOOOOOOOOOOOOO::::222222222222,,,,,,,,2222::::OOOOOOOOOOOOOOOO",
"OOOOOOOOOOOOOOOO::::222222222222222222222222::::OOOOOOOOOOOOOOOO",
"OOOOOOOOOOOOOOOO::::222222222222222222222222::::OOOOOOOOOOOOOOOO",
"OOOOOOOOOOOOOOOO::::222222222222222222222222::::OOOOOOOOOOOOOOOO",
"OOOOOOOOOOOOOOOO::::222222222222222222222222::::OOOOOOOOOOOOOOOO",
"OOOOOOOOOOOOOOOO::::222222222222222222222222::::OOOOOOOOOOOOOOOO",
"OOOOOOOOOOOOOOOO::::222222222222222222222222::::OOOOOOOOOOOOOOOO",
"OOOOOOOOOOOOOOOO::::222222222222222222222222::::OOOOOOOOOOOOOOOO",
"OOOOOOOOOOOOOOOO::::222222222222222222222222::::OOOOOOOOOOOOOOOO",
"OOOOOOOOOOOO::::::::222222222222222222222222::::::::OOOOOOOOOOOO",
"OOOOOOOOOOOO::::::::222222222222222222222222::::::::OOOOOOOOOOOO",
"OOOOOOOOOOOO::::::::222222222222222222222222::::::::OOOOOOOOOOOO",
"OOOOOOOOOOOO::::::::222222222222222222222222::::::::OOOOOOOOOOOO",
"OOOOOOOOOOOO::::22222222::::2222222222222222::::OOOOOOOOOOOOOOOO",
"OOOOOOOOOOOO::::22222222::::2222222222222222::::OOOOOOOOOOOOOOOO",
"OOOOOOOOOOOO::::22222222::::2222222222222222::::OOOOOOOOOOOOOOOO",
"OOOOOOOOOOOO::::22222222::::2222222222222222::::OOOOOOOOOOOOOOOO",
"OOOOOOOOOOOO::::2222222222222222222222222222::::::::OOOOOOOOOOOO",
"OOOOOOOOOOOO::::2222222222222222222222222222::::::::OOOOOOOOOOOO",
"OOOOOOOOOOOO::::2222222222222222222222222222::::::::OOOOOOOOOOOO",
"OOOOOOOOOOOO::::2222222222222222222222222222::::::::OOOOOOOOOOOO",
"OOOOOOOOOOOO::::2222222222221111111122222222::::OOOOOOOOOOOOOOOO",
"OOOOOOOOOOOO::::2222222222221111111122222222::::OOOOOOOOOOOOOOOO",
"OOOOOOOOOOOO::::2222222222221111111122222222::::OOOOOOOOOOOOOOOO",
"OOOOOOOOOOOO::::2222222222221111111122222222::::OOOOOOOOOOOOOOOO",
"OOOOOOOOOOOOOOOO::::>>>>>>>>>>>>>>>>>>>>::::OOOOOOOOOOOOOOOOOOOO",
"OOOOOOOOOOOOOOOO::::>>>>>>>>>>>>>>>>>>>>::::OOOOOOOOOOOOOOOOOOOO",
"OOOOOOOOOOOOOOOO::::>>>>>>>>>>>>>>>>>>>>::::OOOOOOOOOOOOOOOOOOOO",
"OOOOOOOOOOOOOOOO::::>>>>>>>>>>>>>>>>>>>>::::OOOOOOOOOOOOOOOOOOOO",
"OOOOOOOOOOOOOOOO;;;;>>>>>>>>>>>>>>>>2222<<<<::::OOOOOOOOOOOOOOOO",
"OOOOOOOOOOOOOOOO;;;;>>>>>>>>>>>>>>>>2222<<<<::::OOOOOOOOOOOOOOOO",
"OOOOOOOOOOOOOOOO;;;;>>>>>>>>>>>>>>>>2222<<<<::::OOOOOOOOOOOOOOOO",
"OOOOOOOOOOOOOOOO;;;;>>>>>>>>>>>>>>>>2222<<<<::::OOOOOOOOOOOOOOOO",
"OOOOOOOOOOOOOOOO;;;;::::2222222222222222<<<<::::OOOOOOOOOOOOOOOO",
"OOOOOOOOOOOOOOOO;;;;::::2222222222222222<<<<::::OOOOOOOOOOOOOOOO",
"OOOOOOOOOOOOOOOO;;;;::::2222222222222222<<<<::::OOOOOOOOOOOOOOOO",
"OOOOOOOOOOOOOOOO;;;;::::2222222222222222<<<<::::OOOOOOOOOOOOOOOO",
"OO**OOOO%%OOOOOOOOOO::::2222222222222222::::OOOOOOOOOOOOOOOOOOOO",
"OO**OOOO%%OOOOOOOOOO::::2222222222222222::::OOOOOOOOOOOOOOOOOOOO",
"OO++**%%##OOOOOOOOOO::::2222222222222222::::OOOOOOOOOOOOOOOOOOOO",
"OO++**%%##OOOOOOOOOO::::2222222222222222::::OOOOOOOOOOOOOOOOOOOO",
"OOXX  XXooOOOOOOOOOOOOOO::::<<<<<<<<::::OO$$OOOOOOOOOOOOOOOOOO##",
"OOXX  XXooOOOOOOOOOOOOOO::::<<<<<<<<::::OO$$OOOOOOOOOOOOOOOOOO##",
"OOOOOOOOOOOOOOOOOOOOOOOO::::<<<<<<<<::::--OOOOOOOOOOOOOOOOOO==@@",
"OOOOOOOOOOOOOOOOOOOOOOOO::::<<<<<<<<::::--OOOOOOOOOOOOOOOOOO==@@",
"OOOOOOOOOOOOOOOOOOOOOOOOOOOO::::::::OOOO  &&OOOOOOOOOOOOOOOO..##",
"OOOOOOOOOOOOOOOOOOOOOOOOOOOO::::::::OOOO  &&OOOOOOOOOOOOOOOO..##",
"OOOOOOOOOOOOOOOOOOOOOOOOOOOO::::::::OOOOOO  OOOOOOOOOOOOOOOOOOoo",
"OOOOOOOOOOOOOOOOOOOOOOOOOOOO::::::::OOOOOO  OOOOOOOOOOOOOOOOOOoo"
};
