/* XPM */
static char *result[] = {
/* columns rows colors chars-per-pixel */
"64 64 15 1 ",
"  c #6D721B",
". c #6E731A",
"X c #6F731A",
"o c #70741A",
"O c #72751B",
"+ c #70751C",
"@ c #71761C",
"# c #74771D",
"$ c #76791F",
"% c #787B20",
"& c #797B20",
"* c #5C4E92",
"= c #766DAA",
"- c #DDD5DE",
"; c #F3F2C0",
/* pixels */
"OOOOOOOO****************OOOOOOOOOOOOOOOOOOOO************OOOOOOOO",
"OOOOOOOO****************OOOOOOOOOOOOOOOOOOOO************OOOOOOOO",
"OOOOOOOO****************OOOOOOOOOOOOOOOOOOOO************OOOOOOOO",
"OOOOOOOO****************OOOOOOOOOOOOOOOOOOOO************OOOOOOOO",
"OOOO****;;;;;;;;;;;;************************;;;;;;;;;;;;****OOOO",
"OOOO****;;;;;;;;;;;;************************;;;;;;;;;;;;****OOOO",
"OOOO****;;;;;;;;;;;;************************;;;;;;;;;;;;****OOOO",
"OOOO****;;;;;;;;;;;;************************;;;;;;;;;;;;****OOOO",
"OOOO****;;;;;;;;;;;;;;;;----------------;;;;;;;;;;;;;;;;****OOOO",
"OOOO****;;;;;;;;;;;;;;;;----------------;;;;;;;;;;;;;;;;****OOOO",
"OOOO****;;;;;;;;;;;;;;;;----------------;;;;;;;;;;;;;;;;****OOOO",
"OOOO****;;;;;;;;;;;;;;;;----------------;;;;;;;;;;;;;;;;****OOOO",
"OOOO****;;;;;;;;;;;;;;;;;;;;;;;;;;;;;;;;;;;;;;;;;;;;;;;;****OOOO",
"OOOO****;;;;;;;;;;;;;;;;;;;;;;;;;;;;;;;;;;;;;;;;;;;;;;;;****OOOO",
"OOOO****;;;;;;;;;;;;;;;;;;;;;;;;;;;;;;;;;;;;;;;;;;;;;;;;****OOOO",
"OOOO****;;;;;;;;;;;;;;;;;;;;;;;;;;;;;;;;;;;;;;;;;;;;;;;;****OOOO",
"OOOO****;;;;;;;;;;;;;;;;;;;;;;;;;;;;;;;;;;;;;;;;;;;;;;;;****OOOO",
"OOOO****;;;;;;;;;;;;;;;;;;;;;;;;;;;;;;;;;;;;;;;;;;;;;;;;****OOOO",
"OOOO****;;;;;;;;;;;;;;;;;;;;;;;;;;;;;;;;;;;;;;;;;;;;;;;;****OOOO",
"OOOO****;;;;;;;;;;;;;;;;;;;;;;;;;;;;;;;;;;;;;;;;;;;;;;;;****OOOO",
"********;;;;;;;;;;;;;;;;;;;;;;;;;;;;;;;;;;;;;;;;;;;;;;;;********",
"********;;;;;;;;;;;;;;;;;;;;;;;;;;;;;;;;;;;;;;;;;;;;;;;;********",
"********;;;;;;;;;;;;;;;;;;;;;;;;;;;;;;;;;;;;;;;;;;;;;;;;********",
"********;;;;;;;;;;;;;;;;;;;;;;;;;;;;;;;;;;;;;;;;;;;;;;;;********",
"OOOO****;;;;;;;;;;;;;;;;;;;;;;;;;;;;;;;;;;;;;;;;;;;;;;;;****OOOO",
"OOOO****;;;;;;;;;;;;;;;;;;;;;;;;;;;;;;;;;;;;;;;;;;;;;;;;****OOOO",
"OOOO****;;;;;;;;;;;;;;;;;;;;;;;;;;;;;;;;;;;;;;;;;;;;;;;;****OOOO",
"OOOO****;;;;;;;;;;;;;;;;;;;;;;;;;;;;;;;;;;;;;;;;;;;;;;;;****OOOO",
"********;;;;;;;;;;;;;;;;;;;;;;;;;;;;;;;;;;;;;;;;;;;;;;;;********",
"********;;;;;;;;;;;;;;;;;;;;;;;;;;;;;;;;;;;;;;;;;;;;;;;;********",
"********;;;;;;;;;;;;;;;;;;;;;;;;;;;;;;;;;;;;;;;;;;;;;;;;********",
"********;;;;;;;;;;;;;;;;;;;;;;;;;;;;;;;;;;;;;;;;;;;;;;;;********",
"OOOO****;;;;;;;;;;;;;;;;;;;;;;;;;;;;;;;;;;;;;;;;;;;;;;;;****OOOO",
"OOOO****;;;;;;;;;;;;;;;;;;;;;;;;;;;;;;;;;;;;;;;;;;;;;;;;****OOOO",
"OOOO****;;;;;;;;;;;;;;;;;;;;;;;;;;;;;;;;;;;;;;;;;;;;;;;;****OOOO",
"OOOO****;;;;;;;;;;;;;;;;;;;;;;;;;;;;;;;;;;;;;;;;;;;;;;;;****OOOO",
"OOOOOOOO************========================************OOOOOOOO",
"OOOOOOOO************========================************OOOOOOOO",
"OOOOOOOO************========================************OOOOOOOO",
"OOOOOOOO************========================************OOOOOOOO",
"OOOOOOOOOOOOOOOO****========================****OOOOOOOOOOOOOOOO",
"OOOOOOOOOOOOOOOO****========================****OOOOOOOOOOOOOOOO",
"OOOOOOOOOOOOOOOO****========================****OOOOOOOOOOOOOOOO",
"OOOOOOOOOOOOOOOO****========================****OOOOOOOOOOOOOOOO",
"OOOOOOOOOOOO****----;;;;;;;;********;;;;;;;;----****OOOOOOOOOOOO",
"OOOOOOOOOOOO****----;;;;;;;;********;;;;;;;;----****OOOOOOOOOOOO",
"OOOOOOOOOOOO****----;;;;;;;;********;;;;;;;;----****OOOOOOOOOOOO",
"OOOOOOOOOOOO****----;;;;;;;;********;;;;;;;;----****OOOOOOOOOOOO",
"OOOOOOOOOOOO****----;;;;****;;;;;;;;****;;;;----****OOOOOOOOOOOO",
"OOOOOOOOOOOO****----;;;;****;;;;;;;;****;;;;----****OOOOOOOOOOOO",
"OOOOOOOOOOOO****----;;;;****;;;;;;;;****;;;;----****OOOOOOOOOOOO",
"OOOOOOOOOOOO****----;;;;****;;;;;;;;****;;;;----****OOOOOOOOOOOO",
"OO%%OOOO$$OOOOOO****;;;;;;;;;;;;;;;;;;;;;;;;****OOOOOOOOOOOOOOOO",
"OO%%OOOO$$OOOOOO****;;;;;;;;;;;;;;;;;;;;;;;;****OOOOOOOOOOOOOOOO",
"OO++%%$$##OOOOOO****;;;;;;;;;;;;;;;;;;;;;;;;****OOOOOOOOOOOOOOOO",
"OO++%%$$##OOOOOO****;;;;;;;;;;;;;;;;;;;;;;;;****OOOOOOOOOOOOOOOO",
"OOXX  XXooOOOOOO****--------********--------****OOOOOOOOOOOOOO##",
"OOXX  XXooOOOOOO****--------********--------****OOOOOOOOOOOOOO##",
"OOOOOOOOOOOOOOOO****--------********--------****OOOOOOOOOOOO&&@@",
"OOOOOOOOOOOOOOOO****--------********--------****OOOOOOOOOOOO&&@@",
"OOOOOOOOOOOOOOOOOOOO********OOOOOOOO********OOOOOOOOOOOOOOOO..##",
"OOOOOOOOOOOOOOOOOOOO********OOOOOOOO********OOOOOOOOOOOOOOOO..##",
"OOOOOOOOOOOOOOOOOOOO********OOOOOOOO********OOOOOOOOOOOOOOOOOOoo",
"OOOOOOOOOOOOOOOOOOOO********OOOOOOOO********OOOOOOOOOOOOOOOOOOoo"
};
