/* XPM */
static char *result[] = {
/* columns rows colors chars-per-pixel */
"64 64 16 1 ",
"  c #6D721B",
". c #6E731A",
"X c #6F731A",
"o c #70741A",
"O c #72751B",
"+ c #70751C",
"@ c #71761C",
"# c #74771D",
"$ c #76791F",
"% c #787B20",
"& c #797B20",
"* c #A20D0D",
"= c #8E4545",
"- c #915E5E",
"; c #8E7575",
": c #F3F2C0",
/* pixels */
"OOOOOOOO****************OOOOOOOOOOOOOOOO****************OOOOOOOO",
"OOOOOOOO****************OOOOOOOOOOOOOOOO****************OOOOOOOO",
"OOOOOOOO****************OOOOOOOOOOOOOOOO****************OOOOOOOO",
"OOOOOOOO****************OOOOOOOOOOOOOOOO****************OOOOOOOO",
"OOOO****::::::::::::::::****OOOOOOOO****::::::::::::::::****OOOO",
"OOOO****::::::::::::::::****OOOOOOOO****::::::::::::::::****OOOO",
"OOOO****::::::::::::::::****OOOOOOOO****::::::::::::::::****OOOO",
"OOOO****::::::::::::::::****OOOOOOOO****::::::::::::::::****OOOO",
"OOOO****::::::::::::::::****************::::::::::::::::****OOOO",
"OOOO****::::::::::::::::****************::::::::::::::::****OOOO",
"OOOO****::::::::::::::::****************::::::::::::::::****OOOO",
"OOOO****::::::::::::::::****************::::::::::::::::****OOOO",
"OOOO****::::::::::::::::;;;;;;;;;;;;;;;;::::::::::::::::****OOOO",
"OOOO****::::::::::::::::;;;;;;;;;;;;;;;;::::::::::::::::****OOOO",
"OOOO****::::::::::::::::;;;;;;;;;;;;;;;;::::::::::::::::****OOOO",
"OOOO****::::::::::::::::;;;;;;;;;;;;;;;;::::::::::::::::****OOOO",
"OOOO****::::::::::::::::::::::::::::::::::::::::::::::::****OOOO",
"OOOO****::::::::::::::::::::::::::::::::::::::::::::::::****OOOO",
"OOOO****::::::::::::::::::::::::::::::::::::::::::::::::****OOOO",
"OOOO****::::::::::::::::::::::::::::::::::::::::::::::::****OOOO",
"OOOO****::::::::::::::::::::::::::::::::::::::::::::::::****OOOO",
"OOOO****::::::::::::::::::::::::::::::::::::::::::::::::****OOOO",
"OOOO****::::::::::::::::::::::::::::::::::::::::::::::::****OOOO",
"OOOO****::::::::::::::::::::::::::::::::::::::::::::::::****OOOO",
"********::::::::::::::::::::::::::::::::::::::::::::::::********",
"********::::::::::::::::::::::::::::::::::::::::::::::::********",
"********::::::::::::::::::::::::::::::::::::::::::::::::********",
"********::::::::::::::::::::::::::::::::::::::::::::::::********",
"OOOO****::::::::::::::::::::::::::::::::::::::::::::::::****OOOO",
"OOOO****::::::::::::::::::::::::::::::::::::::::::::::::****OOOO",
"OOOO****::::::::::::::::::::::::::::::::::::::::::::::::****OOOO",
"OOOO****::::::::::::::::::::::::::::::::::::::::::::::::****OOOO",
"********::::::::::::::::::::::::::::::::::::::::::::::::********",
"********::::::::::::::::::::::::::::::::::::::::::::::::********",
"********::::::::::::::::::::::::::::::::::::::::::::::::********",
"********::::::::::::::::::::::::::::::::::::::::::::::::********",
"OOOO********::::::::::::::::::::::::::::::::::::::::********OOOO",
"OOOO********::::::::::::::::::::::::::::::::::::::::********OOOO",
"OOOO********::::::::::::::::::::::::::::::::::::::::********OOOO",
"OOOO********::::::::::::::::::::::::::::::::::::::::********OOOO",
"OOOOOOOOOOOO********========================********OOOOOOOOOOOO",
"OOOOOOOOOOOO********========================********OOOOOOOOOOOO",
"OOOOOOOOOOOO********========================********OOOOOOOOOOOO",
"OOOOOOOOOOOO********========================********OOOOOOOOOOOO",
"OOOOOOOO****----::::========********========::::;;;;****OOOOOOOO",
"OOOOOOOO****----::::========********========::::;;;;****OOOOOOOO",
"OOOOOOOO****----::::========********========::::;;;;****OOOOOOOO",
"OOOOOOOO****----::::========********========::::;;;;****OOOOOOOO",
"OOOOOOOO****----::::::::****::::::::****::::::::;;;;****OOOOOOOO",
"OOOOOOOO****----::::::::****::::::::****::::::::;;;;****OOOOOOOO",
"OOOOOOOO****----::::::::****::::::::****::::::::;;;;****OOOOOOOO",
"OOOOOOOO****----::::::::****::::::::****::::::::;;;;****OOOOOOOO",
"OO%%OOOO$$OO********::::::::::::::::::::::::********OOOOOOOOOOOO",
"OO%%OOOO$$OO********::::::::::::::::::::::::********OOOOOOOOOOOO",
"OO++%%$$##OO********::::::::::::::::::::::::********OOOOOOOOOOOO",
"OO++%%$$##OO********::::::::::::::::::::::::********OOOOOOOOOOOO",
"OOXX  XXooOOOOOO****;;;;;;;;********;;;;;;;;****OOOOOOOOOOOOOO##",
"OOXX  XXooOOOOOO****;;;;;;;;********;;;;;;;;****OOOOOOOOOOOOOO##",
"OOOOOOOOOOOOOOOO****;;;;;;;;********;;;;;;;;****OOOOOOOOOOOO&&@@",
"OOOOOOOOOOOOOOOO****;;;;;;;;********;;;;;;;;****OOOOOOOOOOOO&&@@",
"OOOOOOOOOOOOOOOOOOOO********OOOOOOOO********OOOOOOOOOOOOOOOO..##",
"OOOOOOOOOOOOOOOOOOOO********OOOOOOOO********OOOOOOOOOOOOOOOO..##",
"OOOOOOOOOOOOOOOOOOOO********OOOOOOOO********OOOOOOOOOOOOOOOOOOoo",
"OOOOOOOOOOOOOOOOOOOO********OOOOOOOO********OOOOOOOOOOOOOOOOOOoo"
};
