/* XPM */
static char *result[] = {
/* columns rows colors chars-per-pixel */
"64 64 22 1 ",
"  c #6D721B",
". c #6E731A",
"X c #6F731A",
"o c #70741A",
"O c #72751B",
"+ c #70751C",
"@ c #71761C",
"# c #74771D",
"$ c #75781E",
"% c #76791F",
"& c #767A20",
"* c #787B20",
"= c #797B20",
"- c #797C21",
"; c #A20D0D",
": c #8E4545",
"> c #8E7575",
", c #EAE178",
"< c #5C4E92",
"1 c #E8B5AC",
"2 c #F3D8C5",
"3 c #F3F2C0",
/* pixels */
"OOOOOOOOOOOOOOOOOOOOOOOOOOOOOOOO;;;;;;;;;;;;OOOOOOOOOOOOOOOOOOOO",
"OOOOOOOOOOOOOOOOOOOOOOOOOOOOOOOO;;;;;;;;;;;;OOOOOOOOOOOOOOOOOOOO",
"OOOOOOOOOOOOOOOOOOOOOOOOOOOOOOOO;;;;;;;;;;;;OOOOOOOOOOOOOOOOOOOO",
"OOOOOOOOOOOOOOOOOOOOOOOOOOOOOOOO;;;;;;;;;;;;OOOOOOOOOOOOOOOOOOOO",
"OOOOOOOOOOOOOOOOOOOO;;;;;;;;;;;;333333333333;;;;OOOOOOOOOOOOOOOO",
"OOOOOOOOOOOOOOOOOOOO;;;;;;;;;;;;333333333333;;;;OOOOOOOOOOOOOOOO",
"OOOOOOOOOOOOOOOOOOOO;;;;;;;;;;;;333333333333;;;;OOOOOOOOOOOOOOOO",
"OOOOOOOOOOOOOOOOOOOO;;;;;;;;;;;;333333333333;;;;OOOOOOOOOOOOOOOO",
"OOOOOOOOOOOOOOOO;;;;3333333333333333111111113333;;;;OOOOOOOOOOOO",
"OOOOOOOOOOOOOOOO;;;;3333333333333333111111113333;;;;OOOOOOOOOOOO",
"OOOOOOOOOOOOOOOO;;;;3333333333333333111111113333;;;;OOOOOOOOOOOO",
"OOOOOOOOOOOOOOOO;;;;3333333333333333111111113333;;;;OOOOOOOOOOOO",
"OOOOOOOOOOOOOOOO;;;;3333333333333333111111113333;;;;OOOOOOOOOOOO",
"OOOOOOOOOOOOOOOO;;;;3333333333333333111111113333;;;;OOOOOOOOOOOO",
"OOOOOOOOOOOOOOOO;;;;3333333333333333111111113333;;;;OOOOOOOOOOOO",
"OOOOOOOOOOOOOOOO;;;;3333333333333333111111113333;;;;OOOOOOOOOOOO",
"OOOOOOOOOOOOOOOO;;;;333333333333333333333333;;;;OOOOOOOOOOOOOOOO",
"OOOOOOOOOOOOOOOO;;;;333333333333333333333333;;;;OOOOOOOOOOOOOOOO",
"OOOOOOOOOOOOOOOO;;;;333333333333333333333333;;;;OOOOOOOOOOOOOOOO",
"OOOOOOOOOOOOOOOO;;;;333333333333333333333333;;;;OOOOOOOOOOOOOOOO",
"OOOOOOOOOOOO;;;;;;;;333333333333333333333333;;;;;;;;OOOOOOOOOOOO",
"OOOOOOOOOOOO;;;;;;;;333333333333333333333333;;;;;;;;OOOOOOOOOOOO",
"OOOOOOOOOOOO;;;;;;;;333333333333333333333333;;;;;;;;OOOOOOOOOOOO",
"OOOOOOOOOOOO;;;;;;;;333333333333333333333333;;;;;;;;OOOOOOOOOOOO",
"OOOOOOOOOOOO;;;;33333333<<<<3333333333333333;;;;OOOOOOOOOOOOOOOO",
"OOOOOOOOOOOO;;;;33333333<<<<3333333333333333;;;;OOOOOOOOOOOOOOOO",
"OOOOOOOOOOOO;;;;33333333<<<<3333333333333333;;;;OOOOOOOOOOOOOOOO",
"OOOOOOOOOOOO;;;;33333333<<<<3333333333333333;;;;OOOOOOOOOOOOOOOO",
"OOOOOOOOOOOO;;;;3333333333333333333333333333;;;;;;;;OOOOOOOOOOOO",
"OOOOOOOOOOOO;;;;3333333333333333333333333333;;;;;;;;OOOOOOOOOOOO",
"OOOOOOOOOOOO;;;;3333333333333333333333333333;;;;;;;;OOOOOOOOOOOO",
"OOOOOOOOOOOO;;;;3333333333333333333333333333;;;;;;;;OOOOOOOOOOOO",
"OOOOOOOOOOOO;;;;3333333333332222222233333333;;;;OOOOOOOOOOOOOOOO",
"OOOOOOOOOOOO;;;;3333333333332222222233333333;;;;OOOOOOOOOOOOOOOO",
"OOOOOOOOOOOO;;;;3333333333332222222233333333;;;;OOOOOOOOOOOOOOOO",
"OOOOOOOOOOOO;;;;3333333333332222222233333333;;;;OOOOOOOOOOOOOOOO",
"OOOOOOOOOOOOOOOO;;;;::::::::::::::::::::;;;;OOOOOOOOOOOOOOOOOOOO",
"OOOOOOOOOOOOOOOO;;;;::::::::::::::::::::;;;;OOOOOOOOOOOOOOOOOOOO",
"OOOOOOOOOOOOOOOO;;;;::::::::::::::::::::;;;;OOOOOOOOOOOOOOOOOOOO",
"OOOOOOOOOOOOOOOO;;;;::::::::::::::::::::;;;;OOOOOOOOOOOOOOOOOOOO",
"OOOOOOOOOOOOOOOO,,,,::::::::::::::::3333>>>>;;;;OOOOOOOOOOOOOOOO",
"OOOOOOOOOOOOOOOO,,,,::::::::::::::::3333>>>>;;;;OOOOOOOOOOOOOOOO",
"OOOOOOOOOOOOOOOO,,,,::::::::::::::::3333>>>>;;;;OOOOOOOOOOOOOOOO",
"OOOOOOOOOOOOOOOO,,,,::::::::::::::::3333>>>>;;;;OOOOOOOOOOOOOOOO",
"OOOOOOOOOOOOOOOO,,,,;;;;3333333333333333>>>>;;;;OOOOOOOOOOOOOOOO",
"OOOOOOOOOOOOOOOO,,,,;;;;3333333333333333>>>>;;;;OOOOOOOOOOOOOOOO",
"OOOOOOOOOOOOOOOO,,,,;;;;3333333333333333>>>>;;;;OOOOOOOOOOOOOOOO",
"OOOOOOOOOOOOOOOO,,,,;;;;3333333333333333>>>>;;;;OOOOOOOOOOOOOOOO",
"OOOOOOOOOOOOOOOOOOOO;;;;3333333333333333;;;;OOOOOOOOOOOOOOOOOOOO",
"OOOOOOOOOOOOOOOOOOOO;;;;3333333333333333;;;;OOOOOOOOOOOOOOOOOOOO",
"OOOOOOOOOOOOOOOOOOOO;;;;3333333333333333;;;;OOOOOOOOOOOOOOOOOOOO",
"OOOOOOOOOOOOOOOOOOOO;;;;3333333333333333;;;;OOOOOOOOOOOOOOOOOOOO",
"OO**OOOO%%OOOOOOOOOO;;;;3333333333333333;;;;OOOOOOOOOOOOOOOOOOOO",
"OO**OOOO%%OOOOOOOOOO;;;;3333333333333333;;;;OOOOOOOOOOOOOOOOOOOO",
"OO++**%%##OOOOOOOOOO;;;;3333333333333333;;;;OOOOOOOOOOOOOOOOOOOO",
"OO++**%%##OOOOOOOOOO;;;;3333333333333333;;;;OOOOOOOOOOOOOOOOOOOO",
"OOXX  XXooOOOOOOOOOOOOOO;;;;>>>>>>>>;;;;OO$$OOOOOOOOOOOOOOOOOO##",
"OOXX  XXooOOOOOOOOOOOOOO;;;;>>>>>>>>;;;;OO$$OOOOOOOOOOOOOOOOOO##",
"OOOOOOOOOOOOOOOOOOOOOOOO;;;;>>>>>>>>;;;;--OOOOOOOOOOOOOOOOOO==@@",
"OOOOOOOOOOOOOOOOOOOOOOOO;;;;>>>>>>>>;;;;--OOOOOOOOOOOOOOOOOO==@@",
"OOOOOOOOOOOOOOOOOOOOOOOOOOOO;;;;;;;;OOOO  &&OOOOOOOOOOOOOOOO..##",
"OOOOOOOOOOOOOOOOOOOOOOOOOOOO;;;;;;;;OOOO  &&OOOOOOOOOOOOOOOO..##",
"OOOOOOOOOOOOOOOOOOOOOOOOOOOO;;;;;;;;OOOOOO  OOOOOOOOOOOOOOOOOOoo",
"OOOOOOOOOOOOOOOOOOOOOOOOOOOO;;;;;;;;OOOOOO  OOOOOOOOOOOOOOOOOOoo"
};
